<?xml version="1.0" standalone="no"?>
<!DOCTYPE svg PUBLIC "-//W3C//DTD SVG 20010904//EN"
 "http://www.w3.org/TR/2001/REC-SVG-20010904/DTD/svg10.dtd">
<svg version="1.0" xmlns="http://www.w3.org/2000/svg"
 width="274.000000pt" height="150.000000pt" viewBox="0 0 374.000000 538.000000"
 preserveAspectRatio="xMidYMid meet">
<metadata>
Created by potrace 1.16, written by Peter Selinger 2001-2019
</metadata>
<g transform="translate(0.000000,538.000000) scale(0.100000,-0.100000)"
fill="#1a0099" stroke="none">
<path d="M468 5056 c-117 -42 -198 -129 -246 -264 -15 -43 -17 -214 -19 -2119
-4 -2262 -6 -2150 53 -2270 33 -67 98 -134 165 -170 l54 -28 1377 -3 c1374 -2
1377 -2 1432 19 82 30 157 103 203 197 l38 76 0 2141 0 2141 -38 76 c-46 93
-121 167 -202 197 -55 21 -64 21 -1418 21 -1094 -1 -1369 -3 -1399 -14z m846
-151 c8 -33 45 -41 86 -20 45 23 48 11 7 -30 -39 -39 -87 -47 -119 -18 -20 18
-24 63 -6 81 18 18 25 15 32 -13z m1176 0 c31 -81 -67 -117 -135 -49 -42 41
-40 52 4 30 51 -27 91 -15 91 26 0 27 29 22 40 -7z m-797 -11 c131 -66 160
-241 55 -329 -36 -30 -81 -32 -108 -5 -31 31 -26 60 8 60 53 0 82 57 58 114
-44 106 -206 98 -316 -16 -50 -53 -51 -38 -2 38 84 129 210 186 305 138z m542
-8 c53 -25 104 -74 149 -141 35 -53 33 -74 -3 -32 -38 43 -117 85 -174 93 -88
12 -157 -35 -157 -108 0 -45 18 -68 60 -77 27 -6 34 -12 32 -27 -15 -85 -131
-63 -174 33 -43 97 -2 213 92 261 57 28 112 28 175 -2z m-1103 -80 c29 -19 58
-72 58 -106 0 -11 -7 -35 -17 -53 l-16 -32 -10 30 c-22 68 -77 86 -122 41 -71
-71 -20 -210 91 -246 94 -31 232 29 366 162 43 42 78 74 78 72 0 -3 -13 -31
-29 -62 -42 -83 -112 -165 -184 -215 -104 -72 -179 -97 -302 -97 -204 -1 -298
-33 -388 -130 -88 -95 -124 -224 -98 -352 32 -150 174 -242 278 -178 62 37 91
136 58 200 -20 38 -62 70 -94 70 l-26 0 28 28 c23 23 36 27 81 27 67 0 101
-22 134 -88 61 -117 9 -272 -110 -331 -166 -83 -367 35 -422 249 -73 278 93
569 370 647 l80 23 -29 47 c-51 81 -47 180 10 255 52 70 143 86 215 39z m1657
9 c101 -52 134 -210 64 -309 l-30 -43 72 -17 c140 -33 266 -133 334 -266 51
-98 64 -164 59 -286 -3 -85 -8 -108 -35 -166 -37 -80 -108 -154 -175 -186 -56
-26 -150 -30 -202 -8 -51 21 -107 76 -132 131 -68 144 19 319 148 302 65 -9
120 -57 64 -57 -13 0 -35 -9 -50 -21 -77 -61 -74 -165 8 -237 106 -93 271 16
294 196 22 165 -71 343 -213 408 -61 28 -159 44 -276 44 -154 0 -276 55 -390
176 -48 52 -129 176 -129 199 0 5 37 -27 83 -71 182 -178 330 -219 432 -121
47 46 62 91 51 152 -8 39 -47 75 -82 75 -31 0 -64 -33 -64 -65 0 -36 -15 -31
-35 11 -50 107 92 218 204 159z m-1979 -25 c11 -11 20 -31 20 -44 0 -22 -5
-25 -42 -28 -39 -3 -44 -6 -55 -38 l-11 -35 -12 30 c-16 41 -4 90 27 115 32
25 48 25 73 0z m2203 9 c40 -18 56 -70 40 -128 -6 -23 -7 -23 -22 10 -13 28
-23 35 -56 39 -49 6 -57 29 -21 65 29 29 27 28 59 14z m-2304 -288 c-30 -27
-63 -65 -74 -85 -24 -44 -35 -46 -35 -6 l0 31 -30 -16 c-42 -22 -92 -76 -120
-132 l-25 -48 -3 43 c-7 100 65 212 159 245 24 8 75 16 113 16 l70 1 -55 -49z
m2496 22 c83 -44 135 -129 134 -223 l0 -55 -15 30 c-33 63 -69 108 -110 136
-50 34 -57 36 -49 9 3 -11 2 -27 -3 -37 -8 -14 -13 -11 -30 23 -23 43 -61 87
-107 122 l-30 23 85 -4 c61 -2 96 -9 125 -24z m-1671 -90 c-12 -53 -74 -176
-110 -219 -53 -66 -104 -91 -217 -108 -57 -9 -113 -23 -133 -35 -19 -11 -34
-16 -34 -10 0 23 32 69 69 100 38 33 63 45 183 89 78 29 166 95 208 158 19 28
36 52 38 52 1 0 -1 -12 -4 -27z m720 -13 c58 -88 123 -135 255 -184 138 -51
192 -96 216 -176 7 -24 7 -24 -11 -9 -35 30 -66 41 -161 55 -52 8 -107 21
-121 29 -73 39 -138 123 -181 234 -42 108 -41 117 3 51z m-288 -832 c68 -92
155 -189 280 -313 193 -192 259 -278 314 -411 146 -351 73 -787 -152 -906 -33
-17 -60 -22 -113 -22 -84 -1 -169 34 -252 102 -63 50 -65 45 -23 -79 47 -142
115 -268 219 -410 13 -18 3 -19 -368 -19 -209 0 -381 2 -381 4 0 3 24 39 54
80 65 91 134 230 175 352 17 51 31 97 31 103 0 5 -28 -11 -62 -37 -93 -70
-159 -96 -243 -97 -59 0 -78 5 -124 30 -131 73 -206 235 -218 475 -16 322 105
578 397 845 130 119 284 299 347 406 9 16 18 29 19 29 0 0 46 -60 100 -132z
m-1352 -124 c116 -136 170 -266 171 -409 0 -104 -25 -181 -79 -242 -69 -78
-143 -100 -222 -64 -159 72 -135 325 34 357 45 9 49 0 24 -45 -40 -71 -21
-141 38 -141 72 0 126 149 102 280 -19 99 -78 226 -159 339 l-18 25 28 -19
c16 -10 52 -46 81 -81z m2617 64 c-111 -170 -142 -247 -149 -371 -5 -100 9
-165 46 -208 27 -33 71 -39 96 -13 23 22 20 90 -5 131 -12 19 -19 37 -16 40 3
3 25 2 49 -2 85 -15 149 -115 134 -209 -19 -118 -126 -191 -231 -156 -54 18
-119 81 -146 143 -34 78 -39 221 -9 319 21 71 63 158 102 208 22 29 140 150
146 150 2 0 -6 -15 -17 -32z m-2271 -77 c16 -31 12 -57 -16 -90 -36 -43 -89
-43 -139 0 -19 17 -35 34 -35 38 0 3 27 7 61 7 61 2 99 21 99 51 0 19 18 16
30 -6z m1875 -1 c9 -29 42 -43 107 -44 32 -1 58 -4 58 -7 0 -8 -42 -45 -67
-58 -35 -18 -80 -13 -107 12 -28 24 -34 48 -23 90 9 32 23 35 32 7z m-2235
-932 c50 -25 110 -99 129 -156 7 -20 15 -73 18 -117 10 -146 -47 -295 -168
-436 -33 -38 -69 -74 -81 -80 l-22 -12 23 34 c106 162 142 249 149 360 8 134
-39 239 -107 239 -61 0 -78 -65 -36 -138 19 -33 21 -44 11 -48 -26 -10 -92 16
-123 48 -40 41 -53 76 -53 139 0 143 135 230 260 167z m2708 -15 c50 -40 72
-86 72 -152 0 -99 -53 -171 -137 -187 -47 -9 -57 2 -33 37 48 66 31 149 -30
149 -35 0 -63 -25 -87 -77 -27 -60 -23 -221 7 -298 21 -54 91 -179 138 -245
17 -24 17 -24 -19 3 -69 52 -164 180 -200 268 -65 160 -63 307 5 423 47 80
111 118 194 113 40 -3 61 -11 90 -34z m-2411 -578 c27 -19 39 -75 23 -106
l-13 -23 -13 26 c-16 31 -60 48 -123 48 l-46 1 37 34 c42 39 96 47 135 20z
m2048 -5 c56 -34 51 -47 -17 -52 -55 -4 -65 -8 -89 -37 -27 -33 -27 -33 -39
-11 -16 30 -4 86 23 105 30 21 83 19 122 -5z m-2080 -180 c90 -38 155 -158
140 -258 -14 -94 -63 -155 -134 -167 -42 -7 -97 10 -120 38 -12 15 -10 17 14
17 18 0 40 13 66 39 35 35 39 44 39 90 0 60 -17 98 -60 135 -68 56 -184 24
-244 -68 -128 -197 -14 -492 218 -561 29 -9 90 -15 145 -15 211 0 327 -44 451
-169 64 -64 140 -176 140 -206 0 -4 -38 28 -84 71 -99 94 -173 140 -247 156
-131 27 -229 -43 -229 -165 0 -40 5 -54 29 -78 16 -16 39 -29 51 -29 27 0 70
43 70 70 0 28 14 25 28 -5 29 -63 4 -133 -58 -165 -51 -26 -103 -25 -152 2
-100 56 -127 218 -53 306 14 17 25 32 25 35 0 3 -24 10 -52 17 -138 32 -284
141 -347 259 -108 203 -89 433 48 574 95 99 204 126 316 77z m2187 8 c54 -16
139 -88 175 -149 167 -281 -12 -684 -339 -765 l-66 -16 32 -51 c27 -43 31 -59
31 -116 -1 -115 -59 -190 -155 -199 -81 -7 -149 44 -157 120 -4 34 -1 49 16
68 l20 25 1 -23 c0 -28 42 -72 69 -72 30 0 78 46 85 81 15 74 -34 156 -109
185 -106 40 -231 -14 -387 -165 -38 -36 -68 -62 -68 -57 0 5 16 37 35 72 72
128 193 232 321 274 51 17 102 24 219 29 145 7 156 9 218 39 79 39 138 101
180 190 28 60 32 77 32 157 0 95 -10 134 -53 198 -72 108 -219 116 -283 15
-16 -26 -19 -45 -16 -92 3 -53 7 -62 40 -92 22 -21 47 -34 63 -34 23 0 25 -2
13 -17 -52 -62 -171 -46 -218 30 -86 139 -11 330 147 373 48 13 88 11 154 -8z
m-335 -550 c-9 -35 -65 -96 -107 -118 -21 -11 -75 -33 -119 -49 -119 -44 -212
-116 -256 -200 -26 -52 -26 -35 1 42 31 87 65 146 111 198 55 61 91 78 203 95
107 15 128 22 150 49 17 20 24 12 17 -17z m-1674 2 c20 -12 75 -27 131 -35 53
-8 109 -21 124 -29 70 -36 172 -186 198 -291 6 -27 3 -25 -33 21 -68 85 -118
121 -232 165 -125 48 -163 70 -195 112 -23 31 -42 77 -32 77 3 0 20 -9 39 -20z
m-552 -324 c50 -42 69 -45 69 -11 0 31 15 32 31 3 19 -37 58 -81 96 -110 30
-23 33 -29 19 -34 -31 -12 -140 3 -181 24 -78 40 -124 107 -140 199 -10 65 4
71 36 15 15 -27 47 -66 70 -86z m2846 79 c-10 -96 -67 -177 -151 -213 -35 -15
-148 -27 -171 -18 -13 5 -8 13 27 39 24 18 57 56 74 85 32 53 44 57 44 15 0
-13 6 -23 14 -23 23 0 101 77 127 124 13 25 28 46 33 46 5 0 6 -25 3 -55z
m-1638 -229 c35 -19 57 -52 72 -109 32 -127 -87 -263 -213 -243 -87 14 -171
81 -223 179 l-28 52 44 -41 c137 -129 324 -116 324 23 0 51 -20 73 -67 73 -32
0 -37 22 -12 58 18 26 61 29 103 8z m425 -8 c26 -36 21 -58 -13 -58 -34 0 -71
-39 -71 -75 0 -35 42 -89 80 -102 72 -26 165 3 241 74 54 50 60 49 27 -6 -62
-104 -139 -164 -226 -177 -127 -19 -246 119 -212 247 17 61 76 119 123 119 26
0 40 -6 51 -22z m-1409 -148 c8 -7 28 -10 45 -8 26 4 30 2 30 -19 0 -56 -41
-79 -90 -53 -27 15 -41 72 -28 118 l11 37 8 -31 c5 -17 16 -37 24 -44z m2339
0 c-2 -58 -26 -90 -69 -90 -38 0 -59 24 -53 63 2 18 9 21 31 19 34 -4 67 22
67 52 0 16 3 17 12 8 7 -7 12 -30 12 -52z m-1694 -136 c47 -43 52 -61 10 -39
-48 25 -80 20 -93 -15 -13 -35 -22 -38 -37 -11 -16 30 -12 50 15 76 33 34 58
31 105 -11z m1107 14 c26 -25 30 -69 8 -88 -17 -14 -17 -15 -33 23 -14 32 -46
36 -92 12 -39 -20 -38 -6 3 32 51 49 79 54 114 21z"/>
</g>
</svg>
