<?xml version="1.0" standalone="no"?>
<!DOCTYPE svg PUBLIC "-//W3C//DTD SVG 20010904//EN"
 "http://www.w3.org/TR/2001/REC-SVG-20010904/DTD/svg10.dtd">
<svg version="1.0" xmlns="http://www.w3.org/2000/svg"
 width="426.000000pt" height="426.000000pt" viewBox="0 0 426.000000 426.000000"
 preserveAspectRatio="xMidYMid meet">
<metadata>
Created by potrace 1.16, written by Peter Selinger 2001-2019
</metadata>
<g transform="translate(0.000000,426.000000) scale(0.100000,-0.100000)"
fill="#1a0099" stroke="none">
<path d="M2110 2858 c-67 -84 -136 -151 -251 -244 -175 -141 -252 -245 -289
-390 -32 -122 -21 -275 26 -365 25 -49 86 -111 129 -130 79 -36 202 -15 294
50 18 13 34 21 37 18 7 -6 -49 -138 -83 -197 -15 -25 -46 -71 -70 -102 -23
-31 -43 -59 -43 -62 0 -3 131 -6 290 -6 166 0 290 4 290 9 0 5 -16 28 -35 51
-20 24 -53 73 -75 109 -40 67 -95 201 -83 201 3 0 27 -13 53 -30 239 -154 450
-6 450 317 0 182 -84 343 -252 480 -46 37 -142 127 -215 200 -72 73 -133 133
-136 133 -2 0 -19 -19 -37 -42z m-24 -195 c-31 -66 -79 -120 -148 -165 -29
-18 -48 -37 -48 -48 0 -25 17 -35 35 -20 12 10 15 9 15 -9 0 -13 -10 -26 -25
-33 -21 -9 -28 -8 -45 7 -11 10 -20 24 -20 32 0 21 -19 15 -51 -16 -33 -33
-39 -80 -13 -105 18 -18 17 -18 38 -10 9 3 16 18 16 33 l1 26 19 -23 c23 -28
13 -56 -25 -74 -19 -8 -30 -7 -57 9 -90 53 -51 150 93 228 80 43 182 138 214
197 30 57 30 36 1 -29z m174 -30 c37 -49 115 -111 186 -146 68 -35 112 -79
120 -124 9 -45 -10 -82 -51 -102 -25 -12 -32 -12 -54 0 -31 17 -37 72 -10 77
11 2 16 -3 15 -14 -2 -25 29 -41 48 -25 25 21 20 75 -10 110 -29 35 -54 40
-54 11 0 -10 -10 -24 -21 -31 -29 -15 -69 3 -69 31 0 22 16 28 22 8 6 -17 28
0 28 22 0 12 -19 32 -52 53 -61 38 -109 90 -138 147 -23 45 -26 75 -5 45 8
-11 28 -39 45 -62z m-552 -336 c4 -20 -25 -34 -40 -19 -15 15 -1 44 19 40 10
-2 19 -11 21 -21z m930 0 c4 -20 -25 -34 -40 -19 -15 15 -1 44 19 40 10 -2 19
-11 21 -21z m-802 -91 c38 -38 43 -70 19 -116 -31 -60 -145 -61 -153 -2 -4 23
-3 23 28 7 28 -15 34 -15 55 -1 32 21 40 52 21 81 -23 34 -59 41 -97 19 -94
-55 -104 -166 -27 -294 39 -65 75 -88 154 -98 56 -8 58 -9 26 -16 -19 -4 -55
-5 -80 -1 -63 9 -130 76 -161 160 -33 88 -27 180 15 232 39 48 68 63 123 63
36 0 49 -6 77 -34z m790 14 c73 -46 96 -168 53 -281 -42 -113 -127 -170 -228
-153 l-46 8 55 6 c30 4 69 14 87 23 90 47 152 222 108 306 -19 38 -72 81 -99
81 -63 0 -92 -82 -41 -116 22 -14 27 -15 56 0 39 20 47 14 26 -17 -35 -53
-123 -42 -152 19 -21 44 -14 77 25 115 23 24 37 29 76 29 29 0 59 -7 80 -20z
m-899 -206 c7 -18 -17 -38 -31 -24 -11 11 -1 40 14 40 6 0 13 -7 17 -16z m886
2 c9 -22 -18 -40 -33 -22 -6 9 -9 20 -5 26 9 15 32 12 38 -4z m-793 -31 c7 -8
10 -25 6 -40 -7 -27 -26 -35 -26 -11 0 22 -19 30 -35 16 -23 -19 -18 -56 11
-79 32 -25 71 -27 122 -5 20 9 48 20 62 25 l25 9 -25 -20 c-42 -33 -86 -50
-133 -50 -87 0 -140 91 -87 148 24 25 62 29 80 7z m740 -5 c31 -31 27 -85 -9
-121 -42 -41 -103 -40 -178 2 -30 17 -52 33 -50 35 2 2 29 -7 61 -21 69 -31
119 -32 146 -5 23 23 26 62 6 79 -11 9 -17 8 -29 -9 -13 -18 -16 -19 -27 -5
-10 12 -10 21 -2 40 14 31 54 33 82 5z m-636 -36 c23 -9 20 -33 -3 -27 -10 3
-22 0 -25 -6 -9 -13 -26 -14 -26 -2 0 9 27 41 35 41 2 0 10 -3 19 -6z m487 -4
c10 -6 19 -17 19 -26 0 -11 -4 -12 -19 -4 -11 5 -27 7 -35 4 -19 -7 -21 7 -4
24 15 15 15 15 39 2z m-295 -65 c14 -22 15 -33 4 -90 -11 -57 -62 -185 -74
-185 -2 0 7 35 21 77 15 50 23 94 21 127 -3 50 -4 51 -38 56 l-35 5 25 18 c34
24 57 21 76 -8z m144 8 l25 -18 -35 -5 -35 -5 2 -65 c1 -36 11 -92 22 -124 12
-33 19 -61 17 -63 -2 -2 -15 20 -29 49 -78 165 -59 296 33 231z m-160 -309 c0
-25 -74 -94 -101 -94 -23 0 -23 1 6 18 17 11 43 35 58 55 31 41 37 44 37 21z
m198 -76 c25 -16 25 -18 6 -18 -27 0 -70 34 -89 70 -24 46 -17 48 21 6 19 -22
47 -48 62 -58z"/>
</g>
</svg>
