<?xml version="1.0" encoding="utf-8"?>
<!-- Generator: Adobe Illustrator 27.5.0, SVG Export Plug-In . SVG Version: 6.00 Build 0)  -->
<svg version="1.1" xmlns="http://www.w3.org/2000/svg" xmlns:xlink="http://www.w3.org/1999/xlink" x="0px" y="0px"
	 viewBox="0 0 500 500" style="enable-background:new 0 0 500 500;" xml:space="preserve">
<g id="Background">
</g>
<g id="Graphic_Elemenrs">
	<g>
		<path style="fill:#EDA33C;" d="M209.539,232.191c-0.024,0.122-0.015,0.122-0.019,0.137
			C209.538,232.288,209.547,232.244,209.539,232.191z"/>
		<path style="fill:#EDA33C;" d="M225.367,228.429c-0.092-0.059-0.146-0.15-0.158-0.278c0,0-0.001,0-0.001,0
			C225.213,228.285,225.273,228.372,225.367,228.429z"/>
		<polygon style="fill:#EDA33C;" points="126.119,219.531 126.12,219.531 126.12,219.531 		"/>
		<path style="fill:#EDA33C;" d="M175.089,231.545c0.069-0.211,0.01-0.146,0.09-0.212c1-0.705,2.091-1.969,2.468-2.794
			c2.936-3.4,5.581-7.845,7.753-11.454c1.451-3.19,2.821-7.072,4.042-10.052c2.78-9.938,8.447-21.483,4.45-34.064
			c-1.158-4.516-1.52-9.439-0.325-13.589c0.805-1.664-0.687-0.236-0.645,0.269c-2.309,0.964-3.717,15.835-2.276,10.792
			c0.304-6.185,3.823,8.35,3.837,9.955c0.636,2.813-1.468,11.855-4.103,6.864c0.013,0.21,0.026,0.419,0.039,0.628l0,0
			c-0.397,1.498-0.823,3.081-1.252,4.066c-0.974,5.495-3.344,11.581-4.613,16.509c1.721-1.574,1.999-5.328,3.818-6.912
			c-1.631,10.647-7.205,20.674-12.943,29.445c-0.31,0.111-0.214,0.247-0.275,0.313c-0.121,0.055-0.09,0.025-0.132,0.032
			c0.042,0.019,0.08,0.02,0.114,0.01c-0.062,0.027-0.123,0.053-0.185,0.08C174.997,231.468,175.043,231.506,175.089,231.545z"/>
		<path style="fill:#EDA33C;" d="M208.298,234.439c0.005-0.021,0.011-0.042,0.012-0.067
			C208.302,234.409,208.299,234.428,208.298,234.439z"/>
		<path style="fill:#EDA33C;" d="M207.371,235.602c-0.121,0.201-0.106,0.233-0.122,0.254
			C207.324,235.8,207.37,235.721,207.371,235.602z"/>
		<path style="fill:#EDA33C;" d="M155.141,193.856c0.173-0.222,0.17-0.47,0.128-0.725h0c1.649-18.02,2.922-5.599,2.827,13.484
			c-0.071-0.013-0.136-0.025-0.194-0.038c1.261,10.616,3.522,46.416,18.814,59.516c-0.794-2.243-6.22-8.498-6.761-12.684
			c5.46,4.546,9.069,15.465,20.415,19.265c-0.168-0.931-0.612-0.419-0.631-0.651l0,0c-1.233-0.751-1.032-0.427-1.247-0.622
			c0,0,0,0,0,0c-15.021-12.868-24.681-31.824-26.678-51.244c0.001,0,0.003,0,0.004,0c-0.359-1.525-0.54-3.063-0.636-4.042
			c-0.008,0.007-0.015,0.015-0.023,0.022c-4.163-14.257,1.779-31.395-6.474-44.167c-1.283-1.318-2.801-1.962-4.853-1.584
			C156.55,175.002,154.372,185.904,155.141,193.856z"/>
		<path style="fill:#EDA33C;" d="M73.017,186.322c0.004,0.001,0.008,0.002,0.013,0.004c-0.096-2.047-0.485-4.533-0.166-6.233
			c2.417,10.484,4.114,21.373,5.551,31.658c-0.889-1.646-1.808-3.199-3.209-4.559c0.711,10.527,4.356,20.689,8.986,29.021
			c3.731,6.798,6.27,9.225,1.852-0.368c-0.135-3.521,7.688,13.065,22.652,21.587c2.065,1.539,4.823,2.892,6.872,3.7
			c0.661,0.046,1.233-0.028,1.423-0.551c-2.92,0.06-5.887-2.983-7.957-3.422c-2.132-1.617-2.282-1.648-2.788-1.915
			c-7.113-6.021-14.102-13.102-18.079-21.399l0,0c-6.83-13.078-9.759-28.217-11.731-42.443c-1.065-9.578-2.815-19.596-9.289-27.113
			c-2.534-2.783-5.212-3.398-9.007-1.917C71.092,162.202,69.085,196.287,73.017,186.322z"/>
		<path style="fill:#EDA33C;" d="M222.568,230.471c0,0,0.001,0.001,0.001,0.001l0.078-0.073
			C222.562,230.473,222.573,230.45,222.568,230.471z"/>
		<path style="fill:#EDA33C;" d="M77.153,305.484c0.111,1.306,0.526,2.295,2.076,2.167c0,0.001,0,0.001-0.001,0.002
			c1.023-0.065,1.808,0.067,2.229,0.281c3.251,0.4,5.662-2.339,7.124-4.276c0.124-0.032,0.294-0.041,0.107-0.222
			c-0.692,0.573-1.26,0.467-1.437,0.806l0,0C84.184,306.691,74.746,299.591,77.153,305.484z"/>
		<path style="fill:#EDA33C;" d="M81.398,269.272c-7.47-10.117-15.819,12.748-9.652,25.444
			C82.814,310.34,88.498,285.804,81.398,269.272z M72.503,279.789c2.84,16.979,12.939,15.323,4.582-12.388
			c4.767,3.277,8.944,26.55,1.383,31.123C80.565,292.569,68.785,300.562,72.503,279.789z"/>
		<path style="fill:#EDA33C;" d="M94.372,177.1c-0.689,7.656-0.93,15.495-0.99,23.748c0.963-3.093,0.734-6.415,1.935-9.16
			c2.257,14.052-3.007,29.794-1.18,42.732c3.78-16.267,3.404-33.286,3.813-49.552c-0.369-1.593-0.272-3.565-0.428-4.725
			c-0.008,0.006-0.015,0.013-0.024,0.02c-1.466-6.641-5.977-24.721,3.361-31.589c-5.555,0.694-10.604,6.847-10.701,12.439
			c0.382-0.346,0.424-0.745,0.537-1.11c0,0,0,0,0,0h0C94.853,151.828,91.905,161.977,94.372,177.1z"/>
		<path style="fill:#EDA33C;" d="M98.849,176.666c3.072,5.977-2.719,43.588,18.542,42.879c-0.671-1.008-1.282-2.058-1.538-2.772
			c-0.001,0.002-0.002,0.003-0.004,0.005c-2.821-5.703-5.955-14.281-4.917-20.228c2.843,8.746,8.874,16.943,15.186,22.98
			c0,0,0,0,0,0l0,0c0,0,0,0,0,0c0-0.001,0.001-0.002,0.001-0.003c0.001,0.001,0.001,0.002,0.002,0.003c-0.001,0-0.002,0-0.003,0
			c0.023,0.536,0.289,0.288,0.366,0.285c-1.416-2.063-1.501-1.931-1.611-2.142c0.001,0.049-0.012,0.092-0.037,0.129
			c-0.068-0.752-0.473-0.858-0.596-1.034c-0.673-1.08-0.415-0.829-0.606-0.959l0,0c-8.581-14.248-15.063-30.551-15.213-47.184
			c-0.297-3.259-0.503-7.174-0.973-10.195c-0.725-2.719-1.021-5.997-2.319-8.074C95.848,144.355,96.857,170.842,98.849,176.666z
			 M124.696,217.941c-0.031,0.023-0.065,0.038-0.106,0.039C124.595,217.977,124.656,217.955,124.696,217.941z M105.007,175.45
			c-1.709,0.645,1.453,5.448,0.973,7.79c-3.859-0.5-7.226-14.983-6.013-21.2c0.049-0.234,0.036-0.528,0.549-0.695
			C101.799,172.248,111.671,173.72,105.007,175.45z"/>
		<path style="fill:#EDA33C;" d="M223.485,226.245c-0.126-0.275-0.117-0.154-0.126-0.275c-0.016-0.002-0.029-0.006-0.043-0.009
			c0.013,0.004,0.028,0.007,0.043,0.009C223.346,226.103,223.401,226.185,223.485,226.245z"/>
		<path style="fill:#EDA33C;" d="M220.564,221.633c-0.001,0-0.002-0.001-0.003-0.001c-0.009,0.068,0.004,0.122,0.032,0.169
			C220.574,221.75,220.563,221.695,220.564,221.633z"/>
		<path style="fill:#EDA33C;" d="M219.884,226.669c0.238,0.353,0.141,0.235,0.239,0.354
			C220.092,226.872,219.961,226.788,219.884,226.669z"/>
		<path style="fill:#EDA33C;" d="M219.514,226.072c0.001,0,0.002,0.001,0.004,0.002c-0.059-0.13-0.174-0.217-0.254-0.332
			C219.348,225.852,219.431,225.962,219.514,226.072C219.514,226.072,219.514,226.072,219.514,226.072z"/>
		<path style="fill:#EDA33C;" d="M221.378,228.867c0.001,0.001,0.002,0.001,0.004,0.002c-0.014-0.017-0.026-0.032-0.039-0.048
			C221.354,228.836,221.366,228.851,221.378,228.867L221.378,228.867z"/>
		<path style="fill:#EDA33C;" d="M222.717,230.614c-0.068-0.152-0.131-0.11-0.147-0.143l-0.002,0.001
			C222.617,230.521,222.667,230.568,222.717,230.614z"/>
		<path style="fill:#EDA33C;" d="M222.091,224.136C222.09,224.136,222.09,224.136,222.091,224.136
			c0.002,0.019,0.006,0.038,0.011,0.055C222.098,224.173,222.093,224.155,222.091,224.136z"/>
		<path style="fill:#EDA33C;" d="M211.452,175.133c-0.085,0.027-0.158,0.075-0.224,0.134c0.069,0.032,0.144,0.066,0.225,0.102
			C211.453,175.291,211.453,175.212,211.452,175.133z"/>
		<path style="fill:#EDA33C;" d="M222.722,225.058c-0.001,0-0.001,0-0.001,0c0.001,0.034,0.007,0.065,0.016,0.093
			C222.73,225.122,222.725,225.091,222.722,225.058z"/>
		<path style="fill:#EDA33C;" d="M218.401,224.583c0.187,0.249,0.12,0.166,0.188,0.25
			C218.544,224.736,218.468,224.663,218.401,224.583z"/>
		<path style="fill:#EDA33C;" d="M221.639,229.232c0.005-0.078-0.014-0.139-0.048-0.19c0.029,0.054,0.046,0.116,0.046,0.189
			c0,0,0,0,0,0C221.638,229.232,221.638,229.232,221.639,229.232z"/>
		<path style="fill:#EDA33C;" d="M311.793,271.113c-1.495,1.323-1.997,0.751-2.234,1.495c0.005,0,0.011,0,0.016-0.001
			c-0.003,0.006-0.006,0.01-0.009,0.016c9.275-2.577,14.229-11.868,20.03-19.069c1.947,0.066-4.373,9.631-6.076,12.1
			c-0.005-0.001-0.01-0.003-0.014-0.004c0.046,0.122,0.004,0.093,0.024,0.132c-0.237-0.029-0.301,0.102-0.29,0.301
			c0.204,0.016,0.325-0.059,0.301-0.291c0.302-0.02,0.305-0.126,0.322-0.234c10.035-7.847,16.945-33.567,18.503-63.979
			c-0.075,0.064-0.158,0.122-0.248,0.175c-0.294-3.239,0.439-29.613,2.548-10.477c0,0,0,0,0,0c0.005,0.205,0.01,0.41,0.016,0.615h0
			c-0.008,0.57-0.011,0.72-0.013,0.894c1.007-7.62-0.857-17.086,5.481-22.672c-13.055-0.541-7.523,31.878-11.024,45.047
			c-0.015-0.007-0.028-0.015-0.042-0.023c-0.886,5.444-1.397,10.87-2.813,15.962C332.462,246.354,323.843,261.161,311.793,271.113z"
			/>
		<path style="fill:#EDA33C;" d="M192.238,207.133c-1.299,7.615-4.958,15.585-3.157,23.525c2.47,6.337,6.103,12.73,14.603,8.166
			c2.698-1.918,4.392-3.893,5.642-6.255c0,0,0,0,0,0c0.414-0.995,0.305-0.892,0.616-1.243l0,0c3-7.504-1.327-4.656-1.223-19.346
			c1.146-3.216,3.02,12.212,13.899,21.364c0.423-1.875-0.234-3.07-0.981-4.113c0,0,0,0,0,0c0,0,0,0,0,0
			c-0.125-0.175-0.253-0.346-0.379-0.515c-0.67-0.823-0.758-0.955-0.781-1.105v0c-0.385-0.418-0.564-0.829-0.593-0.942
			c-2.024-2.61-3.405-5.13-4.375-7.752h0c-0.773-1.628-1.252-2.772-1.581-3.938c-3.921-11.264-5.321-23.628-4.636-35.672v0.003
			c1.282-8.163,0.512-36.412-13.365-22.23C191.607,171.417,203.777,176.372,192.238,207.133z M201.009,169.215L201.009,169.215
			c0.351,3.974,10.677,9.581,2.504,9.961c-4.295,23.779-4.624-4.031-6.104-13.163C197.472,162.742,200.806,168.167,201.009,169.215z
			"/>
		<path style="fill:#EDA33C;" d="M216.989,221.995c0.007,0.081,0.002,0.052,0.007,0.081
			C216.998,222.047,216.996,222.02,216.989,221.995z"/>
		<polygon style="fill:#EDA33C;" points="310.811,271.372 310.811,271.372 310.811,271.372 		"/>
		<path style="fill:#EDA33C;" d="M307.509,271.086c-0.001-0.002-0.003-0.004-0.005-0.006c-0.003,0.003-0.006,0.006-0.009,0.01
			C307.5,271.089,307.504,271.087,307.509,271.086z"/>
		<path style="fill:#EDA33C;" d="M420.979,307.63c0.027,0.003,0.018,0.002,0.027,0.003c-0.002-0.006-0.004-0.012-0.005-0.018
			c2.576,0.267,1.89-3.339,2.416-4.737c-4.174,0.712-7.642,3.081-11.705,0.829c0.073,0.088,0.069,0.173-0.011,0.254
			C414.422,307.362,415.978,308.318,420.979,307.63z"/>
		<path style="fill:#EDA33C;" d="M360.283,265.061c0.032,0.001,0.065-0.049,0.103-0.082
			C360.084,264.669,360.161,265.026,360.283,265.061z"/>
		<path style="fill:#EDA33C;" d="M349.871,273.496C349.871,273.497,349.871,273.497,349.871,273.496
			c0.033-0.009,0.065-0.021,0.094-0.034C349.937,273.476,349.906,273.488,349.871,273.496z"/>
		<path style="fill:#EDA33C;" d="M360.159,264.837c0.004-0.056,0.132-0.103-0.021-0.043
			C360.145,264.808,360.152,264.822,360.159,264.837z"/>
		<path style="fill:#EDA33C;" d="M385.937,259.904L385.937,259.904c-5.46,1.519-0.987,2.112,4.644-1.904
			c1.142-0.501,1.758-1.304,1.857-1.235h0c6.829-0.905,28.781-33.518,19.196-15.268c-1.12,0.887,0.265,1.059,0.397,0.403
			c3.708-3.602,5.011-8.372,7.111-12.125v0c0.407-1.159,0.655-1.818,0.937-2.163v0c2.6-6.37,4.268-13.728,4.904-20.471
			c-0.389,0.124-0.527,0.318-0.583,0.583c0,0,0,0,0,0c-1.417,1.492-2.029,3.016-2.737,4.342c1.463-10.725,3.173-21.804,5.643-32.007
			c1.484,26.529,1.698-18.343,14.507-17.708c-10.547-4.738-17.053,14.497-18.238,30.103c-0.014-0.003-0.028-0.006-0.043-0.01
			c-0.098,1.956-0.446,4.463-0.998,6.012c-1.065,8.239-3.533,16.761-5.891,24.624c-1.159,3.447-2.707,7.491-4.568,10.39
			C406.529,244.677,396.806,254.444,385.937,259.904z"/>
		<path style="fill:#EDA33C;" d="M343.594,289.411c-0.01,12.855,12.224,29.87,23.673,13.016c4.97-8.245,5.481-22.299-1.911-31.293
			C358.421,262.756,342.451,265.311,343.594,289.411z M349.595,273.84L349.595,273.84c0.748-1.107,1.596-1.978,2.468-2.202
			c0.882,0.065,0.479,0.885,0.313,0.975c-1.529,1.871-1.199,1.562-1.845,2.486v0c-4,9.196,9.895,40.737,17.565,10.532
			c3.112,6.829-3.878,22.949-13.825,19.319c-0.66-0.61,1.433,2.103,1.672,2.404c-5.948-1.485-8.978-11.413-9.148-18.116
			c0,0.001,0,0.003,0,0.004C345.907,283.92,346.515,277.624,349.595,273.84z"/>
		<path style="fill:#EDA33C;" d="M336.953,307.766c0.02,1.76,0.481,15.075,4.816,11.197c8.116-11.821,3.785-11.584,0.219-26.523
			C339.317,297.51,337.212,302.169,336.953,307.766z"/>
		<path style="fill:#EDA33C;" d="M310.812,271.371c0.013-0.001,0.027-0.002,0.04-0.003c-0.007-0.008-0.013-0.016-0.02-0.024
			C310.812,271.371,310.817,271.363,310.812,271.371z"/>
		<path style="fill:#EDA33C;" d="M324.138,230.708c0.19,0.387,0.442,0.693,0.947,0.821c-5.836-8.964-12.093-19.218-13.144-29.955
			c1.268,2.15,2.259,4.489,3.125,6.529c0.26-3.417-3.618-10.897-3.967-15.528c-0.6-1.64-1.211-3.475-1.234-4.709
			c-8.438,5.812-1.385-25.689-0.286-17.074c0,0,0,0,0,0c0.009,0.304,0.019,0.608,0.028,0.912h0c0.006,0.405,0.013,0.809,0.019,1.214
			c0.232,0.024,0.179-0.009,0.202,0.001c0.03-1.527,0.023-1.701,0.028-2.13l0,0c1.576-1.824-3.763-15.234-3.42-11.782
			c1.356,4.579,0.93,9.503-0.158,13.71c-4.545,15.404,3.419,30.757,8.586,44.683C317.679,222.062,320.748,226.796,324.138,230.708z
			 M309.355,169.302c-0.02-0.022-0.04-0.044-0.06-0.066C309.321,169.253,309.34,169.276,309.355,169.302z"/>
		<path style="fill:#EDA33C;" d="M427.555,296.144c4.169-7.411,3.715-16.996,0.373-24.421
			C414.63,248.073,408.922,315.773,427.555,296.144z M421.345,295.954c0.072,0.919,0.491,1.643,0.222,2.572
			c-5.738-1.879-5.271-25.872,1.455-30.85c-0.912,3.528-5.424,17.103-2.144,22.531c5.575,2.208,5.057-7.551,6.824-10.383
			C429.166,285.366,429.092,296.205,421.345,295.954z"/>
		<path style="fill:#EDA33C;" d="M433.559,174.533c-4.849,16.078-3.089,33.835-8.481,49.65
			c-3.928,19.536-39.203,79.924-60.332,5.932c0.069,0.054,0.133,0.111,0.194,0.169c-2.799-7.572-4.865-15.274-6.429-23.16
			c-1.992-11.62,7.807-25.107-2.011-34.69c-20.869-13.316,7.242,68.756-35.407,103.049v0c-24.227,24.298-42.738-22.98-49.434-43.504
			c-3.046-7.402-5.058-15.757-6.756-23.389c0.062-0.006,0.122-0.015,0.175-0.029c-1.076-1.841-1.543-4.436-1.768-6.131
			c-0.005,0.007-0.01,0.014-0.016,0.022c-3.168-9.459,5.481-18.978-3.2-30.121c-5.188-5.064-11.405-6.659-18.363-1.673
			c-10.81,9.832-2.02,18.861-5.058,32.43c-0.005-0.004-0.01-0.008-0.016-0.012c-0.257,2.016-1.029,4.399-1.619,5.931
			c-1.593,7.94-3.862,16.168-6.752,23.527c-0.01-0.011-0.02-0.021-0.03-0.032c-3.089,9.522-13.735,41.765-31.629,49.506
			c0.048-0.065,0.1-0.125,0.152-0.184c-6.219,2.791-13.183-2.577-18.831-7.147c-14.087-11.058-18.943-28.416-22.84-45.273
			c-4.458-8.249,2.582-51.184-7.189-58.293c-5.971-1.953-10.303,10.553-8.388,17.617c3.79,11.423,1.846,23.129-1.919,33.916
			c-1.115,3.991-10.087,36.269-21.176,41.992c-15.458,5.696-30.441-12.234-36.263-26.789c-12.611-21.566-5.622-48.182-16.839-69.878
			c-8.706-10.584-13.444,4.03-10.842,13.501c2.241,9.322,9.537,15.751,11.89,24.649c-0.011,0.004-0.022,0.011-0.033,0.015
			c0.962,2.148,1.636,4.977,2.175,6.911c0.009-0.006,0.016-0.013,0.025-0.02c4.414,15.961,6.97,31.633,8.648,48.215
			c-0.335,5.116,3.666,0.14,7.785,6.151c11.628,24.236,11.367,2.438,2.796-12.257c-7.533-16.838,9.912,18.749,31.61,11.808
			c-10.073,9.297-10.194,24.761-7.716,37.647c2.984,8.601,21.988,16.116,22.322,2.721c-9.175-9.976-8.74-31.715,4.933-42.397
			c5.033-4.634,13.165-4.531,15.863-11.28c-0.004-1.207-0.007-2.038-0.009-2.573v0.001c-1.437-24.641,5.522,11.982,20.112,25.959
			c6.028,11.928,41.928,8.151,17.283,12.092l0,0c-12.42,4.188-3.984,40.293,16.232,39.423c8.491,0.354,19.806-0.648,22.654-10.073
			c2.955-6.796-0.97-13.388-0.971-20.419c-0.086-7.981,1.511-15.576,0-23.279c-1.238-6.809-4.855-9.155-11.004-3.976c0,0,0,0,0,0
			c-2.729,2.657-4.643,6.13-7.816,7.822c6.06-12.11,14.73-27.386,20.949-40.075c-3.522,13.445,9.396,19.684,21.301,20.093v0
			c10.052-2.128,22.08-6.584,18.181-20.259c5.373,8.152,7.61,16.401,12.756,24.833c1.271,2.952,15.146,23.154,4.265,11.839
			c-17.469-20.803-15.689,8.778-14.684,22.03c0.5,8.272-5.336,14.889,0.501,24.589c3.322,6.849,24.265,10.166,31.405,3.664
			c8.612-5.247,18.614-29.828,5.915-36.231l0,0c-3.244-0.364-6.138-0.407-9.027-2.168c6.118-1.605,11.684-0.445,17.737-3.134
			c21.164-8.24,30.742-64.382,28.9-29.478c4.259,8.24,17.428,4.756,24.704,23.207c3.392,9.286,3.068,21.788-3.868,29.535
			c0.015,0.067,0.008,0.044,0.015,0.067c-0.178,0.411-0.27,0.493-0.385,0.582l0,0c-0.56,11.529,25.163,9.693,23.815-14.311
			c-0.196-9.103-0.525-18.987-8.844-25.74c15.359,0.836,20.216-3.594,33.301-17.322c-1.616,7.231-6.435,7.928-8.498,27.111
			c5.338,2.636,6.479-6.175,8.893-9.208c15.329-15.316,0.49,18.339,16.762-54.576c0.012,0.007,0.021,0.015,0.032,0.022
			c0.606-2.542,1.558-5.631,2.407-7.842c0.022-0.003,0.042-0.008,0.063-0.013c-0.017-0.007-0.035-0.014-0.053-0.023
			c2.215-7.832,8.165-13.946,10.862-21.275C452.279,171.201,442.441,152.094,433.559,174.533z M59.651,193.551L59.651,193.551
			c-1.622-0.196-8.256-17.24-5.552-18.293c0.792,1.794,9.214,23.428,12.591,14.781c0.991-1.746,1.471,1.159,1.409,1.61
			c-0.642,11.084,5.044,26.316,7.462,42.416c0.312,0.805,0.299,1.451,0.356,1.903C69.353,225.323,69.963,206.873,59.651,193.551z
			 M152.382,239.342c-5.468-28.689-25.872,22.203-21.655,7.392c6.426-18.062,16.453-37.445,10.302-57.068
			c-0.345-3.49-0.91-7.965,0.856-10.919c1.238,7.827,0.555,18.61,9.546,21.171c-1.787,2.271-1.357,6.873-1.005,9.997
			C150.396,218.861,154.758,232.445,152.382,239.342z M267.978,232.178L267.978,232.178c-0.573-0.536-0.608-0.825-0.623-0.866l0,0
			c-6.105-19.158-26.278-22.858-33.539-1.763c-2.58,4.936-2.296,1.757-1.884,0.12c3.167-20.148,6.78-13.831,7.569-45.742
			c2.42-1.075-1.249,12.361,9.887,15.838c7.699-0.099,9.879-9.535,10.578-15.799c3.111,0.612-0.207,11.242,1.423,18.461
			c1.65,8.681,5.354,17.604,6.624,25.669C268.193,229.466,268.784,231.939,267.978,232.178z M347.455,239.737
			c-2.988-2.322,5.641-33.01,1.057-39.594c6.406-3.384,7.451-2.535,9.638-21.07c2.247,0.792,1.008,13.134-0.432,16.028
			c-2.7,14.931,3.606,29.944,8.599,43.659c1.242,3.71,3.533,7.381,3.771,10.974C363.621,242.078,353.001,216.837,347.455,239.737z
			 M434.554,204.298c-4.507,10.226-4.922,21.905-10.18,31.589c1.829-15.638,7.696-30.112,7.839-45.695
			c0.797-2.05,1.659,1.016,2.308,1.711c3.229,2.531,9.677-11.886,11.49-16.696C448.54,185.146,437.88,195.094,434.554,204.298z"/>
		<path style="fill:#EDA33C;" d="M290.859,211.132c3.24,8.518-8.498,18.018,6.023,27.88c0.057,0.083,0.038,0.056,0.057,0.083
			c0.005-0.018,0.013-0.038,0.019-0.057c7.395,4.242,20.574-1.565,10.728-32.502c-0.478-1.105-0.641-2.147-0.621-2.83
			c-8.133-16.701-1.842-24.535-2.329-44.475c0.274-5.654-14.921-14.203-14.404,12.468c0.17,1.028,0.022,1.689,0.04,2.228
			c0.011-0.004,0.023-0.007,0.034-0.011c1.741,18.95-0.3,39.869-11.913,55.439c-0.352,0.525-0.586,0.954-0.89,0.984
			c0,0.054,0,0.036,0,0.054c-0.719,1.231-0.046,2.097,0.065,3.06C284.12,227.164,287.929,219.437,290.859,211.132z M295.99,174.406
			c1.453-0.551,4.564-10.635,6.647-9.201c-0.631,5.19-2.095,39.751-5.843,13.995l0,0c-0.707-0.088-1.434,0.098-2.127-0.23
			C291.305,176.85,294.629,176.306,295.99,174.406z"/>
		<path style="fill:#EDA33C;" d="M409.779,230.034c-0.033-0.007-0.064-0.016-0.094-0.027c0.004,0.036,0.007,0.071,0.011,0.107
			C409.725,230.087,409.751,230.061,409.779,230.034z"/>
		<path style="fill:#EDA33C;" d="M402.446,180.964c-0.015-0.011-0.03-0.023-0.044-0.034c-0.005,0.345,0.064,0.371-0.052,0.45
			c-0.016,17.849-0.162,35.78,3.633,53.238c2.873-2.747-2.622-13.87-1.34-42.921c1.287,2.208,1.345,8.187,2.05,8.257
			c-0.217-5.6-0.484-11.468,0.124-16.741c-1.576-1.68-1.405-4.187-0.99-6.736c1.77-3.481-0.81-28.95,4.246-14.951
			c0.191-1.191-0.263-2.437-0.519-2.873c-1.298-5.001-4.428-8.281-9.311-9.914c-0.31-0.298-0.646-0.445-1.062-0.19
			C407.356,154.259,405.325,169.249,402.446,180.964z"/>
		<path style="fill:#EDA33C;" d="M225.497,228.485c-0.029-0.008-0.054-0.018-0.079-0.03
			C225.443,228.467,225.469,228.477,225.497,228.485C225.497,228.485,225.497,228.485,225.497,228.485z"/>
		<path style="fill:#EDA33C;" d="M350.15,273.164c-0.002,0.032-0.006,0.061-0.013,0.089
			C350.155,273.237,350.155,273.234,350.15,273.164z"/>
		<path style="fill:#EDA33C;" d="M140.132,267.313c-11.669,4.428-15.036,27.23-5.228,37.919
			c11.514,12.105,25.549-4.239,20.684-27.297C153.919,271.267,148.331,264.774,140.132,267.313z M153.492,287.224
			c-0.436,7.222-1.661,16.088-8.412,19.885c-2.387,1.365,1.664-2.737,1.01-2.475c-6.443,3.799-15.896-5.379-14.674-17.725
			c0.043-0.452,0.069-0.915,0.588-1.404c5.764,26.21,19.918,6.365,17.977-9.375c-0.301-0.419-0.265-0.561-0.271-0.73
			c-5.092-6.796,0.483-2.479,0.019-2.489c2.419,2.469,3.487,6.111,3.746,8.874v0c0.391,1.814,0.307,3.63,0.011,5.446
			C153.492,287.224,153.49,287.227,153.492,287.224z M147.779,272.603c0.005,0.022,0.007,0.044,0.006,0.069c0,0,0,0,0,0
			C147.786,272.647,147.782,272.625,147.779,272.603z"/>
		<path style="fill:#EDA33C;" d="M323.113,266.315c0.116-0.232,0.057-0.139,0.128-0.232c-0.014-0.001-0.009,0-0.014-0.001
			C323.125,266.327,322.908,266.1,323.113,266.315z"/>
		<path style="fill:#EDA33C;" d="M389.267,196.588c0.908,3.639-1.453,13.453-5.159,20.449c-0.009-0.009-0.019-0.018-0.028-0.028
			c-0.286,0.983-0.87,1.635-1.206,2.228c11.022,2.5,15.74-13.857,16.868-22.542c-0.663-3.942,0.279-9.198,0.378-13.148
			c0.017,0.009,0.031,0.018,0.047,0.027c0.015-2.137,0.306-4.803,1.076-6.372c-0.044,0-0.089,0.002-0.136,0.004
			c1.206-7.075,2.375-13.435,1.103-20.443c-2.31-9.385-7.807-10.985-9.374,0.652c-0.014-0.019-0.029-0.038-0.042-0.057
			c-2.224,12.694,2.001,29.922-18.269,61.246c-0.465,0.789-0.415,0.368-0.484,0.608c-0.334,0.163-0.502,0.405-0.44,0.828
			C380.427,213.399,386.096,205.336,389.267,196.588z M399.802,161.305c4.399,5.488-9.479,35.884-4.046,14.285
			c-0.706-0.18-1.394-0.159-1.982-0.524C390.39,171.43,395.89,175.998,399.802,161.305z"/>
		<path style="fill:#EDA33C;" d="M411.971,311.771c0.009,0.014,0.019,0.028,0.028,0.043c-85.674,30.26-224.524,34.26-323.073,0.266
			c0.005-0.011,0.01-0.021,0.015-0.031c-5.676-1.638-18.246-5.831-16.797,4.261c-0.009,0.039-0.006,0.026-0.009,0.039
			c10.493,13.246,45.423,18.122,76.483,24.815c68.499,12.437,140.853,16.458,245.172-9.15c4.702-0.444,45.842-12.408,31.295-21.771
			c0.006-0.011,0.011-0.023,0.017-0.033c-0.082-0.012-0.054-0.008-0.082-0.012C420.569,308.565,415.962,311.014,411.971,311.771z
			 M79.553,318.529c-1.934-1.211-5.699-4.418-1.636-4.617c30.61,10.337,61.323,17.632,92.005,26.371
			c0.253,0.075,0.456,0.181,0.689,0.56C139.573,336.63,107.535,333.734,79.553,318.529z M195.036,343.302
			c36.412,1.064,72.816,1.038,109.066,0.026c0.233-0.013,0.489-0.121,0.733,0.205C269.11,351.154,230.639,351.636,195.036,343.302z
			 M395.417,328.813c-21.511,6.4-44.083,9.541-66.162,11.991c29.135-9.292,59.387-15.131,88.106-25.481
			C429.74,310.446,425.764,320.222,395.417,328.813z"/>
		<path style="fill:#EDA33C;" d="M158.237,292.55c-1.476,9.851-8.154,11.691-1.605,24.248
			C162.374,327.235,166.838,306.362,158.237,292.55z"/>
		<path style="fill:#EDA33C;" d="M351.251,273.932c0.005-0.134,0.057-0.23,0.155-0.29c-0.102,0.056-0.167,0.143-0.157,0.29
			C351.25,273.932,351.25,273.932,351.251,273.932z"/>
		<path style="fill:#EDA33C;" d="M400.376,214.9c0.009,0.003,0.018,0.005,0.026,0.008c-0.001-0.01-0.002-0.019-0.003-0.028
			C400.391,214.886,400.385,214.893,400.376,214.9z"/>
		<path style="fill:#EDA33C;" d="M351.284,272.174c-0.014,0.009-0.031,0.015-0.047,0.022
			C351.259,272.192,351.257,272.193,351.284,272.174z"/>
		<path style="fill:#EDA33C;" d="M347.145,257.682c-0.005,0.01-0.009,0.021-0.015,0.032c0.016,0.009,0.03,0.019,0.046,0.028
			C347.165,257.722,347.155,257.702,347.145,257.682z"/>
		<polygon style="fill:#EDA33C;" points="347.13,257.717 347.13,257.713 347.128,257.712 		"/>
		<path style="fill:#EDA33C;" d="M267.71,307.43c10.718-27.746-25.056-49.29-36.317-17.023
			C224.744,315.406,254.761,334.398,267.71,307.43z M248.719,316.466c-1.282,0.22-4.682-1.274-4.112-0.278
			c5.096,4.609-10.731,0.975-11.747-13.65c-5.018-19.187,14.681-26.835,8.137-21.096c-7.965,8.122-1.431,23.572,10.971,21.57
			c10.799-1.557,14.576-16.329,5.434-23.187c14.171,2.062,13.497,31.722,0.735,37.206c-3.807,1.645-4.226,1.567-2.62-1.277
			C253.134,316.37,251.096,316.644,248.719,316.466z"/>
		<g>
			<path d="M124.59,217.979c0.041,0,0.076-0.016,0.106-0.039C124.656,217.955,124.595,217.977,124.59,217.979z"/>
			<polygon points="126.12,219.528 126.119,219.531 126.12,219.531 126.119,219.531 126.12,219.531 126.12,219.531 126.122,219.531 
							"/>
			<path d="M309.295,169.236c0.02,0.022,0.04,0.044,0.06,0.066C309.34,169.276,309.321,169.253,309.295,169.236z"/>
			<path d="M423.976,174.803c-2.727,6.37-1.915,12.84-2.605,19.612c-1.557,10.636-4.531,20.696-8.951,30.433
				c-10.168-50.549,7.545-60.173-3.769-73.893c-22.24-20.856-18.703,16.379-20.501,24.027
				c-2.902,18.324-10.203,36.341-22.968,50.007c-10.959-31.534,3.403-40.453-5.682-52.974c-9.145-11.319-21.068-0.828-20.978,10.562
				c-0.809,16.562,0.518,32.494-5.419,48.414c-13.086-15.505-14.564-25.651-18.208-34.841l0,0
				c-6.483-17.016,0.018-24.162-3.79-34.434c-5.059-15.114-19.432-14.776-22.36-5.648c-3.021,9.028,0.251,17.188-0.336,26.317
				c0.261,21.507-7.637,41.152-15.261,47.152c-2.813-7.602-4.033-16.004-7.008-23.735c-1.833-7.856,1.232-16.283-0.005-24.497
				c-3.087-19.878-20.216-17.243-25.265-13.367c-12.944,11.32-3.899,26.708-7.084,38.455l0,0
				c-8.193,23.982-4.633,26.066-9.871,20.269v0c-0.047-0.128-0.096-0.179-0.935-1.24c0.002-0.143-0.925-1.378-2.188-3.391
				c0,0,0,0,0,0c-1.202-2.274-2.174-4.869-3.407-7.78v0c-2.5-6.383-4.478-12.91-5.261-20.657v0c-0.015-1.27,0.09-3.152-0.312-4.97
				v0.001c-0.477-7.552,0.279-15.415,0.904-23.319c0.462-22.064-18.847-18.319-23.343-4.31c-3.308,7.233-0.518,14.805-1.144,22.516
				c-3.066,18.374-11.115,36.109-21.331,47.406c-8.532-25.576-2.412-45.955-7.157-56.353c-7.045-13.909-22.151-6.03-22.318,6.908
				c-0.863,7.755,3.041,14.911,2.006,22.811c-4.318,28.203-4.628,20.042-8.834,15.765c-28.242-38.384-14.583-68.943-24.905-74.146
				c-7.956-4.429-16.726,6.349-17.675,12.073c-1.889,7.914,1.455,15.52,2.335,23.464c1.453,14.719,0.187,29.053-2.432,43.611
				c-4.769-9.033-7.099-19.691-9.228-29.856l0,0c-1.23-59.365-43.927-35.201-24.384-2.121c2.572,3.827,4.944,7.939,6.759,12.24
				c7.853,18.258,10.505,49.685,11.251,57.703c0.323,4.381-4.842,6.332-5.197,11.323c-5.515,28.339,8.147,21.674,8.037,33.62v0
				c-1.017,0.139-2.546,0.558-3.693,1.546c-29.454,29.528,174.271,49.057,186.322,45.361c31.849-1.457,62.83-4.354,94.145-10.222
				c29.401-6.102,54.287-11.073,66.014-16.705c22.394-10.932,12.099-19.308,6.917-20.004c0.999-8.604,3.908-6.77,6.293-10.792
				c10.16-23.708-5.77-29.871-3.198-35.748c5.52-52.542,10.828-56.188,19.656-71.548c2.7-5.302,3.76-10.757,2.924-16.65
				C445.746,150.582,429.577,157.432,423.976,174.803z M409.779,230.034c-0.027,0.027-0.054,0.053-0.083,0.08
				c-0.004-0.036-0.007-0.071-0.011-0.107C409.714,230.018,409.745,230.027,409.779,230.034z M412.074,233.47
				c1.862-2.899,3.409-6.943,4.568-10.39c2.358-7.864,4.826-16.385,5.891-24.624c0.552-1.549,0.901-4.056,0.998-6.012
				c0.014,0.004,0.029,0.007,0.043,0.01c1.185-15.606,7.691-34.841,18.238-30.103c-12.809-0.636-13.022,44.237-14.507,17.708
				c-2.471,10.203-4.18,21.283-5.643,32.007c0.709-1.326,1.32-2.85,2.737-4.342c0,0,0,0,0,0c0.056-0.265,0.194-0.459,0.583-0.583
				c-0.636,6.743-2.303,14.101-4.904,20.471v0c-0.282,0.346-0.531,1.004-0.937,2.163v0c-2.1,3.753-3.403,8.523-7.111,12.125
				c-0.132,0.656-1.516,0.483-0.397-0.403c9.585-18.25-12.366,14.363-19.196,15.268h0c-0.099-0.069-0.715,0.734-1.857,1.235
				c-5.631,4.016-10.103,3.423-4.644,1.904l0,0C396.806,254.444,406.529,244.677,412.074,233.47z M400.376,214.9
				c0.008-0.007,0.015-0.014,0.023-0.02c0.001,0.01,0.002,0.019,0.003,0.028C400.394,214.905,400.385,214.902,400.376,214.9z
				 M400.241,148.739c4.883,1.633,8.013,4.913,9.311,9.914c0.256,0.435,0.709,1.682,0.519,2.873
				c-5.056-13.998-2.475,11.471-4.246,14.951c-0.414,2.549-0.585,5.056,0.99,6.736c-0.608,5.273-0.341,11.141-0.124,16.741
				c-0.704-0.071-0.762-6.049-2.05-8.257c-1.282,29.051,4.213,40.174,1.34,42.921c-3.795-17.458-3.648-35.389-3.633-53.238
				c0.116-0.079,0.047-0.105,0.052-0.45c0.014,0.012,0.029,0.023,0.044,0.034c2.88-11.714,4.911-26.704-3.266-32.415
				C399.595,148.294,399.931,148.441,400.241,148.739z M374.041,219.215c0.069-0.24,0.019,0.181,0.484-0.608
				c20.27-31.325,16.045-48.553,18.269-61.246c0.014,0.019,0.028,0.038,0.042,0.057c1.567-11.637,7.064-10.037,9.374-0.652
				c1.271,7.008,0.103,13.368-1.103,20.443c0.047-0.003,0.092-0.004,0.136-0.004c-0.77,1.569-1.061,4.235-1.076,6.372
				c-0.016-0.009-0.03-0.019-0.047-0.027c-0.099,3.95-1.041,9.206-0.378,13.148c-1.128,8.686-5.845,25.042-16.868,22.542
				c0.336-0.594,0.92-1.245,1.206-2.228c0.009,0.009,0.019,0.018,0.028,0.028c3.706-6.997,6.067-16.811,5.159-20.449
				c-3.171,8.748-8.84,16.811-15.666,23.455C373.539,219.62,373.707,219.378,374.041,219.215z M336.272,231.099
				c1.416-5.091,1.927-10.517,2.813-15.962c0.014,0.008,0.027,0.016,0.042,0.023c3.501-13.169-2.031-45.588,11.024-45.047
				c-6.338,5.585-4.474,15.052-5.481,22.672c0.003-0.174,0.005-0.324,0.013-0.894h0c-0.005-0.205-0.01-0.41-0.016-0.615c0,0,0,0,0,0
				c-2.109-19.136-2.842,7.238-2.548,10.477c0.089-0.054,0.173-0.112,0.248-0.175c-1.558,30.412-8.468,56.132-18.503,63.979
				c-0.017,0.108-0.02,0.214-0.322,0.234c0.024,0.232-0.097,0.307-0.301,0.291c-0.071,0.093-0.013,0-0.128,0.232
				c-0.205-0.215,0.012,0.012,0.114-0.233c0.005,0.001,0,0,0.014,0.001c-0.01-0.199,0.053-0.33,0.29-0.301
				c-0.02-0.039,0.022-0.01-0.024-0.132c0.004,0.001,0.009,0.003,0.014,0.004c1.703-2.469,8.023-12.033,6.076-12.1
				c-5.801,7.2-10.756,16.492-20.03,19.069c0.003-0.006,0.006-0.01,0.009-0.016c-0.005,0-0.011,0-0.016,0.001
				c0.237-0.744,0.739-0.172,2.234-1.495C323.843,261.161,332.462,246.354,336.272,231.099z M310.811,271.372
				C310.811,271.372,310.811,271.372,310.811,271.372L310.811,271.372L310.811,271.372z M310.812,271.371
				c0.005-0.008,0,0,0.021-0.026c0.006,0.008,0.013,0.016,0.02,0.024C310.839,271.37,310.825,271.371,310.812,271.371z
				 M306.276,172.715c1.088-4.207,1.514-9.131,0.158-13.71c-0.343-3.452,4.996,9.958,3.42,11.782l0,0
				c-0.004,0.429,0.002,0.603-0.028,2.13c-0.024-0.01,0.029,0.024-0.202-0.001c-0.006-0.405-0.012-0.809-0.019-1.214h0
				c-0.009-0.304-0.018-0.608-0.028-0.912c0,0,0,0,0,0c-1.099-8.615-8.152,22.886,0.286,17.074c0.023,1.234,0.634,3.069,1.234,4.709
				c0.349,4.631,4.227,12.111,3.967,15.528c-0.866-2.04-1.857-4.379-3.125-6.529c1.051,10.737,7.308,20.991,13.144,29.955
				c-0.505-0.128-0.757-0.433-0.947-0.821c-3.389-3.912-6.459-8.646-9.275-13.31C309.696,203.473,301.731,188.119,306.276,172.715z
				 M277.604,230.394c0-0.018,0,0,0-0.054c0.303-0.03,0.537-0.459,0.89-0.984c11.613-15.569,13.654-36.489,11.913-55.439
				c-0.012,0.003-0.023,0.007-0.034,0.011c-0.018-0.539,0.13-1.2-0.04-2.228c-0.518-26.671,14.678-18.122,14.404-12.468
				c0.486,19.939-5.805,27.773,2.329,44.475c-0.02,0.683,0.143,1.725,0.621,2.83c9.846,30.937-3.333,36.744-10.728,32.502
				c-0.006,0.019-0.014,0.039-0.019,0.057c-0.019-0.028,0,0-0.057-0.083c-14.521-9.862-2.782-19.363-6.023-27.88
				c-2.93,8.305-6.739,16.032-13.189,22.322C277.558,232.491,276.885,231.625,277.604,230.394z M307.509,271.086
				c-0.005,0.001-0.009,0.002-0.014,0.003c0.003-0.003,0.006-0.006,0.009-0.01C307.506,271.082,307.508,271.084,307.509,271.086z
				 M225.497,228.485C225.497,228.485,225.497,228.485,225.497,228.485c-0.028-0.008-0.054-0.018-0.079-0.03
				C225.442,228.467,225.468,228.477,225.497,228.485z M225.209,228.151c0.012,0.127,0.066,0.219,0.158,0.278
				c-0.094-0.057-0.155-0.144-0.159-0.278C225.209,228.151,225.209,228.151,225.209,228.151z M223.359,225.97
				c0.009,0.121,0,0,0.126,0.275C223.401,226.185,223.346,226.103,223.359,225.97c-0.015-0.003-0.03-0.005-0.043-0.009
				C223.33,225.964,223.343,225.968,223.359,225.97z M222.722,225.058c0.002,0.033,0.007,0.064,0.015,0.093
				c-0.01-0.028-0.015-0.059-0.016-0.093C222.721,225.057,222.722,225.057,222.722,225.058z M222.568,230.471
				c0.005-0.021-0.006,0.002,0.079-0.072l-0.078,0.073c0.016,0.033,0.079-0.009,0.147,0.143c-0.05-0.046-0.1-0.093-0.149-0.142
				l0.002-0.001C222.569,230.471,222.568,230.471,222.568,230.471z M222.091,224.136c0.002,0.02,0.007,0.037,0.011,0.055
				C222.096,224.173,222.093,224.155,222.091,224.136C222.09,224.136,222.09,224.136,222.091,224.136z M221.382,228.869
				c-0.001-0.001-0.002-0.002-0.004-0.002l0,0c-0.012-0.015-0.024-0.031-0.036-0.046
				C221.356,228.837,221.368,228.852,221.382,228.869z M220.564,221.633c-0.002,0.062,0.009,0.118,0.029,0.168
				c-0.028-0.047-0.041-0.102-0.032-0.169C220.563,221.632,220.564,221.633,220.564,221.633z M220.123,227.023
				c-0.098-0.118-0.001,0-0.239-0.354C219.961,226.788,220.092,226.872,220.123,227.023z M219.518,226.073
				c-0.001-0.001-0.002-0.001-0.004-0.002c0,0,0,0,0,0c-0.083-0.11-0.167-0.22-0.251-0.33
				C219.344,225.856,219.459,225.943,219.518,226.073z M218.589,224.833c-0.068-0.084,0,0-0.188-0.25
				C218.468,224.663,218.544,224.736,218.589,224.833z M216.996,222.076c-0.005-0.029,0,0-0.007-0.081
				C216.996,222.02,216.998,222.047,216.996,222.076z M211.452,175.133c0,0.079,0,0.158,0.001,0.236
				c-0.081-0.036-0.156-0.07-0.225-0.102C211.294,175.208,211.367,175.16,211.452,175.133z M195.927,157.079
				c13.876-14.182,14.646,14.067,13.365,22.23v-0.003c-0.684,12.044,0.715,24.408,4.636,35.672c0.329,1.165,0.808,2.309,1.581,3.938
				h0c0.97,2.623,2.351,5.143,4.375,7.752c0.029,0.113,0.209,0.524,0.593,0.942v0c0.023,0.15,0.112,0.282,0.781,1.105
				c0.126,0.169,0.254,0.34,0.379,0.515c0-0.074-0.017-0.136-0.046-0.189c0.034,0.051,0.053,0.112,0.048,0.19
				c-0.001,0-0.001,0-0.001,0c0.747,1.043,1.405,2.238,0.981,4.113c-10.879-9.152-12.753-24.58-13.899-21.364
				c-0.104,14.69,4.223,11.841,1.223,19.346l0,0c-0.311,0.35-0.201,0.248-0.616,1.243c0,0,0,0,0,0
				c-1.251,2.362-2.945,4.337-5.642,6.255c-8.5,4.563-12.133-1.829-14.603-8.166c-1.801-7.94,1.857-15.911,3.157-23.525
				C203.777,176.372,191.607,171.417,195.927,157.079z M209.52,232.328c0.003-0.015-0.006-0.015,0.019-0.137
				C209.547,232.244,209.538,232.288,209.52,232.328z M208.31,234.372c-0.001,0.024-0.007,0.045-0.012,0.067
				C208.299,234.428,208.302,234.409,208.31,234.372z M207.371,235.602c-0.001,0.119-0.047,0.199-0.122,0.254
				C207.265,235.835,207.25,235.803,207.371,235.602z M175.022,231.34c0.042-0.007,0.011,0.023,0.132-0.032
				c0.061-0.066-0.036-0.201,0.275-0.313c5.738-8.771,11.312-18.798,12.943-29.445c-1.819,1.584-2.097,5.337-3.818,6.912
				c1.269-4.927,3.639-11.013,4.613-16.509c0.429-0.985,0.855-2.568,1.252-4.066l0,0c-0.013-0.209-0.026-0.419-0.039-0.628
				c2.635,4.991,4.739-4.051,4.103-6.864c-0.013-1.604-3.533-16.14-3.837-9.955c-1.44,5.044-0.033-9.828,2.276-10.792
				c-0.041-0.506,1.451-1.933,0.645-0.269c-1.196,4.149-0.833,9.072,0.325,13.589c3.996,12.581-1.67,24.126-4.45,34.064
				c-1.221,2.98-2.59,6.862-4.042,10.052c-2.172,3.609-4.817,8.054-7.753,11.454c-0.378,0.824-1.469,2.089-2.468,2.794
				c-0.079,0.066-0.021,0.001-0.09,0.212c-0.046-0.038-0.092-0.076-0.137-0.115c0.062-0.027,0.123-0.053,0.185-0.08
				C175.102,231.361,175.064,231.359,175.022,231.34z M154.685,171.97c8.253,12.772,2.311,29.909,6.474,44.167
				c0.008-0.007,0.016-0.015,0.023-0.022c0.096,0.979,0.277,2.517,0.636,4.042c-0.001,0-0.003,0-0.004,0
				c1.997,19.42,11.657,38.376,26.678,51.244c0,0,0,0,0,0c0.215,0.194,0.014-0.129,1.247,0.622l0,0
				c0.019,0.233,0.463-0.28,0.631,0.651c-11.346-3.801-14.955-14.72-20.415-19.265c0.54,4.186,5.967,10.44,6.761,12.684
				c-15.292-13.1-17.553-48.9-18.814-59.516c0.058,0.013,0.122,0.026,0.194,0.038c0.095-19.084-1.178-31.505-2.827-13.484h0
				c0.042,0.255,0.045,0.503-0.128,0.725c-0.769-7.951,1.409-18.854-5.309-23.47C151.884,170.008,153.402,170.652,154.685,171.97z
				 M105.13,150.356c1.298,2.077,1.594,5.355,2.319,8.074c0.47,3.021,0.676,6.936,0.973,10.195
				c0.15,16.633,6.632,32.936,15.213,47.184l0,0c0.191,0.13-0.067-0.121,0.606,0.959c0.122,0.176,0.527,0.282,0.596,1.034
				c0.025-0.037,0.038-0.08,0.037-0.129c0.11,0.211,0.195,0.079,1.611,2.142c-0.076,0.003-0.342,0.25-0.366-0.285c0,0,0,0,0,0
				c0,0,0,0,0,0c-6.312-6.037-12.343-14.234-15.186-22.98c-1.038,5.948,2.097,14.525,4.917,20.228
				c0.001-0.002,0.002-0.003,0.004-0.005c0.255,0.714,0.867,1.764,1.538,2.772c-21.262,0.708-15.47-36.903-18.542-42.879
				C96.857,170.842,95.848,144.355,105.13,150.356z M90.695,159.905L90.695,159.905C90.694,159.905,90.694,159.905,90.695,159.905
				c-0.113,0.365-0.155,0.764-0.537,1.11c0.097-5.592,5.146-11.745,10.701-12.439c-9.338,6.867-4.827,24.948-3.361,31.589
				c0.008-0.006,0.015-0.013,0.024-0.02c0.156,1.16,0.059,3.132,0.428,4.725c-0.408,16.266-0.033,33.285-3.813,49.552
				c-1.827-12.938,3.437-28.681,1.18-42.732c-1.201,2.746-0.972,6.067-1.935,9.16c0.06-8.254,0.3-16.093,0.99-23.748
				C91.905,161.977,94.853,151.828,90.695,159.905z M67.147,164.289c6.474,7.516,8.224,17.535,9.289,27.113
				c1.972,14.226,4.901,29.365,11.731,42.443l0,0c3.977,8.297,10.966,15.379,18.079,21.399c0.506,0.267,0.655,0.298,2.788,1.915
				c2.07,0.438,5.037,3.481,7.957,3.422c-0.19,0.524-0.762,0.597-1.423,0.551c-2.049-0.809-4.807-2.161-6.872-3.7
				c-14.964-8.522-22.786-25.108-22.652-21.587c4.418,9.593,1.879,7.166-1.852,0.368c-4.63-8.332-8.275-18.494-8.986-29.021
				c1.401,1.361,2.319,2.914,3.209,4.559c-1.437-10.285-3.134-21.174-5.551-31.658c-0.318,1.7,0.071,4.186,0.166,6.233
				c-0.004-0.001-0.008-0.003-0.013-0.004c-3.932,9.965-1.925-24.12-14.877-23.949C61.935,160.891,64.613,161.506,67.147,164.289z
				 M71.745,294.716c-6.167-12.696,2.182-35.561,9.652-25.444C88.498,285.804,82.814,310.34,71.745,294.716z M87.253,304.243
				c0.176-0.339,0.745-0.233,1.437-0.806c0.187,0.182,0.016,0.191-0.107,0.222c-1.462,1.937-3.874,4.676-7.124,4.276
				c-0.421-0.215-1.206-0.347-2.229-0.281c0-0.001,0-0.001,0.001-0.002c-1.551,0.127-1.965-0.861-2.076-2.167
				C74.746,299.591,84.184,306.691,87.253,304.243L87.253,304.243z M425.021,310.198c0.028,0.004,0,0,0.082,0.012
				c-0.006,0.01-0.011,0.022-0.017,0.033c14.547,9.363-26.593,21.328-31.295,21.771c-104.319,25.608-176.673,21.587-245.172,9.15
				c-31.061-6.693-65.99-11.569-76.483-24.815c0.003-0.013,0,0,0.009-0.039c-1.448-10.092,11.121-5.9,16.797-4.261
				c-0.005,0.011-0.011,0.02-0.015,0.031c98.548,33.993,237.398,29.993,323.073-0.266c-0.009-0.015-0.019-0.029-0.028-0.043
				C415.962,311.014,420.569,308.565,425.021,310.198z M134.904,305.233c-9.808-10.689-6.441-33.491,5.228-37.919
				c8.199-2.539,13.787,3.954,15.456,10.623C160.453,300.993,146.418,317.338,134.904,305.233z M158.237,292.55
				c8.601,13.812,4.137,34.686-1.605,24.248C150.083,304.24,156.76,302.401,158.237,292.55z M231.393,290.407
				c11.261-32.266,47.035-10.723,36.317,17.023C254.761,334.398,224.744,315.406,231.393,290.407z M347.13,257.717
				c-0.001-0.001-0.001-0.003-0.002-0.004c0.001,0,0.001,0.001,0.002,0.001c0.006-0.011,0.01-0.021,0.015-0.032
				c0.01,0.02,0.021,0.04,0.031,0.06c-0.016-0.009-0.03-0.019-0.046-0.028C347.13,257.715,347.13,257.716,347.13,257.717z
				 M365.356,271.134c7.392,8.993,6.88,23.048,1.911,31.293c-11.449,16.854-23.683-0.161-23.673-13.016
				C342.451,265.311,358.421,262.756,365.356,271.134z M360.159,264.837c-0.006-0.015-0.014-0.029-0.021-0.043
				C360.291,264.734,360.163,264.781,360.159,264.837z M360.386,264.979c-0.039,0.033-0.072,0.083-0.103,0.082
				C360.161,265.026,360.084,264.669,360.386,264.979z M341.768,318.963c-4.335,3.878-4.796-9.437-4.816-11.197
				c0.259-5.596,2.364-10.255,5.035-15.326C345.553,307.379,349.884,307.142,341.768,318.963z M411.713,303.708
				c4.062,2.252,7.531-0.117,11.705-0.829c-0.526,1.397,0.16,5.004-2.416,4.737c0.001,0.006,0.003,0.012,0.005,0.018
				c-0.009-0.001,0,0-0.027-0.003c-5.001,0.688-6.557-0.268-9.277-3.668C411.782,303.881,411.786,303.797,411.713,303.708z
				 M427.927,271.723c3.342,7.425,3.796,17.01-0.373,24.421C408.922,315.773,414.63,248.073,427.927,271.723z M446.676,184.523
				c-2.697,7.329-8.647,13.443-10.862,21.275c0.018,0.008,0.035,0.016,0.053,0.023c-0.021,0.004-0.041,0.01-0.063,0.013
				c-0.849,2.211-1.801,5.3-2.407,7.842c-0.011-0.007-0.021-0.015-0.032-0.022c-16.272,72.914-1.434,39.26-16.762,54.576
				c-2.413,3.033-3.554,11.844-8.893,9.208c2.063-19.182,6.882-19.88,8.498-27.111c-13.085,13.727-17.942,18.158-33.301,17.322
				c8.318,6.753,8.648,16.637,8.844,25.74c1.348,24.004-24.375,25.839-23.815,14.311l0,0c0.116-0.089,0.207-0.171,0.385-0.582
				c-0.006-0.023,0,0-0.015-0.067c6.937-7.747,7.261-20.249,3.868-29.535c-7.276-18.451-20.446-14.967-24.704-23.207
				c1.842-34.904-7.736,21.238-28.9,29.478c-6.053,2.69-11.618,1.53-17.737,3.134c2.889,1.761,5.783,1.804,9.027,2.168l0,0
				c12.698,6.403,2.697,30.984-5.915,36.231c-7.14,6.502-28.083,3.185-31.405-3.664c-5.836-9.7-0.001-16.317-0.501-24.589
				c-1.005-13.251-2.784-42.832,14.684-22.03c10.881,11.315-2.994-8.887-4.265-11.839c-5.146-8.432-7.382-16.681-12.756-24.833
				c3.899,13.676-8.128,18.132-18.181,20.259v0c-11.906-0.408-24.824-6.647-21.301-20.093c-6.219,12.688-14.89,27.965-20.949,40.075
				c3.173-1.692,5.087-5.165,7.816-7.822c0,0,0,0,0,0c6.149-5.178,9.766-2.832,11.004,3.976c1.511,7.704-0.086,15.298,0,23.279
				c0.001,7.032,3.926,13.624,0.971,20.419c-2.848,9.426-14.163,10.427-22.654,10.073c-20.216,0.87-28.652-35.235-16.232-39.423l0,0
				c24.646-3.941-11.255-0.163-17.283-12.092c-14.59-13.977-21.548-50.6-20.112-25.959v-0.001c0.002,0.536,0.005,1.366,0.009,2.573
				c-2.698,6.749-10.83,6.646-15.863,11.28c-13.673,10.682-14.108,32.421-4.933,42.397c-0.333,13.395-19.338,5.88-22.322-2.721
				c-2.478-12.886-2.357-28.351,7.716-37.647c-21.698,6.941-39.143-28.646-31.61-11.808c8.571,14.695,8.832,36.493-2.796,12.257
				c-4.119-6.011-8.12-1.035-7.785-6.151c-1.678-16.582-4.234-32.254-8.648-48.215c-0.009,0.006-0.016,0.013-0.025,0.02
				c-0.539-1.934-1.213-4.763-2.175-6.911c0.011-0.004,0.022-0.01,0.033-0.015c-2.353-8.897-9.65-15.327-11.89-24.649
				c-2.601-9.472,2.137-24.085,10.842-13.501c11.216,21.696,4.228,48.313,16.839,69.878c5.822,14.554,20.805,32.485,36.263,26.789
				c11.089-5.723,20.062-38.002,21.176-41.992c3.766-10.787,5.71-22.493,1.919-33.916c-1.915-7.065,2.417-19.57,8.388-17.617
				c9.771,7.11,2.731,50.045,7.189,58.293c3.897,16.857,8.753,34.215,22.84,45.273c5.648,4.57,12.612,9.939,18.831,7.147
				c-0.053,0.059-0.104,0.119-0.152,0.184c17.894-7.742,28.54-39.984,31.629-49.506c0.009,0.011,0.02,0.021,0.03,0.032
				c2.889-7.359,5.159-15.587,6.752-23.527c0.59-1.532,1.362-3.915,1.619-5.931c0.005,0.004,0.01,0.008,0.016,0.012
				c3.037-13.57-5.752-22.598,5.058-32.43c6.957-4.986,13.175-3.391,18.363,1.673c8.681,11.143,0.032,20.663,3.2,30.121
				c0.005-0.007,0.01-0.015,0.016-0.022c0.225,1.696,0.692,4.29,1.768,6.131c-0.054,0.014-0.113,0.023-0.175,0.029
				c1.698,7.631,3.71,15.987,6.756,23.389c6.696,20.525,25.207,67.802,49.434,43.504v0c42.65-34.293,14.538-116.365,35.407-103.049
				c9.817,9.583,0.019,23.07,2.011,34.69c1.564,7.886,3.63,15.589,6.429,23.16c-0.061-0.058-0.125-0.115-0.194-0.169
				c21.128,73.991,56.404,13.603,60.332-5.932c5.392-15.815,3.632-33.572,8.481-49.65
				C442.441,152.094,452.279,171.201,446.676,184.523z"/>
			<polygon points="221.637,229.232 221.637,229.232 221.637,229.232 			"/>
			<path d="M357.719,195.1c1.439-2.893,2.679-15.236,0.432-16.028c-2.188,18.536-3.232,17.687-9.638,21.07
				c4.584,6.583-4.045,37.272-1.057,39.594c5.546-22.9,16.167,2.342,22.635,9.997c-0.239-3.593-2.529-7.264-3.771-10.974
				C361.325,225.044,355.019,210.031,357.719,195.1z"/>
			<path d="M151.431,199.919c-8.991-2.561-8.308-13.344-9.546-21.171c-1.766,2.954-1.201,7.429-0.856,10.919
				c6.151,19.623-3.876,39.006-10.302,57.068c-4.217,14.811,16.186-36.081,21.655-7.392c2.376-6.897-1.986-20.481-1.956-29.426
				C150.074,206.792,149.644,202.19,151.431,199.919z"/>
			<path d="M434.521,191.904c-0.648-0.695-1.511-3.761-2.308-1.711c-0.143,15.583-6.01,30.057-7.839,45.695
				c5.257-9.684,5.673-21.363,10.18-31.589c3.326-9.204,13.986-19.152,11.457-29.091
				C444.198,180.017,437.75,194.434,434.521,191.904z"/>
			<path d="M261.391,202.428c-1.631-7.219,1.688-17.849-1.423-18.461c-0.7,6.264-2.88,15.7-10.578,15.799
				c-11.136-3.477-7.466-16.913-9.887-15.838c-0.789,31.911-4.402,25.594-7.569,45.742c-0.412,1.636-0.696,4.816,1.884-0.12
				c7.261-21.095,27.434-17.395,33.539,1.763l0,0c0.015,0.04,0.05,0.33,0.623,0.866l0,0c0.806-0.24,0.214-2.712,0.037-4.081
				C266.745,220.033,263.041,211.109,261.391,202.428z"/>
			<path d="M68.099,191.649c0.062-0.451-0.418-3.356-1.409-1.61c-3.377,8.647-11.799-12.987-12.591-14.781
				c-2.704,1.053,3.93,18.096,5.552,18.293l0,0c10.312,13.322,9.702,31.772,16.265,42.416c-0.056-0.452-0.044-1.097-0.356-1.903
				C73.143,217.964,67.457,202.732,68.099,191.649z"/>
			<path d="M169.921,340.284c-30.682-8.739-61.395-16.034-92.005-26.371c-4.063,0.199-0.297,3.406,1.636,4.617
				c27.982,15.205,60.021,18.101,91.058,22.315C170.377,340.465,170.174,340.359,169.921,340.284z"/>
			<path d="M329.254,340.804c22.079-2.451,44.652-5.592,66.162-11.991c30.347-8.591,34.323-18.367,21.944-13.49
				C388.642,325.674,358.39,331.512,329.254,340.804z"/>
			<path d="M304.103,343.328c-36.251,1.013-72.655,1.038-109.066-0.026c35.603,8.334,74.074,7.852,109.8,0.23
				C304.592,343.207,304.336,343.315,304.103,343.328z"/>
			<path d="M346.795,289.238c0.17,6.703,3.2,16.631,9.148,18.116c-0.238-0.301-2.331-3.014-1.672-2.404
				c9.947,3.63,16.937-12.49,13.825-19.319c-7.67,30.205-21.564-1.336-17.565-10.532v0c0.646-0.924,0.315-0.615,1.845-2.486
				c0.166-0.089,0.568-0.909-0.313-0.975c-0.872,0.225-1.72,1.096-2.468,2.203v0c-3.08,3.784-3.688,10.08-2.8,15.402
				C346.795,289.241,346.795,289.239,346.795,289.238z M351.406,273.642c-0.098,0.059-0.15,0.155-0.155,0.29
				c-0.001,0-0.001,0-0.002,0C351.238,273.785,351.303,273.698,351.406,273.642z M351.237,272.196
				c0.016-0.007,0.033-0.013,0.047-0.022C351.257,272.193,351.259,272.192,351.237,272.196z M350.136,273.252
				c0.007-0.028,0.012-0.057,0.013-0.089C350.155,273.234,350.155,273.237,350.136,273.252z M349.871,273.496
				c0.035-0.009,0.066-0.021,0.094-0.034C349.936,273.475,349.905,273.487,349.871,273.496
				C349.871,273.497,349.871,273.497,349.871,273.496z"/>
			<path d="M153.474,281.786L153.474,281.786c-0.259-2.763-1.327-6.405-3.746-8.874c0.464,0.01-5.11-4.307-0.019,2.489
				c0.006,0.168-0.029,0.311,0.271,0.73c1.94,15.74-12.213,35.584-17.977,9.375c-0.519,0.489-0.545,0.951-0.588,1.404
				c-1.222,12.346,8.232,21.524,14.674,17.725c0.655-0.262-3.397,3.84-1.01,2.475c6.751-3.798,7.976-12.663,8.412-19.885
				c-0.003,0.002,0,0-0.007,0.007C153.781,285.416,153.865,283.6,153.474,281.786z"/>
			<path d="M147.779,272.603c0.003,0.023,0.007,0.045,0.006,0.069c0,0,0,0,0,0C147.786,272.647,147.784,272.624,147.779,272.603z"/>
			<path d="M420.878,290.207c-3.28-5.428,1.232-19.003,2.144-22.531c-6.726,4.978-7.193,28.971-1.455,30.85
				c0.269-0.928-0.15-1.652-0.222-2.572c7.747,0.251,7.822-10.589,6.357-16.131C425.935,282.656,426.453,292.415,420.878,290.207z"
				/>
			<path d="M78.468,298.523c7.561-4.572,3.384-27.846-1.383-31.123c8.358,27.711-1.742,29.367-4.582,12.388
				C68.785,300.562,80.565,292.569,78.468,298.523z"/>
			<path d="M395.757,175.59c-5.434,21.599,8.445-8.796,4.046-14.285c-3.913,14.693-9.413,10.125-6.028,13.761
				C394.363,175.431,395.051,175.41,395.757,175.59z"/>
			<path d="M99.967,162.039c-1.213,6.217,2.154,20.7,6.013,21.2c0.48-2.342-2.682-7.144-0.973-7.79
				c6.663-1.73-3.209-3.202-4.491-14.106C100.003,161.511,100.017,161.805,99.967,162.039z"/>
			<path d="M203.513,179.176c8.173-0.379-2.153-5.986-2.504-9.961l0,0c-0.202-1.048-3.537-6.473-3.6-3.202
				C198.889,175.145,199.218,202.955,203.513,179.176z"/>
			<path d="M294.667,178.97c0.693,0.328,1.42,0.142,2.127,0.23l0,0c3.748,25.755,5.212-8.805,5.843-13.995
				c-2.084-1.434-5.195,8.65-6.647,9.201C294.629,176.306,291.305,176.85,294.667,178.97z"/>
			<path d="M258.137,317.03c12.762-5.484,13.436-35.144-0.735-37.206c9.142,6.858,5.365,21.631-5.434,23.187
				c-12.402,2.001-18.936-13.448-10.971-21.57c6.544-5.738-13.155,1.91-8.137,21.096c1.016,14.625,16.842,18.259,11.747,13.65
				c-0.57-0.995,2.831,0.499,4.112,0.278c2.377,0.178,4.415-0.096,6.798-0.712C253.911,318.598,254.33,318.676,258.137,317.03z"/>
		</g>
	</g>
</g>
</svg>
