<svg width="218" height="218" viewBox="0 0 218 218" fill="none" xmlns="http://www.w3.org/2000/svg">
<path d="M156.688 193.703C156.696 195.234 156.158 196.717 155.171 197.887C154.183 199.056 152.812 199.836 151.301 200.085C142.052 201.561 116.599 204.375 109 204.375C101.401 204.375 75.948 201.561 66.6987 200.085C65.1886 199.836 63.8168 199.056 62.8296 197.887C61.8424 196.717 61.3045 195.234 61.3126 193.703V38.959H156.688V193.703Z" fill="#F2EA23"/>
<path d="M146.469 183.698C146.469 186.878 144.758 189.585 142.429 190.08C135.492 191.555 114.7 194.37 109 194.37C103.3 194.37 82.5079 191.556 75.5706 190.08C73.242 189.585 71.5312 186.878 71.5312 183.698V38.959H146.469V183.698Z" fill="#333333"/>
<path d="M177.125 31.7054C183.429 31.7054 183.437 22.1636 177.125 22.1636H40.8748C34.5712 22.1636 34.5631 31.7054 40.8748 31.7054H177.125Z" fill="#C5C5DD"/>
<path d="M76.2148 46.0176V17.5294C76.2148 14.7146 80.4727 14.7107 80.4727 17.5294V46.0176C80.4727 48.8324 76.2148 48.8363 76.2148 46.0176ZM137.527 46.0176V17.5294C137.527 14.7146 141.785 14.7107 141.785 17.5294V46.0176C141.785 48.8324 137.527 48.8363 137.527 46.0176Z" fill="#FFE05F"/>
<g clip-path="url(#clip0_33_272)">
<path d="M90.2969 121.977C89.8101 121.977 89.3343 122.121 88.9296 122.391C88.5249 122.662 88.2095 123.046 88.0233 123.496C87.837 123.945 87.7883 124.44 87.8832 124.918C87.9782 125.395 88.2126 125.833 88.5567 126.178C88.9009 126.522 89.3394 126.756 89.8168 126.851C90.2941 126.946 90.789 126.897 91.2386 126.711C91.6883 126.525 92.0727 126.209 92.3431 125.805C92.6135 125.4 92.7578 124.924 92.7578 124.438C92.7572 123.785 92.4978 123.159 92.0364 122.698C91.575 122.237 90.9494 121.977 90.2969 121.977ZM90.2969 125.258C90.1346 125.258 89.976 125.21 89.8411 125.12C89.7062 125.029 89.6011 124.901 89.539 124.751C89.4769 124.602 89.4607 124.437 89.4923 124.277C89.524 124.118 89.6021 123.972 89.7168 123.857C89.8315 123.743 89.9777 123.665 90.1368 123.633C90.296 123.601 90.4609 123.618 90.6108 123.68C90.7607 123.742 90.8888 123.847 90.9789 123.982C91.0691 124.117 91.1172 124.275 91.1172 124.438C91.1172 124.655 91.0308 124.864 90.8769 125.018C90.7231 125.171 90.5144 125.258 90.2969 125.258ZM96.3333 114.247C96.4955 114.247 96.6541 114.199 96.789 114.109C96.9239 114.019 97.0291 113.891 97.0911 113.741C97.1532 113.591 97.1695 113.426 97.1378 113.267C97.1062 113.108 97.028 112.961 96.9133 112.847C96.7986 112.732 96.6524 112.654 96.4933 112.622C96.3342 112.591 96.1692 112.607 96.0194 112.669C95.8695 112.731 95.7413 112.836 95.6512 112.971C95.5611 113.106 95.513 113.264 95.513 113.427C95.513 113.644 95.5994 113.853 95.7532 114.007C95.9071 114.161 96.1157 114.247 96.3333 114.247ZM85.7173 114.889C85.5551 114.889 85.3965 114.937 85.2616 115.027C85.1267 115.117 85.0216 115.246 84.9595 115.395C84.8974 115.545 84.8811 115.71 84.9128 115.869C84.9444 116.029 85.0226 116.175 85.1373 116.289C85.252 116.404 85.3982 116.482 85.5573 116.514C85.7164 116.546 85.8814 116.529 86.0313 116.467C86.1811 116.405 86.3093 116.3 86.3994 116.165C86.4895 116.03 86.5377 115.872 86.5377 115.709C86.5377 115.492 86.4512 115.283 86.2974 115.129C86.1435 114.975 85.9349 114.889 85.7173 114.889ZM132.283 114.889C132.12 114.889 131.962 114.937 131.827 115.027C131.692 115.117 131.587 115.246 131.525 115.395C131.463 115.545 131.446 115.71 131.478 115.869C131.51 116.029 131.588 116.175 131.703 116.289C131.817 116.404 131.963 116.482 132.123 116.514C132.282 116.546 132.447 116.529 132.597 116.467C132.746 116.405 132.875 116.3 132.965 116.165C133.055 116.03 133.103 115.872 133.103 115.709C133.103 115.492 133.017 115.283 132.863 115.129C132.709 114.975 132.5 114.889 132.283 114.889ZM136.986 111.153C137.018 111.006 137.008 110.853 136.959 110.712C136.91 110.57 136.824 110.444 136.708 110.348C136.592 110.252 136.453 110.19 136.304 110.168C136.156 110.146 136.004 110.165 135.866 110.223L128.455 113.346C128.348 113.391 128.252 113.458 128.173 113.543C128.094 113.628 128.033 113.728 127.996 113.838C127.959 113.948 127.946 114.064 127.957 114.18C127.968 114.295 128.003 114.407 128.061 114.507L128.084 114.547C128.109 114.593 128.14 114.636 128.175 114.676C128.4 114.938 128.546 115.259 128.594 115.601C128.643 115.943 128.592 116.292 128.448 116.606C128.304 116.92 128.073 117.186 127.782 117.373C127.491 117.559 127.153 117.658 126.807 117.658C126.462 117.658 126.124 117.559 125.833 117.373C125.542 117.186 125.311 116.92 125.167 116.606C125.023 116.292 124.972 115.943 125.02 115.601C125.069 115.259 125.215 114.938 125.44 114.676C125.474 114.636 125.505 114.592 125.531 114.547L125.554 114.507C125.648 114.341 125.681 114.148 125.649 113.96L124.169 105.494C124.142 105.333 124.067 105.185 123.955 105.067C123.843 104.949 123.698 104.867 123.539 104.832C123.38 104.797 123.214 104.81 123.063 104.869C122.911 104.929 122.781 105.032 122.688 105.166L117.705 112.32C117.633 112.424 117.585 112.543 117.566 112.668C117.547 112.793 117.557 112.921 117.596 113.042C117.715 113.407 117.753 113.794 117.705 114.176C117.539 115.478 116.361 116.188 116.227 116.265C115.711 116.554 115.125 116.693 114.533 116.666C113.942 116.639 113.371 116.448 112.883 116.113C111.534 115.159 111.577 113.477 111.586 113.288C111.653 111.92 112.596 110.67 113.992 110.105C114.191 110.024 114.35 109.869 114.436 109.672C114.521 109.476 114.527 109.253 114.45 109.053L109.795 96.8553C109.736 96.7004 109.631 96.5671 109.494 96.473C109.357 96.3789 109.195 96.3284 109.03 96.3281H108.973C108.807 96.3284 108.645 96.3789 108.508 96.473C108.371 96.5671 108.266 96.7004 108.207 96.8553L103.548 109.053C103.471 109.253 103.476 109.476 103.562 109.672C103.648 109.869 103.807 110.024 104.006 110.105C105.397 110.67 106.34 111.92 106.412 113.288C106.421 113.477 106.464 115.159 105.115 116.113C104.627 116.448 104.055 116.639 103.464 116.666C102.873 116.693 102.287 116.554 101.77 116.265C101.637 116.188 100.458 115.478 100.293 114.176C100.245 113.794 100.282 113.407 100.402 113.042C100.441 112.921 100.451 112.793 100.432 112.668C100.413 112.543 100.365 112.424 100.293 112.32L95.3117 105.166C95.2191 105.032 95.0887 104.929 94.9372 104.869C94.7857 104.81 94.6199 104.797 94.461 104.832C94.3021 104.867 94.1574 104.949 94.0451 105.067C93.9329 105.185 93.8582 105.333 93.8308 105.494L92.3597 113.962C92.3274 114.149 92.3611 114.343 92.4548 114.508L92.4778 114.548C92.5042 114.593 92.5345 114.637 92.5686 114.677C92.7941 114.939 92.9398 115.26 92.9883 115.602C93.0367 115.944 92.9859 116.293 92.842 116.607C92.698 116.921 92.4668 117.187 92.176 117.374C91.8852 117.56 91.5469 117.66 91.2014 117.66C90.8559 117.66 90.5176 117.56 90.2268 117.374C89.936 117.187 89.7048 116.921 89.5608 116.607C89.4169 116.293 89.3661 115.944 89.4145 115.602C89.463 115.26 89.6087 114.939 89.8342 114.677C89.8692 114.637 89.8997 114.594 89.925 114.548L89.948 114.508C90.0055 114.408 90.041 114.296 90.0521 114.181C90.0632 114.065 90.0497 113.949 90.0125 113.839C89.9753 113.729 89.9152 113.629 89.8362 113.544C89.7572 113.459 89.6611 113.392 89.5542 113.347L82.1386 110.219C82.0002 110.161 81.8485 110.141 81.7 110.163C81.5515 110.185 81.4119 110.248 81.2964 110.344C81.1809 110.439 81.0939 110.565 81.0449 110.707C80.9959 110.849 80.9868 111.002 81.0186 111.148L83.0967 120.69L84.978 131.13C84.1423 131.224 83.3747 131.636 82.8337 132.28C82.2926 132.923 82.0193 133.75 82.0703 134.59C82.1212 135.429 82.4925 136.217 83.1074 136.79C83.7224 137.364 84.5341 137.679 85.375 137.672H132.625C133.46 137.671 134.263 137.352 134.871 136.78C135.479 136.208 135.846 135.426 135.897 134.592C135.948 133.759 135.68 132.938 135.147 132.295C134.614 131.653 133.856 131.238 133.027 131.135L134.909 120.695L136.986 111.153ZM134.266 134.391C134.266 134.606 134.223 134.819 134.141 135.018C134.058 135.218 133.937 135.398 133.785 135.551C133.633 135.703 133.452 135.824 133.253 135.906C133.054 135.989 132.84 136.031 132.625 136.031H85.375C84.9399 136.031 84.5226 135.858 84.2149 135.551C83.9072 135.243 83.7344 134.826 83.7344 134.391C83.7344 133.956 83.9072 133.538 84.2149 133.231C84.5226 132.923 84.9399 132.75 85.375 132.75H132.625C132.84 132.75 133.054 132.792 133.253 132.875C133.452 132.957 133.633 133.078 133.785 133.231C133.937 133.383 134.058 133.564 134.141 133.763C134.223 133.962 134.266 134.175 134.266 134.391ZM133.297 120.391L131.365 131.109H86.6306L84.7034 120.391C84.7034 120.382 84.7034 120.372 84.7034 120.362L82.9578 112.348L88.0361 114.484C87.7992 115.035 87.71 115.637 87.7772 116.232C87.8444 116.828 88.0658 117.395 88.4194 117.879C88.7729 118.362 89.2466 118.746 89.7934 118.99C90.3403 119.235 90.9415 119.332 91.5377 119.274C92.1339 119.215 92.7045 119.002 93.193 118.655C93.6816 118.308 94.0712 117.84 94.3236 117.297C94.5759 116.753 94.6821 116.153 94.6317 115.557C94.5814 114.96 94.3762 114.386 94.0364 113.893L95.1094 107.74L98.7341 112.944C98.6283 113.417 98.605 113.904 98.6651 114.384C98.9266 116.429 100.617 117.495 100.954 117.688C101.74 118.138 102.638 118.354 103.542 118.312C104.446 118.271 105.32 117.972 106.061 117.452C108.082 116.023 108.072 113.666 108.051 113.208C107.965 111.458 106.931 109.855 105.351 108.942L109 99.3731L112.653 108.939C111.074 109.855 110.039 111.455 109.954 113.205C109.932 113.663 109.922 116.02 111.943 117.448C112.684 117.969 113.558 118.267 114.462 118.309C115.367 118.351 116.264 118.134 117.05 117.685C117.387 117.492 119.078 116.426 119.339 114.38C119.399 113.9 119.376 113.413 119.27 112.941L122.891 107.74L123.959 113.896C123.62 114.39 123.415 114.964 123.365 115.561C123.315 116.159 123.421 116.759 123.674 117.302C123.927 117.846 124.317 118.314 124.806 118.661C125.295 119.007 125.866 119.22 126.463 119.279C127.059 119.337 127.661 119.239 128.208 118.994C128.755 118.749 129.229 118.365 129.582 117.881C129.936 117.397 130.157 116.829 130.224 116.233C130.291 115.638 130.201 115.035 129.964 114.484L135.042 112.345L133.302 120.357C133.3 120.37 133.298 120.38 133.297 120.391ZM127.703 121.977C127.216 121.977 126.741 122.121 126.336 122.391C125.931 122.662 125.616 123.046 125.43 123.496C125.243 123.945 125.195 124.44 125.289 124.918C125.384 125.395 125.619 125.833 125.963 126.178C126.307 126.522 126.746 126.756 127.223 126.851C127.7 126.946 128.195 126.897 128.645 126.711C129.095 126.525 129.479 126.209 129.749 125.805C130.02 125.4 130.164 124.924 130.164 124.438C130.163 123.785 129.904 123.159 129.443 122.698C128.981 122.237 128.356 121.977 127.703 121.977ZM127.703 125.258C127.541 125.258 127.382 125.21 127.247 125.12C127.112 125.029 127.007 124.901 126.945 124.751C126.883 124.602 126.867 124.437 126.899 124.277C126.93 124.118 127.008 123.972 127.123 123.857C127.238 123.743 127.384 123.665 127.543 123.633C127.702 123.601 127.867 123.618 128.017 123.68C128.167 123.742 128.295 123.847 128.385 123.982C128.475 124.117 128.523 124.275 128.523 124.438C128.523 124.655 128.437 124.864 128.283 125.018C128.129 125.171 127.921 125.258 127.703 125.258ZM109 120.063C108.135 120.063 107.289 120.319 106.569 120.8C105.85 121.281 105.289 121.964 104.958 122.763C104.627 123.563 104.54 124.442 104.709 125.291C104.878 126.14 105.295 126.919 105.906 127.531C106.518 128.143 107.298 128.56 108.146 128.728C108.995 128.897 109.875 128.811 110.674 128.479C111.474 128.148 112.157 127.588 112.638 126.868C113.118 126.149 113.375 125.303 113.375 124.438C113.375 123.277 112.914 122.164 112.094 121.344C111.273 120.523 110.16 120.063 109 120.063ZM109 127.172C108.459 127.172 107.931 127.012 107.481 126.711C107.031 126.411 106.681 125.984 106.474 125.484C106.267 124.984 106.213 124.434 106.318 123.904C106.424 123.374 106.684 122.886 107.066 122.504C107.449 122.122 107.936 121.861 108.467 121.756C108.997 121.65 109.547 121.704 110.046 121.911C110.546 122.118 110.973 122.469 111.274 122.918C111.574 123.368 111.734 123.897 111.734 124.438C111.734 125.163 111.446 125.858 110.933 126.371C110.421 126.884 109.725 127.172 109 127.172ZM121.667 114.247C121.829 114.247 121.988 114.199 122.122 114.109C122.257 114.019 122.362 113.891 122.425 113.741C122.487 113.591 122.503 113.426 122.471 113.267C122.44 113.108 122.361 112.961 122.247 112.847C122.132 112.732 121.986 112.654 121.827 112.622C121.668 112.591 121.503 112.607 121.353 112.669C121.203 112.731 121.075 112.836 120.985 112.971C120.895 113.106 120.846 113.264 120.846 113.427C120.846 113.644 120.933 113.853 121.087 114.007C121.241 114.161 121.449 114.247 121.667 114.247ZM119.5 120.243C119.423 120.143 119.325 120.062 119.212 120.006C119.099 119.95 118.974 119.921 118.848 119.921C118.722 119.921 118.598 119.95 118.485 120.006C118.372 120.062 118.273 120.143 118.196 120.243L115.373 123.94C115.264 124.083 115.205 124.258 115.205 124.438C115.205 124.617 115.264 124.792 115.373 124.935L118.187 128.632C118.264 128.732 118.363 128.813 118.476 128.869C118.589 128.925 118.713 128.954 118.839 128.954C118.965 128.954 119.09 128.925 119.203 128.869C119.316 128.813 119.415 128.732 119.491 128.632L122.314 124.935C122.423 124.792 122.482 124.617 122.482 124.438C122.482 124.258 122.423 124.083 122.314 123.94L119.5 120.243ZM118.844 126.783L117.053 124.438L118.844 122.093L120.634 124.438L118.844 126.783ZM109 123.672C108.838 123.672 108.679 123.72 108.544 123.81C108.409 123.9 108.304 124.028 108.242 124.178C108.18 124.328 108.164 124.493 108.195 124.652C108.227 124.811 108.305 124.958 108.42 125.072C108.535 125.187 108.681 125.265 108.84 125.297C108.999 125.328 109.164 125.312 109.314 125.25C109.464 125.188 109.592 125.083 109.682 124.948C109.772 124.813 109.82 124.654 109.82 124.492C109.82 124.275 109.734 124.066 109.58 123.912C109.426 123.758 109.218 123.672 109 123.672ZM99.8125 120.243C99.7358 120.143 99.6371 120.062 99.5241 120.006C99.411 119.95 99.2867 119.921 99.1606 119.921C99.0346 119.921 98.9102 119.95 98.7972 120.006C98.6841 120.062 98.5854 120.143 98.5087 120.243L95.6858 123.94C95.5767 124.083 95.5176 124.258 95.5176 124.438C95.5176 124.617 95.5767 124.792 95.6858 124.935L98.5 128.632C98.5767 128.732 98.6754 128.813 98.7884 128.869C98.9015 128.925 99.0258 128.954 99.1519 128.954C99.2779 128.954 99.4023 128.925 99.5153 128.869C99.6284 128.813 99.727 128.732 99.8037 128.632L102.627 124.935C102.736 124.792 102.795 124.617 102.795 124.438C102.795 124.258 102.736 124.083 102.627 123.94L99.8125 120.243ZM99.1562 126.783L97.3658 124.438L99.1562 122.093L100.947 124.438L99.1562 126.783ZM109 108.469C109.162 108.469 109.321 108.421 109.456 108.331C109.591 108.24 109.696 108.112 109.758 107.962C109.82 107.812 109.836 107.648 109.805 107.488C109.773 107.329 109.695 107.183 109.58 107.068C109.465 106.954 109.319 106.876 109.16 106.844C109.001 106.812 108.836 106.828 108.686 106.891C108.536 106.953 108.408 107.058 108.318 107.193C108.228 107.328 108.18 107.486 108.18 107.648C108.18 107.866 108.266 108.075 108.42 108.228C108.574 108.382 108.782 108.469 109 108.469Z" fill="#F2EA23"/>
</g>
<defs>
<clipPath id="clip0_33_272">
<rect width="56" height="56" fill="white" transform="translate(81 89)"/>
</clipPath>
</defs>
</svg>
