<?xml version="1.0" standalone="no"?>
<!DOCTYPE svg PUBLIC "-//W3C//DTD SVG 20010904//EN"
 "http://www.w3.org/TR/2001/REC-SVG-20010904/DTD/svg10.dtd">
<svg version="1.0" xmlns="http://www.w3.org/2000/svg"
 width="2000.000000pt" height="2000.000000pt" viewBox="0 0 2000.000000 2000.000000"
 preserveAspectRatio="xMidYMid meet">
<metadata>
Created by potrace 1.16, written by Peter Selinger 2001-2019
</metadata>
<g transform="translate(0.000000,2000.000000) scale(0.100000,-0.100000)"
fill="#eee" stroke="none">
<path d="M9730 15605 c-148 -21 -240 -45 -240 -61 0 -8 16 -78 35 -155 111
-439 185 -878 231 -1359 9 -102 17 -315 20 -560 l4 -395 -38 130 c-69 235
-130 355 -231 456 -148 147 -327 180 -468 86 -65 -44 -102 -112 -103 -190 0
-99 29 -140 164 -234 130 -90 171 -172 168 -338 -1 -55 -8 -127 -15 -160 l-13
-60 -19 52 c-44 123 -163 252 -285 310 -73 34 -172 43 -221 18 -132 -67 -147
-202 -32 -280 21 -14 67 -45 103 -68 109 -71 171 -180 172 -303 0 -82 -8 -104
-37 -104 -57 0 -66 -80 -13 -114 55 -34 292 -66 538 -71 102 -3 186 -5 186 -5
7 -1 -76 -359 -112 -485 -162 -561 -443 -1085 -676 -1260 -139 -104 -252 -140
-413 -132 -314 16 -588 224 -769 582 -53 106 -122 281 -162 415 -25 81 -29
112 -29 210 0 105 2 119 27 165 34 65 104 129 176 163 46 21 73 27 136 28 74
0 80 2 88 24 5 13 8 44 6 69 -4 55 -24 71 -69 54 l-31 -12 7 52 c14 101 47
203 101 314 58 120 67 169 39 222 -17 34 -66 56 -121 54 -115 -4 -248 -140
-289 -293 l-12 -45 -11 40 c-24 87 -24 157 -3 259 33 154 26 195 -38 249 -123
103 -300 27 -397 -171 l-39 -80 -1 152 c-2 362 -121 668 -452 1165 -90 134
-117 169 -123 155 -17 -48 -41 -266 -46 -424 -11 -336 48 -717 156 -999 l20
-54 -22 21 c-80 73 -211 89 -305 37 -36 -20 -61 -42 -78 -70 -42 -73 -29 -113
69 -199 70 -61 113 -129 126 -200 l8 -46 -52 48 c-56 52 -107 72 -176 72 -91
-1 -179 -68 -179 -136 0 -50 34 -79 106 -94 86 -18 118 -33 174 -86 47 -43
140 -177 140 -200 0 -6 -13 -20 -30 -32 -51 -38 -31 -103 45 -148 l45 -26 47
39 c69 56 93 70 157 88 123 36 231 -36 268 -178 17 -68 17 -436 -1 -567 -69
-519 -293 -921 -611 -1098 -210 -116 -424 -100 -685 54 -248 146 -451 369
-581 637 -94 197 -95 278 -3 361 72 64 173 85 306 63 42 -7 43 -7 63 33 24 47
26 107 4 139 -14 20 -23 23 -60 18 l-42 -4 -18 63 c-34 126 -4 266 81 376 84
108 101 167 69 229 -17 33 -82 69 -124 69 -42 0 -104 -35 -142 -79 -33 -39
-68 -122 -68 -162 0 -11 -4 -19 -9 -19 -5 0 -13 30 -16 66 -7 62 -5 118 11
276 6 65 6 68 -23 97 -66 65 -177 64 -279 -3 -89 -59 -142 -156 -167 -304
l-14 -77 -12 110 c-53 475 -249 938 -549 1295 -86 102 -189 207 -196 199 -2
-2 -10 -69 -16 -149 -44 -520 93 -1079 374 -1524 31 -48 56 -90 56 -92 0 -2
-27 14 -61 36 -86 56 -161 82 -249 87 -91 5 -131 -14 -150 -72 -18 -53 -5
-100 41 -150 l40 -43 -12 -92 c-6 -50 -15 -88 -19 -83 -4 4 -37 62 -75 128
-135 239 -289 445 -411 550 -139 120 -295 201 -441 231 -151 32 -334 10 -458
-53 l-38 -20 74 -43 c413 -240 870 -648 1170 -1045 110 -146 299 -437 299
-460 0 -3 -11 -5 -24 -5 -41 0 -76 -36 -76 -79 0 -68 58 -111 150 -111 47 0
49 1 61 38 53 165 183 285 309 286 145 1 240 -128 290 -391 64 -345 50 -688
-45 -1064 -33 -129 -56 -179 -105 -233 -48 -52 -94 -70 -158 -63 -37 4 -53 12
-80 42 -31 34 -34 41 -29 83 7 64 44 96 101 89 25 -4 48 -14 58 -27 l18 -22
11 29 c51 135 95 356 109 553 12 168 -8 510 -30 510 -4 0 -10 -35 -14 -77 -7
-82 -56 -337 -79 -413 -8 -25 -19 -45 -25 -45 -20 0 -1005 724 -1141 839 -143
121 -235 255 -262 383 -23 114 5 258 64 322 l22 24 -61 -6 c-79 -8 -158 -38
-233 -88 -262 -175 -229 -578 56 -712 56 -26 83 -32 158 -35 l90 -5 -36 40
c-20 22 -48 60 -62 84 -29 49 -60 150 -55 176 4 21 359 -315 521 -492 350
-384 519 -736 534 -1109 l6 -140 31 -25 c335 -274 608 -736 690 -1170 16 -85
13 -83 -34 19 -83 178 -189 351 -304 494 l-71 88 -3 -43 c-5 -69 17 -205 49
-306 55 -170 103 -260 352 -655 48 -75 123 -205 167 -290 98 -185 142 -245
219 -297 127 -87 138 -131 67 -270 -59 -115 -86 -207 -93 -316 -6 -100 12
-219 47 -301 20 -46 20 -46 0 -74 -24 -33 -26 -89 -5 -129 42 -83 186 -150
374 -175 l84 -11 13 -60 c7 -33 17 -73 23 -89 10 -25 9 -31 -9 -43 -30 -21
-51 -69 -44 -98 3 -14 21 -37 40 -51 l33 -26 -21 -39 c-187 -359 1513 -670
3870 -708 1670 -27 3233 84 4138 293 534 123 773 266 696 415 l-21 39 33 26
c19 14 37 37 40 51 7 29 -14 77 -44 98 -18 12 -19 18 -9 43 6 16 16 56 23 89
l13 60 84 11 c188 25 332 92 374 175 21 40 19 96 -5 129 -20 28 -20 28 0 74
35 82 53 201 47 301 -7 109 -34 201 -93 316 -71 139 -60 183 67 270 77 52 121
112 219 297 44 85 119 215 167 290 249 395 297 485 352 655 32 101 54 237 49
306 l-3 43 -71 -88 c-123 -153 -215 -304 -305 -497 -20 -43 -39 -80 -42 -83
-9 -9 22 138 49 231 109 380 360 768 650 1006 l31 25 6 140 c15 373 184 725
534 1109 162 177 517 513 521 492 5 -26 -26 -127 -55 -176 -14 -24 -42 -62
-62 -84 l-36 -40 90 5 c75 3 102 9 158 35 285 134 318 537 56 712 -75 50 -154
80 -233 88 l-61 6 22 -24 c59 -64 87 -208 64 -322 -27 -128 -119 -262 -262
-383 -136 -115 -1121 -839 -1141 -839 -6 0 -17 20 -25 45 -23 76 -72 331 -79
413 -12 142 -28 87 -44 -162 -10 -149 0 -349 25 -496 15 -87 62 -269 84 -328
l11 -29 18 22 c10 13 33 23 58 27 57 7 94 -25 101 -89 5 -42 2 -49 -29 -83
-62 -68 -164 -59 -238 21 -49 54 -72 104 -105 233 -95 376 -109 719 -45 1064
50 263 145 392 290 391 126 -1 256 -121 309 -286 12 -37 14 -38 61 -38 92 0
150 43 150 111 0 43 -35 79 -76 79 -13 0 -24 2 -24 5 0 9 104 182 163 270 156
233 314 421 543 645 233 228 514 446 763 590 l74 43 -38 20 c-124 63 -307 85
-458 53 -146 -30 -302 -111 -441 -231 -122 -105 -276 -311 -411 -550 -38 -66
-71 -124 -75 -128 -4 -5 -13 33 -19 83 l-12 92 40 43 c46 50 59 97 41 150 -19
58 -59 77 -150 72 -88 -5 -163 -31 -249 -87 -34 -22 -61 -38 -61 -36 0 2 25
44 56 92 281 445 418 1004 374 1524 -6 80 -14 147 -16 149 -7 8 -110 -97 -196
-199 -300 -357 -496 -820 -549 -1295 l-12 -110 -14 77 c-25 148 -78 245 -167
304 -102 67 -213 68 -279 3 -29 -29 -29 -32 -23 -97 16 -158 18 -214 11 -276
-3 -36 -11 -66 -16 -66 -5 0 -9 8 -9 19 0 40 -35 123 -68 162 -38 44 -100 79
-142 79 -42 0 -107 -36 -124 -69 -32 -62 -15 -121 69 -229 85 -110 115 -250
81 -376 l-18 -63 -42 4 c-37 5 -46 2 -60 -18 -22 -32 -20 -92 4 -139 20 -40
21 -40 63 -33 133 22 234 1 306 -63 92 -83 91 -164 -3 -361 -130 -268 -333
-491 -581 -637 -261 -154 -475 -170 -685 -54 -318 177 -542 579 -611 1098 -18
131 -18 499 -1 567 37 142 145 214 268 178 64 -18 88 -32 157 -88 l47 -39 45
26 c76 45 96 110 45 148 -16 12 -30 26 -30 32 0 23 93 157 140 200 56 53 88
68 174 86 72 15 106 44 106 94 0 68 -88 135 -179 136 -69 0 -120 -20 -176 -72
l-52 -48 8 46 c13 71 56 139 126 200 98 86 111 126 69 199 -69 117 -271 135
-383 33 l-22 -21 20 54 c108 282 167 667 156 1004 -5 154 -29 372 -46 419 -6
14 -33 -21 -123 -155 -198 -298 -302 -492 -371 -699 -59 -174 -80 -293 -81
-466 l-1 -152 -39 80 c-97 198 -274 274 -397 171 -64 -54 -71 -95 -38 -249 21
-102 21 -172 -3 -259 l-11 -40 -12 45 c-41 153 -174 289 -289 293 -55 2 -104
-20 -121 -54 -28 -53 -19 -102 39 -222 54 -111 87 -213 101 -314 l7 -52 -31
12 c-45 17 -65 1 -69 -54 -2 -25 1 -56 6 -69 8 -22 14 -24 88 -24 63 -1 90 -7
136 -28 72 -34 142 -98 176 -163 25 -46 27 -60 27 -165 0 -129 -17 -201 -102
-420 -89 -231 -179 -384 -303 -514 -165 -173 -346 -262 -555 -273 -161 -8
-274 28 -413 132 -233 175 -514 699 -676 1260 -36 126 -119 484 -112 485 0 0
84 2 186 4 259 6 507 42 549 81 44 39 28 105 -25 105 -28 0 -36 23 -36 104 1
123 63 232 172 303 36 23 82 54 103 68 115 78 100 213 -32 280 -44 22 -146 16
-211 -13 -121 -53 -246 -184 -292 -307 l-22 -60 -13 60 c-7 33 -14 105 -15
160 -3 166 38 248 168 338 135 94 164 135 164 234 -1 78 -38 146 -103 190
-141 94 -320 61 -468 -86 -101 -101 -162 -221 -231 -456 l-38 -130 4 395 c3
245 11 458 20 560 46 481 120 920 231 1359 19 77 35 147 35 155 0 17 -88 39
-244 61 -123 18 -417 18 -536 0z m-159 -4262 c-12 -55 -32 -140 -46 -189 -54
-185 -204 -529 -310 -709 -238 -405 -563 -547 -945 -413 -298 105 -546 382
-711 796 -36 89 -129 350 -129 360 0 4 54 -101 119 -233 128 -259 182 -346
286 -468 123 -144 312 -270 470 -312 92 -25 255 -30 345 -11 142 29 280 117
406 256 216 241 425 647 505 984 31 129 38 80 10 -61z m940 -176 c90 -249 273
-567 419 -730 191 -214 363 -296 600 -284 129 7 199 25 315 82 163 80 313 220
437 405 27 41 103 183 169 315 65 132 119 237 119 233 0 -10 -93 -271 -129
-360 -165 -414 -413 -691 -711 -796 -382 -134 -707 8 -945 413 -106 180 -256
524 -310 709 -33 115 -65 275 -64 318 0 21 11 -7 30 -80 16 -61 47 -163 70
-225z m-3394 -232 c4 -128 1 -198 -11 -285 -54 -369 -209 -705 -426 -920 -90
-89 -159 -136 -260 -177 -349 -140 -790 9 -1092 370 l-42 49 107 -80 c128 -96
198 -140 309 -192 260 -121 557 -117 776 12 78 46 238 207 301 303 177 270
289 612 310 943 4 78 6 154 4 170 l-3 27 11 -25 c6 -14 14 -101 16 -195z
m5791 190 c-10 -50 13 -311 37 -432 14 -68 41 -171 61 -231 43 -129 143 -337
215 -447 63 -96 223 -257 301 -303 219 -129 516 -133 776 -12 111 52 181 96
309 192 l107 80 -42 -49 c-302 -361 -743 -510 -1092 -370 -101 41 -170 88
-260 177 -216 213 -372 551 -426 920 -22 153 -13 500 13 500 3 0 3 -11 1 -25z
m-2889 -212 c20 -91 89 -298 138 -413 187 -440 502 -774 867 -920 301 -121
641 -113 905 19 189 96 382 284 581 568 l44 63 37 -103 c102 -283 242 -503
438 -689 295 -281 705 -424 1081 -378 313 39 615 206 791 438 l47 63 6 -53 c5
-46 35 -616 65 -1224 13 -271 -6 -393 -78 -498 -52 -75 -119 -117 -213 -135
-153 -28 -303 51 -377 197 -28 55 -60 187 -48 198 3 3 32 -16 64 -42 89 -73
153 -99 243 -99 63 0 82 4 120 27 113 66 123 231 17 281 -48 23 -79 21 -137
-8 -99 -50 -124 -29 -146 122 -19 123 -30 165 -61 228 -53 106 -144 168 -248
169 -81 1 -129 -27 -206 -121 -33 -41 -74 -83 -92 -93 -34 -21 -97 -26 -127
-10 -17 9 -17 13 -4 56 46 154 -13 339 -138 430 -171 126 -415 105 -552 -46
-20 -22 -50 -68 -67 -102 -31 -62 -35 -81 -48 -280 -1 -4 -12 -15 -26 -24 -22
-14 -26 -14 -54 2 -38 22 -94 96 -125 165 -76 166 -75 344 3 504 l30 59 -33
37 c-125 138 -191 288 -255 574 -7 29 -7 29 -40 -30 -71 -128 -195 -275 -310
-369 -65 -53 -192 -141 -214 -149 -7 -2 -4 -20 7 -48 24 -59 46 -178 46 -245
0 -111 -47 -271 -107 -367 -129 -207 -353 -328 -608 -328 -339 0 -618 229
-555 455 11 41 71 126 88 126 4 0 20 -20 35 -45 36 -56 122 -135 190 -173 156
-89 350 -83 503 16 108 70 173 166 174 255 0 85 -43 133 -119 131 -50 -2 -98
-28 -148 -83 l-43 -46 0 32 c0 46 -35 152 -68 204 -46 71 -110 128 -189 166
-164 79 -366 45 -504 -84 -56 -53 -63 -41 -21 37 l29 54 -71 56 c-220 175
-410 453 -498 727 -18 57 -35 103 -38 103 -3 0 -20 -46 -38 -103 -88 -274
-278 -552 -498 -727 l-71 -56 29 -54 c42 -78 35 -90 -21 -37 -138 129 -340
163 -504 84 -79 -38 -143 -95 -189 -166 -33 -52 -68 -158 -68 -204 l0 -32 -42
46 c-51 55 -99 81 -149 83 -76 2 -119 -46 -119 -131 1 -89 66 -185 174 -255
153 -99 347 -105 503 -16 68 38 154 117 190 173 15 25 31 45 35 45 17 0 77
-85 88 -126 63 -226 -216 -455 -555 -455 -332 0 -603 204 -691 521 -13 47 -18
98 -18 185 0 104 4 131 28 200 15 44 23 81 18 83 -21 7 -150 96 -213 148 -115
94 -239 241 -310 369 -33 59 -33 59 -40 30 -64 -286 -130 -436 -255 -574 l-33
-37 30 -59 c78 -160 79 -338 3 -504 -31 -69 -87 -143 -125 -165 -28 -16 -32
-16 -54 -2 -14 9 -25 20 -26 24 -13 199 -17 218 -48 280 -80 159 -224 242
-396 229 -218 -16 -374 -178 -375 -388 0 -42 6 -97 14 -123 13 -43 13 -47 -4
-56 -30 -16 -93 -11 -127 10 -18 10 -59 52 -92 93 -77 94 -125 122 -206 121
-104 -1 -195 -63 -248 -169 -31 -63 -42 -105 -61 -228 -22 -151 -47 -172 -146
-122 -58 29 -89 31 -137 8 -106 -50 -96 -215 17 -281 38 -23 57 -27 120 -27
90 0 154 26 243 99 32 26 61 45 64 42 12 -11 -20 -143 -48 -198 -121 -240
-444 -274 -590 -62 -72 105 -91 227 -78 498 30 608 60 1178 65 1224 l6 53 47
-63 c176 -232 478 -399 791 -438 112 -13 184 -12 310 5 290 39 559 170 776
377 193 185 332 405 433 685 l37 103 44 -63 c199 -284 392 -472 581 -568 264
-132 604 -140 905 -19 365 146 680 480 867 920 49 115 118 322 138 413 7 31
15 57 19 57 4 0 12 -26 19 -57z m26 -2271 c170 -333 479 -636 808 -792 l98
-46 -135 -53 c-219 -86 -417 -204 -591 -354 -47 -42 -81 -64 -83 -57 -8 24 20
125 55 199 47 99 143 196 242 244 82 39 77 47 -27 47 -47 0 -84 -8 -125 -24
l-57 -24 32 60 c18 33 55 87 81 120 27 33 46 62 43 65 -12 12 -140 -28 -182
-57 -53 -35 -53 -36 -3 85 16 38 29 74 29 79 0 12 -81 -2 -107 -20 -31 -20
-33 -18 -33 19 0 69 -65 247 -90 247 -25 0 -90 -178 -90 -247 0 -37 -2 -39
-33 -19 -26 18 -107 32 -107 20 0 -5 13 -41 29 -79 50 -121 50 -120 -3 -85
-42 29 -170 69 -182 57 -3 -3 16 -32 43 -65 26 -33 63 -87 81 -120 l32 -60
-57 24 c-41 16 -78 24 -125 24 -104 0 -109 -8 -27 -47 99 -48 195 -145 242
-244 35 -74 63 -175 55 -199 -2 -7 -36 15 -83 57 -174 150 -372 268 -591 354
l-135 53 98 46 c329 156 638 459 808 792 22 43 42 78 45 78 3 0 23 -35 45 -78z
m-2329 -38 c53 -117 118 -210 206 -296 45 -43 79 -79 77 -81 -2 -2 -22 -14
-44 -28 -60 -39 -120 -105 -150 -166 l-26 -54 -57 49 c-76 65 -141 108 -212
141 l-59 26 44 64 c24 34 62 100 83 144 38 79 92 232 92 263 0 28 12 13 46
-62z m4680 -147 c29 -68 88 -172 128 -227 l26 -34 -59 -27 c-72 -33 -137 -75
-213 -141 l-57 -49 -26 54 c-30 61 -90 127 -150 166 -22 14 -42 26 -44 28 -2
2 32 38 77 81 88 87 152 178 208 298 l36 79 24 -83 c13 -46 36 -111 50 -145z
m-6116 -352 c33 -65 35 -73 34 -164 -1 -92 -4 -107 -60 -292 -3 -11 7 -19 38
-28 77 -23 132 -58 191 -119 85 -90 132 -200 60 -143 -89 70 -212 108 -316 97
-54 -5 -64 -11 -120 -62 -118 -108 -250 -180 -375 -204 -122 -24 -282 4 -392
68 l-45 26 120 12 c79 8 150 23 207 42 355 119 581 438 566 798 l-3 83 30 -23
c17 -13 46 -54 65 -91z m7532 31 c-16 -382 240 -717 625 -816 43 -11 121 -23
173 -27 l95 -8 -45 -27 c-109 -64 -270 -92 -392 -68 -125 24 -257 96 -375 204
-56 51 -66 57 -120 62 -104 11 -227 -27 -315 -97 -73 -57 -26 53 59 143 59 61
114 96 191 119 31 9 41 17 38 28 -56 185 -59 200 -60 291 -1 84 2 102 27 154
15 32 43 74 63 92 19 19 36 34 37 34 1 0 0 -38 -1 -84z m-5037 -162 c-155
-137 -391 -234 -576 -238 -97 -1 -129 14 -129 63 0 65 61 101 170 101 159 0
398 41 515 89 66 26 67 26 20 -15z m2620 -29 c112 -27 259 -45 365 -45 109 0
170 -36 170 -101 0 -49 -32 -64 -129 -63 -186 4 -424 102 -576 238 l-40 36 55
-21 c30 -11 100 -31 155 -44z m-4485 -137 c24 -8 136 -12 350 -12 284 -1 318
-3 343 -19 30 -19 45 -62 30 -86 -22 -36 -64 -45 -203 -45 -192 1 -331 37
-494 128 -81 45 -89 55 -26 34z m6220 7 c0 -9 -135 -79 -206 -107 -120 -46
-205 -61 -354 -62 -139 0 -181 9 -203 45 -15 24 0 67 30 86 25 16 59 18 343
19 198 0 326 5 345 11 35 13 45 15 45 8z m-4889 -828 c21 -14 41 -41 53 -69
17 -42 18 -52 7 -89 -50 -168 -291 -136 -291 38 0 112 137 183 231 120z m3677
3 c112 -68 87 -234 -40 -268 -77 -21 -154 25 -179 107 -11 37 -10 47 7 89 36
86 134 119 212 72z m-4277 -93 c94 -62 88 -193 -10 -251 -90 -52 -207 10 -218
115 -8 87 58 159 147 159 32 0 58 -7 81 -23z m4880 0 c94 -62 88 -193 -10
-251 -90 -52 -207 10 -218 115 -8 87 58 159 147 159 32 0 58 -7 81 -23z
m-6813 -147 c64 -39 91 -125 58 -188 -65 -125 -236 -109 -277 26 -36 122 108
229 219 162z m8744 -5 c51 -35 76 -100 59 -157 -50 -167 -291 -135 -291 39 0
113 136 183 232 118z m-5040 -117 c110 -33 130 -154 38 -231 -38 -33 -41 -33
-355 -52 -459 -28 -871 -71 -1405 -146 -827 -116 -1261 -215 -1695 -386 -163
-64 -195 -66 -252 -11 -85 80 -84 191 1 266 43 38 71 50 229 102 604 201 1842
388 2967 450 107 6 218 12 245 13 122 8 190 6 227 -5z m1743 -14 c1116 -68
2285 -249 2872 -444 158 -52 186 -64 229 -102 85 -75 86 -186 1 -266 -57 -55
-89 -53 -252 11 -434 171 -868 270 -1695 386 -534 75 -946 118 -1405 146 -143
8 -274 18 -292 21 -64 10 -123 81 -123 148 0 43 44 98 92 114 38 13 205 9 573
-14z m-80 -1044 c1783 -66 2956 -255 3069 -495 39 -82 -8 -152 -148 -220 -484
-235 -2104 -395 -3996 -395 -1892 0 -3512 160 -3996 395 -140 68 -187 138
-148 220 125 264 1527 464 3574 509 261 6 1369 -4 1645 -14z"/>
<path d="M9405 5504 c-1237 -26 -2296 -115 -2905 -245 -52 -11 -110 -23 -128
-26 -18 -3 -31 -7 -29 -9 18 -18 839 -103 1332 -139 766 -55 1270 -70 2325
-70 1055 0 1559 15 2325 70 493 36 1314 121 1332 139 2 2 -11 6 -29 9 -18 3
-76 15 -128 26 -520 111 -1364 192 -2400 231 -269 10 -1421 20 -1695 14z"/>
<path d="M6077 5144 c-82 -34 -136 -71 -149 -100 -53 -115 379 -247 1132 -348
464 -62 1020 -105 1775 -138 389 -17 1941 -17 2330 0 1114 48 1867 126 2417
248 344 76 524 164 490 238 -14 30 -68 66 -153 101 l-64 25 -175 -29 c-724
-124 -1579 -201 -2690 -242 -627 -24 -1791 -14 -2490 21 -818 42 -1631 124
-2208 225 -79 14 -146 25 -150 24 -4 0 -33 -12 -65 -25z"/>
<path d="M8414 11678 c-61 -82 -111 -188 -125 -263 -13 -71 -6 -178 15 -229 8
-20 13 -36 12 -36 -2 0 -23 9 -47 20 -82 37 -176 15 -199 -46 -28 -72 1 -156
78 -228 l31 -29 49 45 c57 53 104 79 187 103 103 30 246 4 330 -59 l33 -26 36
48 c19 27 40 61 46 76 23 61 3 143 -39 166 -35 18 -102 12 -147 -15 l-42 -25
5 99 c7 119 -13 224 -62 316 -34 66 -92 145 -107 145 -4 0 -29 -28 -54 -62z"/>
<path d="M11490 11699 c-92 -115 -136 -260 -127 -420 l5 -99 -42 25 c-45 27
-112 33 -147 15 -42 -23 -62 -105 -39 -166 6 -15 27 -49 46 -76 l36 -48 33 26
c84 63 227 89 330 59 83 -24 130 -50 187 -103 l49 -45 31 29 c77 72 106 156
78 228 -23 61 -117 83 -199 46 -24 -11 -45 -20 -47 -20 -1 0 4 16 12 36 21 51
28 158 15 229 -6 33 -26 92 -45 130 -34 71 -119 195 -134 195 -5 0 -23 -18
-42 -41z"/>
<path d="M5860 11043 c-27 -74 -34 -106 -38 -199 -5 -131 9 -194 63 -274 l35
-52 -49 7 c-104 14 -181 -36 -181 -118 0 -71 46 -129 136 -175 l42 -21 35 58
c107 173 308 249 488 186 l37 -13 21 64 c25 77 26 101 5 154 -35 88 -130 93
-208 11 -34 -35 -46 -32 -46 13 0 77 -59 214 -130 304 -37 48 -151 142 -170
142 -5 0 -23 -39 -40 -87z"/>
<path d="M14032 11085 c-70 -51 -131 -124 -172 -204 -34 -68 -60 -153 -60
-197 0 -45 -12 -48 -46 -13 -78 82 -173 77 -208 -11 -21 -53 -20 -77 5 -154
l21 -64 37 13 c180 63 381 -13 488 -186 l35 -58 42 21 c90 46 136 104 136 175
0 81 -78 132 -182 119 l-47 -7 35 52 c53 79 67 143 62 273 -4 93 -11 125 -38
199 -17 48 -35 87 -40 87 -4 0 -35 -20 -68 -45z"/>
</g>
</svg>
