<?xml version="1.0" standalone="no"?>
<!DOCTYPE svg PUBLIC "-//W3C//DTD SVG 20010904//EN"
 "http://www.w3.org/TR/2001/REC-SVG-20010904/DTD/svg10.dtd">
<svg version="1.0" xmlns="http://www.w3.org/2000/svg"
 width="565.000000pt" height="543.000000pt" viewBox="0 0 565.000000 543.000000"
 preserveAspectRatio="xMidYMid meet">
<metadata>
Created by potrace 1.16, written by Peter Selinger 2001-2019
</metadata>
<g transform="translate(0.000000,543.000000) scale(0.100000,-0.100000)"
fill="#000000" stroke="none">
<path d="M2618 5154 c-101 -24 -180 -73 -199 -123 -7 -16 -2 -80 16 -205 14
-100 28 -191 30 -203 4 -18 -5 -27 -56 -54 -33 -18 -73 -48 -87 -68 -27 -34
-27 -35 -27 -217 l0 -182 33 -41 34 -42 -4 -367 c-5 -417 -10 -450 -90 -604
-50 -97 -121 -176 -248 -277 -178 -140 -307 -295 -397 -476 -254 -507 -157
-1119 241 -1520 187 -188 393 -304 646 -364 529 -126 1096 97 1400 551 153
229 224 464 224 743 -1 437 -185 799 -549 1077 -128 97 -224 220 -272 346 -47
126 -53 187 -53 556 0 328 1 344 20 361 42 38 52 91 48 262 -3 155 -4 161 -30
194 -14 20 -54 50 -87 68 -59 31 -61 34 -56 64 32 189 54 378 46 398 -19 51
-98 99 -203 124 -80 19 -302 19 -380 -1z m389 -48 c61 -16 132 -54 146 -77 16
-26 -1 -68 -36 -89 -125 -77 -387 -91 -554 -29 -174 66 -119 167 113 209 67
12 267 4 331 -14z m-489 -225 c135 -68 449 -68 585 1 22 11 40 18 42 16 7 -7
-68 -484 -78 -497 -39 -48 -211 -79 -337 -62 -84 11 -156 37 -177 63 -7 8 -26
109 -43 224 -16 115 -32 224 -35 242 -7 37 -6 38 43 13z m-30 -415 c13 -83 40
-116 121 -148 49 -20 74 -22 201 -22 127 0 152 2 201 22 79 32 107 65 120 143
16 95 13 92 58 70 45 -24 91 -74 91 -102 0 -114 -322 -205 -600 -169 -193 24
-339 96 -340 167 0 12 12 35 26 53 28 33 95 73 105 62 3 -4 11 -38 17 -76z
m37 -223 c85 -26 101 -27 285 -27 184 0 200 1 285 27 50 15 111 41 138 57 l47
29 0 -106 0 -105 -37 -38 c-71 -70 -230 -111 -433 -111 -200 0 -363 42 -432
111 l-38 38 0 105 0 106 48 -29 c26 -16 88 -42 137 -57z m51 -299 c118 -28
367 -26 487 4 48 12 101 29 117 37 l30 16 0 -268 c0 -305 11 -457 40 -558 46
-163 137 -290 295 -417 143 -115 232 -204 306 -308 100 -140 165 -282 209
-460 27 -109 38 -341 21 -461 -16 -113 -20 -118 -62 -87 -46 34 -96 52 -211
77 -123 26 -148 27 -148 2 0 -15 16 -21 93 -36 238 -46 316 -100 212 -146
-101 -45 -270 -76 -575 -106 -221 -22 -879 -25 -1105 -5 -405 35 -675 96 -675
151 0 24 27 43 95 66 61 20 211 52 285 60 l55 6 -37 -20 c-33 -19 -68 -55 -68
-72 0 -3 12 -18 26 -33 49 -48 216 -87 464 -107 201 -16 647 -13 825 6 357 37
506 114 375 193 l-28 17 119 145 c65 80 118 152 119 160 0 29 -99 315 -112
323 -17 9 -448 58 -459 51 -4 -2 -23 -30 -41 -62 l-33 -57 -10 234 -10 234
-209 183 c-115 101 -214 184 -220 184 -7 0 -87 -107 -179 -239 -117 -167 -167
-247 -167 -266 0 -15 9 -99 21 -186 11 -87 19 -167 17 -178 -2 -15 -20 -5
-101 60 -98 78 -111 86 -121 71 -5 -9 -116 -421 -116 -433 0 -11 239 -373 249
-377 4 -1 13 4 20 12 9 11 -8 43 -87 162 -54 82 -101 155 -106 162 -5 9 10 12
67 12 l74 0 119 -177 c65 -97 125 -179 131 -181 39 -11 15 40 -93 202 l-117
176 28 30 c16 17 34 30 39 30 6 0 59 -46 118 -103 105 -100 108 -104 159 -219
39 -89 56 -118 70 -118 11 0 19 6 19 14 0 22 -251 569 -274 597 -18 21 -25 56
-45 218 -13 106 -21 194 -18 197 3 3 43 -10 88 -29 l84 -35 12 -58 c7 -33 40
-214 73 -404 81 -462 79 -450 96 -450 8 0 17 6 20 14 3 8 -29 205 -70 438 -42
233 -76 431 -76 440 0 11 13 21 38 27 69 19 194 43 198 38 6 -5 54 -574 54
-635 0 -34 -12 -63 -59 -144 -57 -96 -66 -132 -33 -126 8 2 98 149 200 327
133 232 187 319 193 308 5 -8 14 -46 20 -83 l12 -69 -153 -240 c-83 -132 -163
-259 -177 -282 -24 -42 -24 -63 0 -63 7 0 91 124 186 275 145 230 176 273 190
265 9 -5 38 -29 64 -52 l48 -43 -136 -199 c-74 -110 -134 -205 -132 -210 12
-37 42 -4 171 187 l138 204 82 7 c44 3 103 6 129 6 60 0 65 10 -107 -199 -125
-151 -148 -191 -111 -191 7 0 29 20 49 44 l36 45 26 -24 c14 -13 23 -28 20
-34 -15 -24 -178 -60 -381 -83 -148 -17 -712 -17 -870 0 -227 25 -392 66 -383
94 3 7 36 24 74 38 89 32 90 33 89 72 l0 33 -65 -3 c-85 -4 -315 -47 -394 -73
-33 -11 -76 -32 -95 -46 -40 -31 -46 -24 -58 57 -13 90 -9 368 6 445 47 239
171 475 339 648 37 38 115 107 175 154 161 127 249 250 308 428 22 67 23 85
26 435 2 201 6 371 8 377 3 10 15 8 48 -6 24 -10 79 -27 123 -37z m194 -1200
c0 -8 29 -89 65 -181 36 -91 64 -167 63 -168 -2 -2 -43 -12 -93 -23 -49 -11
-98 -23 -107 -27 -24 -9 -24 -13 17 214 19 107 35 198 35 203 0 5 5 6 10 3 6
-3 10 -13 10 -21z m198 -99 c78 -69 142 -129 142 -134 0 -13 -152 -103 -160
-94 -4 4 -26 58 -49 118 -23 61 -53 138 -67 173 -13 34 -20 62 -16 62 4 0 71
-57 150 -125z m-298 -87 c-17 -101 -34 -190 -38 -200 -6 -14 -15 -13 -82 14
-41 16 -79 33 -83 38 -5 4 44 83 108 174 65 92 120 165 122 162 3 -3 -9 -87
-27 -188z m473 -340 l5 -243 -60 -107 c-60 -108 -78 -128 -78 -85 0 12 -9 130
-20 262 -28 347 -34 311 58 368 42 26 79 47 83 47 3 0 9 -109 12 -242z m350
-109 c70 -7 127 -15 127 -18 0 -4 -61 -37 -135 -74 -93 -46 -137 -63 -140 -55
-5 13 -35 155 -35 164 0 3 12 3 28 0 15 -3 84 -11 155 -17z m-1108 -125 l95
-76 -29 -37 c-43 -53 -100 -106 -107 -98 -11 11 -71 287 -62 287 5 0 51 -34
103 -76z m1359 -37 c16 -50 30 -97 33 -104 5 -14 -29 -20 -145 -27 -65 -3 -82
-1 -79 8 8 20 150 216 156 216 3 0 19 -42 35 -93z m-140 31 c-100 -138 -115
-158 -122 -158 -11 1 -106 89 -101 94 11 11 235 116 247 116 8 0 -2 -21 -24
-52z m-1364 18 c0 -13 11 -72 25 -130 14 -58 25 -110 25 -114 0 -5 -30 -8 -67
-6 -38 1 -68 6 -67 11 1 4 16 65 35 135 32 122 49 157 49 104z m307 -211 c19
-42 34 -77 32 -79 -2 -2 -31 20 -64 49 l-60 54 24 25 c14 14 26 26 28 26 2 0
20 -34 40 -75z m-767 -530 c218 -57 559 -86 1030 -86 580 0 995 48 1173 135
26 12 47 19 47 14 0 -4 -16 -47 -35 -95 -163 -405 -538 -707 -964 -778 -124
-21 -394 -16 -504 9 -310 71 -606 276 -782 541 -57 86 -142 256 -151 305 l-6
28 48 -24 c27 -13 92 -35 144 -49z"/>
<path d="M2834 3538 c-5 -7 -18 -31 -29 -53 -15 -29 -34 -47 -70 -65 -76 -38
-79 -50 -17 -76 50 -20 72 -42 94 -92 22 -50 47 -53 59 -8 11 39 46 75 97 98
52 23 53 48 3 62 -42 12 -87 57 -96 95 -8 37 -30 58 -41 39z m44 -128 c17 -16
32 -32 32 -36 0 -7 -60 -64 -67 -64 -2 0 -20 15 -39 34 l-36 35 34 30 c18 17
35 30 38 30 3 0 20 -13 38 -29z"/>
<path d="M3525 2622 c-3 -3 -14 -25 -25 -49 -15 -34 -29 -47 -67 -65 -26 -13
-48 -29 -48 -36 0 -7 20 -23 45 -36 34 -16 51 -33 69 -69 27 -54 55 -63 66
-19 9 37 51 79 92 93 48 15 45 45 -6 59 -44 12 -76 45 -86 90 -6 28 -27 45
-40 32z m43 -184 l-31 -29 -31 28 c-17 15 -32 29 -34 30 -2 1 11 15 30 32 l33
30 32 -31 32 -31 -31 -29z"/>
<path d="M1883 2513 c-11 -23 -34 -46 -58 -60 -22 -12 -40 -27 -40 -33 0 -6
18 -21 40 -33 24 -14 47 -37 58 -60 24 -47 41 -47 64 1 11 22 33 45 55 57 48
25 48 46 0 66 -34 14 -51 35 -66 82 -9 28 -33 19 -53 -20z m67 -97 c0 -6 -9
-17 -20 -24 -17 -10 -24 -9 -42 7 l-21 20 24 20 c22 18 26 18 42 4 9 -9 17
-21 17 -27z"/>
<path d="M1894 1135 c-21 -54 138 -265 271 -361 114 -81 262 -141 288 -115 16
16 -7 35 -68 55 -167 54 -343 211 -430 384 -26 51 -50 66 -61 37z"/>
<path d="M271 2802 c-19 -4 -36 -12 -38 -18 -6 -17 69 -125 137 -197 34 -37
96 -90 137 -117 77 -52 207 -100 268 -100 30 0 39 -6 62 -42 81 -129 150 -390
189 -723 l7 -60 -84 79 c-64 60 -88 91 -105 134 -51 123 -125 175 -261 181
-63 2 -99 -2 -150 -18 -78 -23 -163 -73 -163 -96 0 -20 106 -97 194 -140 131
-64 224 -78 327 -49 l58 16 42 -33 c52 -41 169 -177 169 -197 0 -35 76 -237
131 -347 109 -219 329 -492 329 -409 0 8 -31 52 -69 97 -123 147 -199 270
-270 437 -56 134 -88 257 -116 460 -14 96 -30 199 -36 228 l-11 53 42 45 c23
25 54 72 70 106 16 34 45 77 64 97 99 102 102 250 10 435 -64 126 -115 187
-134 157 -14 -24 -33 -251 -28 -347 4 -75 12 -116 33 -169 40 -105 40 -107 5
-174 -37 -69 -67 -102 -74 -80 -55 179 -85 260 -120 322 -24 42 -46 95 -49
120 -23 166 -135 286 -308 331 -66 17 -211 27 -258 18z m284 -72 c114 -43 188
-117 220 -220 7 -23 5 -22 -34 13 -45 41 -53 44 -70 23 -10 -11 -2 -24 40 -65
29 -28 49 -54 46 -57 -11 -11 -141 35 -202 71 -85 51 -255 222 -255 257 0 19
188 3 255 -22z m589 -92 c69 -125 95 -261 65 -347 -17 -47 -24 -38 -24 32 0
92 -12 137 -36 137 -18 0 -19 -5 -13 -100 8 -116 -5 -133 -33 -42 -12 38 -17
92 -18 162 0 97 11 220 20 220 2 0 20 -28 39 -62z m-496 -750 c33 -8 60 -25
94 -59 49 -49 65 -88 31 -74 -56 24 -91 34 -116 35 -24 0 -28 -4 -25 -22 2
-17 12 -24 41 -30 20 -4 56 -17 80 -29 41 -22 41 -22 17 -31 -42 -16 -159 -3
-227 24 -62 25 -199 103 -208 118 -7 11 78 51 140 66 65 16 115 17 173 2z"/>
<path d="M5174 2799 c-82 -10 -158 -33 -208 -63 -92 -54 -169 -169 -182 -272
-4 -30 -26 -85 -55 -139 -40 -75 -61 -133 -115 -314 -7 -22 -37 11 -74 80 -35
67 -35 69 5 174 34 89 43 221 25 384 -14 129 -20 147 -44 138 -24 -10 -102
-136 -138 -224 -63 -156 -48 -290 43 -379 21 -21 39 -43 39 -50 0 -22 53 -110
92 -152 25 -27 37 -49 34 -60 -3 -9 -19 -113 -36 -230 -60 -417 -157 -647
-392 -929 -66 -79 -82 -113 -55 -113 31 0 177 181 262 325 66 112 116 225 156
352 17 54 36 108 43 120 18 35 102 128 151 169 l45 37 58 -17 c103 -29 194
-15 328 49 86 42 194 119 194 140 0 23 -85 73 -163 96 -51 16 -87 20 -150 18
-136 -6 -210 -58 -261 -181 -17 -43 -41 -74 -104 -133 -95 -90 -92 -96 -62
101 41 277 96 473 163 585 32 53 32 53 102 65 143 24 267 94 376 211 64 70
141 181 136 197 -8 23 -104 30 -213 15z m146 -46 c0 -3 -19 -30 -41 -60 -54
-70 -157 -165 -215 -199 -55 -32 -166 -74 -197 -74 -18 0 -13 8 32 54 36 36
52 60 48 70 -9 24 -24 20 -65 -20 -20 -19 -38 -30 -40 -24 -8 22 50 120 94
159 42 37 149 84 214 94 43 7 170 7 170 0z m-799 -85 c0 -13 4 -59 9 -103 12
-114 -14 -305 -42 -305 -8 0 -9 30 -5 101 5 98 5 100 -16 97 -27 -4 -40 -52
-35 -135 2 -35 0 -63 -4 -63 -4 0 -15 25 -24 56 -25 89 -3 194 68 322 32 56
48 66 49 30z m674 -798 c73 -27 97 -47 75 -61 -163 -103 -224 -129 -322 -136
-136 -11 -150 18 -28 57 56 18 70 27 70 43 0 18 -5 19 -45 14 -25 -4 -63 -16
-85 -27 -22 -11 -40 -16 -40 -12 0 14 49 83 73 103 61 52 190 60 302 19z"/>
</g>
</svg>
