<?xml version="1.0" standalone="no"?>
<!DOCTYPE svg PUBLIC "-//W3C//DTD SVG 20010904//EN"
 "http://www.w3.org/TR/2001/REC-SVG-20010904/DTD/svg10.dtd">
<svg version="1.0" xmlns="http://www.w3.org/2000/svg"
 width="844.000000pt" height="569.000000pt" viewBox="0 0 844.000000 569.000000"
 preserveAspectRatio="xMidYMid meet">
<metadata>
Created by potrace 1.16, written by Peter Selinger 2001-2019
</metadata>
<g transform="translate(0.000000,569.000000) scale(0.100000,-0.100000)"
fill="#eee" stroke="none">
<path d="M4456 5105 c-4 -28 -16 -69 -26 -93 -22 -49 -70 -76 -157 -88 -64 -8
-61 -19 8 -28 111 -15 146 -48 169 -157 7 -33 15 -58 17 -55 2 2 11 32 19 67
22 96 64 131 167 144 31 4 59 10 62 14 2 4 -30 13 -71 20 -101 17 -138 48
-154 129 -18 94 -26 105 -34 47z"/>
<path d="M3870 4955 c0 -24 -38 -55 -67 -56 l-28 -1 30 -10 c40 -14 63 -35 67
-62 3 -19 5 -18 18 9 9 16 31 38 50 47 26 13 30 17 15 18 -30 0 -65 28 -65 51
0 10 -4 19 -10 19 -5 0 -10 -7 -10 -15z"/>
<path d="M3517 4629 c-25 -109 -63 -141 -181 -155 -67 -8 -65 -19 6 -28 121
-16 155 -48 179 -171 l12 -60 17 70 c9 39 22 81 29 93 16 30 80 59 149 68 71
9 73 20 5 28 -72 8 -138 37 -154 68 -7 12 -20 55 -29 93 l-16 70 -17 -76z"/>
<path d="M4156 4638 c-44 -70 -1116 -1952 -1116 -1961 0 -11 155 -315 727
-1427 217 -421 398 -769 403 -774 14 -14 39 25 149 240 156 305 344 670 421
819 37 72 161 312 275 535 114 223 230 447 256 498 27 52 49 100 49 107 0 12
-1099 1943 -1122 1973 -15 18 -26 15 -42 -10z m4 -1233 c0 -619 -3 -1125 -7
-1125 -5 0 -81 27 -169 61 l-161 62 -7 76 c-3 42 -6 388 -6 770 l0 694 167
294 c92 161 171 293 175 293 5 0 8 -506 8 -1125z m143 973 l87 -152 -86 -143
c-48 -79 -91 -143 -95 -143 -5 0 -9 133 -9 295 0 162 3 295 8 295 4 0 47 -68
95 -152z m542 -947 c224 -393 410 -722 412 -731 4 -13 -17 -25 -94 -54 -262
-101 -701 -271 -830 -322 -62 -24 -117 -44 -123 -44 -7 0 -10 248 -10 774 l0
774 96 159 c118 193 114 188 129 171 7 -7 196 -334 420 -727z m-1076 -518 c0
-266 -2 -483 -6 -483 -9 0 -158 56 -248 93 l-60 25 -3 383 -2 383 117 205 c64
114 133 233 152 266 l36 60 6 -225 c4 -124 7 -442 8 -707z m-372 -340 c-7 -7
-297 111 -297 120 0 9 116 217 239 427 l56 95 3 -319 c1 -175 1 -321 -1 -323z
m20 -58 c164 -63 313 -123 332 -133 29 -15 54 -58 222 -387 l188 -370 1 -510
c0 -432 -2 -507 -14 -495 -7 8 -107 197 -221 420 -114 223 -243 473 -285 555
-342 660 -532 1035 -526 1035 3 0 139 -52 303 -115z m1826 99 c-3 -8 -145
-286 -315 -617 l-309 -602 -202 -197 c-111 -108 -205 -194 -209 -191 -5 2 -8
276 -8 608 0 472 3 606 13 612 12 8 238 97 477 188 63 25 212 82 330 129 118
47 218 85 222 85 4 1 5 -6 1 -15z m-1231 -331 l148 -57 0 -238 c0 -131 -4
-238 -8 -238 -7 0 -302 570 -302 584 0 11 13 7 162 -51z m408 -1273 c-61 -118
-132 -257 -158 -307 -26 -51 -50 -93 -54 -93 -5 0 -8 71 -8 158 l-1 157 163
157 c90 86 164 154 166 150 1 -4 -47 -104 -108 -222z"/>
<path d="M5525 4558 c-8 -41 -16 -50 -60 -66 -23 -8 -25 -11 -9 -11 30 -1 57
-25 70 -62 10 -28 13 -30 13 -11 1 29 43 72 73 73 19 1 17 2 -8 10 -38 11 -54
29 -64 72 l-7 32 -8 -37z"/>
<path d="M4797 4528 c-9 -36 -33 -58 -63 -58 -33 0 -23 -16 15 -23 22 -5 33
-15 42 -42 l13 -35 11 33 c7 23 19 35 42 42 42 14 52 25 22 25 -34 0 -52 14
-65 52 l-11 33 -6 -27z"/>
<path d="M5169 4359 c-20 -112 -47 -135 -184 -160 l-70 -13 89 -17 c80 -14 93
-20 122 -51 25 -28 34 -50 44 -107 6 -39 13 -71 15 -71 2 0 9 26 15 58 25 126
44 147 166 171 96 19 98 17 -30 42 -83 16 -109 44 -131 142 -9 42 -18 77 -20
77 -2 0 -9 -32 -16 -71z"/>
<path d="M2915 4335 c-13 -40 -22 -50 -53 -60 -37 -11 -42 -25 -9 -25 27 0 57
-28 57 -53 0 -9 5 -19 10 -22 6 -3 10 5 10 19 0 27 32 56 62 56 29 0 20 15
-14 25 -25 8 -36 18 -45 45 -9 30 -12 32 -18 15z"/>
<path d="M1485 4218 c34 -166 169 -278 335 -280 58 0 70 -4 123 -40 84 -57
193 -170 261 -271 33 -48 58 -89 55 -91 -2 -3 -30 4 -61 15 -39 13 -111 23
-215 30 -151 10 -302 37 -328 59 -7 6 -15 23 -18 39 -8 36 -58 95 -110 128
-21 13 -99 49 -173 79 -136 55 -267 116 -291 136 -21 17 -25 4 -12 -48 57
-239 271 -402 502 -380 53 5 80 2 127 -14 37 -13 111 -24 193 -31 292 -22 363
-41 432 -116 48 -52 110 -198 97 -227 -17 -38 -61 -83 -98 -101 -77 -36 -222
-36 -383 0 -65 15 -69 18 -87 56 -22 49 -89 110 -141 128 -25 9 -112 15 -256
18 l-219 5 24 -42 c104 -188 351 -286 550 -219 l62 21 134 -23 c212 -35 329
-14 408 73 19 22 37 38 40 36 6 -7 67 -179 149 -423 94 -278 161 -461 226
-615 27 -63 49 -118 49 -123 0 -4 -14 0 -31 9 -52 26 -105 43 -247 75 -74 17
-155 40 -181 51 -51 21 -101 64 -101 85 0 24 -31 77 -69 116 -55 59 -139 100
-331 162 -96 32 -201 71 -234 87 -32 16 -60 28 -62 25 -2 -2 21 -53 51 -113
146 -288 329 -405 570 -364 66 11 77 11 93 -2 35 -31 86 -49 249 -89 264 -63
314 -94 410 -258 117 -201 253 -384 279 -374 22 8 17 21 -34 87 -192 242 -352
558 -504 991 -56 159 -60 174 -55 240 3 57 14 93 60 195 73 164 87 217 87 317
0 79 2 85 35 132 19 26 42 68 51 92 19 54 21 153 4 205 -34 106 -114 219 -210
299 l-45 38 -3 -59 c-1 -33 -9 -108 -17 -167 -21 -152 -19 -281 4 -333 10 -23
46 -64 80 -95 61 -53 61 -53 61 -109 0 -76 -22 -155 -80 -287 -28 -61 -55
-124 -61 -140 -10 -26 -16 -13 -83 177 -120 339 -188 486 -297 650 -69 104
-207 249 -281 295 -36 23 -48 36 -48 55 0 14 -9 44 -19 67 -25 55 -75 82 -231
128 -69 21 -137 44 -152 51 -38 20 -40 18 -33 -18z"/>
<path d="M6780 4226 c-76 -23 -177 -70 -217 -103 -34 -28 -72 -84 -83 -123 -8
-26 -23 -44 -63 -70 -80 -53 -205 -185 -276 -290 -108 -162 -207 -385 -331
-753 -18 -53 -35 -95 -38 -93 -9 10 -105 234 -124 291 -12 36 -20 91 -21 137
l-2 77 61 55 c66 59 97 116 109 199 6 41 -12 219 -42 417 l-5 35 -68 -74
c-181 -197 -229 -412 -125 -565 22 -32 25 -48 25 -119 0 -106 17 -171 86 -324
57 -128 77 -211 64 -267 -4 -17 -29 -92 -55 -166 -151 -433 -310 -744 -507
-997 -52 -68 -56 -78 -33 -87 25 -9 183 204 281 379 84 153 149 193 409 255
114 28 188 51 224 72 52 29 57 30 109 19 246 -49 447 84 593 394 21 44 36 81
34 83 -1 2 -29 -10 -61 -26 -33 -16 -138 -55 -234 -87 -193 -63 -276 -104
-331 -162 -39 -40 -69 -92 -69 -117 0 -25 -51 -65 -110 -87 -30 -11 -112 -34
-181 -50 -134 -31 -187 -47 -238 -73 -17 -9 -31 -12 -31 -8 0 5 20 54 44 108
58 133 137 346 250 681 139 411 196 556 249 631 58 81 217 133 312 102 27 -9
75 -49 158 -131 154 -153 187 -170 346 -179 64 -4 129 -12 144 -18 96 -40 259
11 415 128 109 82 158 127 150 135 -14 15 -350 -13 -418 -34 -84 -26 -149 -69
-180 -120 -29 -47 -57 -56 -149 -49 -92 7 -151 42 -282 172 l-116 115 41 5
c22 3 68 8 101 12 33 3 86 14 117 25 36 12 85 19 131 19 103 0 176 37 277 139
60 61 179 215 224 288 10 17 -29 9 -174 -34 -208 -62 -344 -151 -394 -258 -15
-30 -26 -61 -26 -69 0 -41 -119 -70 -348 -86 -100 -6 -173 -17 -210 -29 -31
-11 -58 -18 -60 -16 -8 7 87 142 144 206 111 124 213 199 273 199 50 0 115 29
169 75 36 32 126 143 167 208 17 27 17 27 -6 26 -13 -1 -58 -11 -99 -23z"/>
<path d="M3280 3986 c-12 -23 -26 -33 -60 -42 -43 -11 -43 -12 -12 -13 36 -1
82 -38 82 -68 1 -11 6 -6 15 14 15 34 41 52 77 54 16 1 12 5 -17 13 -28 9 -45
22 -55 42 l-16 30 -14 -30z"/>
</g>
</svg>
