<svg width="218" height="218" viewBox="0 0 218 218" fill="none" xmlns="http://www.w3.org/2000/svg">
<path d="M156.688 193.703C156.696 195.234 156.158 196.717 155.171 197.887C154.183 199.056 152.812 199.836 151.301 200.085C142.052 201.561 116.599 204.375 109 204.375C101.401 204.375 75.948 201.561 66.6987 200.085C65.1886 199.836 63.8168 199.056 62.8296 197.887C61.8424 196.717 61.3045 195.234 61.3126 193.703V38.959H156.688V193.703Z" fill="#ED3C8D"/>
<path d="M146.469 183.698C146.469 186.878 144.758 189.585 142.429 190.08C135.492 191.555 114.7 194.37 109 194.37C103.3 194.37 82.5079 191.556 75.5706 190.08C73.242 189.585 71.5312 186.878 71.5312 183.698V38.959H146.469V183.698Z" fill="#333333" fill-opacity="0.5"/>
<path d="M177.125 31.7054C183.429 31.7054 183.437 22.1636 177.125 22.1636H40.8748C34.5712 22.1636 34.5631 31.7054 40.8748 31.7054H177.125Z" fill="#C5C5DD"/>
<path d="M76.2148 46.0176V17.5294C76.2148 14.7146 80.4727 14.7107 80.4727 17.5294V46.0176C80.4727 48.8324 76.2148 48.8363 76.2148 46.0176ZM137.527 46.0176V17.5294C137.527 14.7146 141.785 14.7107 141.785 17.5294V46.0176C141.785 48.8324 137.527 48.8363 137.527 46.0176Z" fill="#FFE05F"/>
<g clip-path="url(#clip0_33_271)">
<path d="M138.637 138.904C141.378 134.157 137.002 126.499 128.863 121.8C120.724 117.101 111.904 117.14 109.163 121.887C106.422 126.635 110.798 134.293 118.937 138.992C127.076 143.691 135.896 143.652 138.637 138.904Z" fill="#ED3C8D"/>
<path d="M128.063 142.287C124.692 142.354 121.362 141.536 118.407 139.913C112.04 136.238 108.645 128.258 108.106 121.979C108.087 121.762 108.135 121.545 108.244 121.357C108.352 121.168 108.516 121.017 108.714 120.925C114.422 118.256 123.028 117.204 129.395 120.879C135.762 124.556 139.157 132.536 139.696 138.813C139.715 139.03 139.667 139.247 139.558 139.436C139.449 139.624 139.285 139.775 139.088 139.867C135.627 141.449 131.868 142.274 128.063 142.287ZM110.301 122.544C110.98 127.992 114.047 134.943 119.469 138.072C124.927 141.225 132.311 140.456 137.501 138.249C136.822 132.8 133.755 125.851 128.332 122.72C122.875 119.57 115.489 120.338 110.301 122.544Z" fill="#2C2B2D"/>
<path d="M99.0624 138.992C107.202 134.293 111.578 126.635 108.837 121.887C106.096 117.14 97.2757 117.101 89.1366 121.8C80.9975 126.499 76.6214 134.157 79.3624 138.904C82.1033 143.652 90.9233 143.691 99.0624 138.992Z" fill="#ED3C8D"/>
<path d="M89.9373 142.287C86.1318 142.274 82.3729 141.449 78.9118 139.867C78.7147 139.775 78.5507 139.624 78.442 139.436C78.3332 139.247 78.285 139.03 78.3038 138.813C78.8433 132.536 82.2383 124.556 88.605 120.879C94.9738 117.206 103.578 118.256 109.286 120.925C109.484 121.017 109.648 121.168 109.756 121.357C109.865 121.545 109.913 121.762 109.894 121.979C109.355 128.258 105.96 136.238 99.5932 139.913C96.6378 141.536 93.3082 142.354 89.9373 142.287ZM80.4993 138.249C85.6915 140.456 93.0751 141.226 98.5307 138.072C103.953 134.943 107.02 127.992 107.699 122.544C102.509 120.338 95.1274 119.568 89.6675 122.72C84.2451 125.85 81.1779 132.8 80.4993 138.249Z" fill="#2C2B2D"/>
<path d="M94.142 129.671C103.54 129.671 111.159 125.227 111.159 119.745C111.159 114.263 103.54 109.819 94.142 109.819C84.7438 109.819 77.125 114.263 77.125 119.745C77.125 125.227 84.7438 129.671 94.142 129.671Z" fill="#ED3C8D"/>
<path d="M94.1417 130.734C86.7913 130.734 79.8623 125.521 76.2534 120.353C76.1288 120.175 76.062 119.963 76.062 119.745C76.062 119.528 76.1288 119.316 76.2534 119.137C79.8622 113.97 86.7913 108.756 94.1417 108.756C101.492 108.756 108.421 113.97 112.03 119.137C112.155 119.316 112.221 119.528 112.221 119.745C112.221 119.963 112.155 120.175 112.03 120.353C108.421 125.521 101.492 130.734 94.1417 130.734ZM78.4387 119.745C81.7507 124.125 87.8829 128.609 94.1417 128.609C100.4 128.609 106.533 124.125 109.845 119.745C106.533 115.366 100.4 110.881 94.1417 110.881C87.8829 110.881 81.7507 115.366 78.4387 119.745Z" fill="#2C2B2D"/>
<path d="M123.858 129.671C133.256 129.671 140.875 125.227 140.875 119.745C140.875 114.263 133.256 109.819 123.858 109.819C114.46 109.819 106.841 114.263 106.841 119.745C106.841 125.227 114.46 129.671 123.858 129.671Z" fill="#ED3C8D"/>
<path d="M123.858 130.734C116.508 130.734 109.579 125.521 105.97 120.353C105.846 120.175 105.779 119.963 105.779 119.745C105.779 119.528 105.846 119.316 105.97 119.137C109.579 113.97 116.508 108.756 123.858 108.756C131.209 108.756 138.138 113.97 141.747 119.137C141.871 119.316 141.938 119.528 141.938 119.745C141.938 119.963 141.871 120.175 141.747 120.353C138.138 125.521 131.209 130.734 123.858 130.734ZM108.155 119.745C111.467 124.125 117.6 128.61 123.858 128.61C130.117 128.61 136.249 124.125 139.562 119.745C136.249 115.366 130.117 110.881 123.858 110.881C117.6 110.881 111.467 115.366 108.155 119.745Z" fill="#2C2B2D"/>
<path d="M110.382 123.512C114.258 119.636 112.014 111.106 105.368 104.46C98.7224 97.8149 90.1928 95.57 86.3165 99.4463C82.4402 103.323 84.6851 111.852 91.3307 118.498C97.9762 125.143 106.506 127.388 110.382 123.512Z" fill="#ED3C8D"/>
<path d="M106.178 124.93C100.44 125.119 94.8508 123.083 90.5785 119.248C85.3822 114.053 84.1683 105.466 85.2703 99.26C85.308 99.0458 85.4106 98.8485 85.5643 98.6946C85.718 98.5407 85.9152 98.4378 86.1293 98.3998C92.3383 97.2948 100.921 98.5087 106.12 103.708C111.316 108.905 112.53 117.491 111.428 123.696C111.39 123.91 111.288 124.108 111.134 124.262C110.98 124.416 110.783 124.518 110.569 124.556C109.119 124.808 107.65 124.934 106.178 124.93ZM87.2437 100.373C86.4551 105.959 87.6255 113.291 92.081 117.746C96.5385 122.202 103.878 123.377 109.452 122.583C110.208 117.144 109.042 109.637 104.617 105.211C100.162 100.756 92.8322 99.5858 87.2437 100.373Z" fill="#2C2B2D"/>
<path d="M126.669 118.498C133.315 111.852 135.56 103.323 131.683 99.4463C127.807 95.57 119.278 97.8149 112.632 104.46C105.986 111.106 103.741 119.636 107.618 123.512C111.494 127.388 120.024 125.143 126.669 118.498Z" fill="#ED3C8D"/>
<path d="M111.822 124.93C110.35 124.934 108.881 124.809 107.431 124.557C107.217 124.519 107.02 124.416 106.866 124.262C106.712 124.108 106.61 123.911 106.572 123.696C105.47 117.492 106.684 108.906 111.88 103.708C117.079 98.5109 125.66 97.2948 131.871 98.4C132.085 98.438 132.282 98.5409 132.436 98.6947C132.589 98.8486 132.692 99.046 132.73 99.2601C133.832 105.466 132.618 114.053 127.422 119.248C123.149 123.083 117.56 125.119 111.822 124.93ZM108.548 122.583C114.126 123.376 121.462 122.203 125.919 117.746C130.375 113.291 131.545 105.959 130.756 100.373C125.172 99.5869 117.838 100.755 113.383 105.211C108.958 109.637 107.792 117.144 108.548 122.583Z" fill="#2C2B2D"/>
<path d="M109 123.097C114.482 123.097 118.926 115.478 118.926 106.08C118.926 96.6813 114.482 89.0625 109 89.0625C103.518 89.0625 99.0742 96.6813 99.0742 106.08C99.0742 115.478 103.518 123.097 109 123.097Z" fill="#ED3C8D"/>
<path d="M109 124.158C108.782 124.159 108.57 124.092 108.392 123.967C103.225 120.359 98.0117 113.428 98.0117 106.079C98.0117 98.7297 103.225 91.7996 108.392 88.1908C108.57 88.0662 108.782 87.9994 109 87.9994C109.217 87.9994 109.43 88.0662 109.608 88.1908C114.775 91.7996 119.988 98.7297 119.988 106.079C119.988 113.428 114.775 120.358 109.608 123.967C109.43 124.092 109.217 124.159 109 124.158ZM109 90.375C104.493 93.7658 100.137 99.7777 100.137 106.079C100.137 112.38 104.493 118.392 109 121.783C113.507 118.392 117.863 112.381 117.863 106.079C117.863 99.7779 113.507 93.7658 109 90.375Z" fill="#2C2B2D"/>
</g>
<defs>
<clipPath id="clip0_33_271">
<rect width="68" height="68" fill="white" transform="translate(75 88)"/>
</clipPath>
</defs>
</svg>
