<svg width="503" height="450" viewBox="0 0 503 450" fill="none" xmlns="http://www.w3.org/2000/svg">
<g style="mix-blend-mode:lighten" filter="url(#filter0_d_90_1120)">
<g clip-path="url(#clip0_90_1120)">
<path d="M387.049 331.813C399.584 310.1 379.57 275.076 342.346 253.585C305.121 232.093 264.783 232.272 252.247 253.985C239.711 275.698 259.725 310.722 296.95 332.213C334.174 353.705 374.513 353.525 387.049 331.813Z" fill="#ED3C8D"/>
<path d="M338.684 347.284C323.267 347.59 308.04 343.846 294.523 336.426C265.404 319.617 249.877 283.12 247.409 254.405C247.324 253.413 247.544 252.419 248.042 251.557C248.539 250.695 249.289 250.006 250.19 249.584C276.3 237.378 315.659 232.566 344.777 249.375C373.896 266.188 389.423 302.686 391.89 331.396C391.976 332.387 391.756 333.382 391.258 334.244C390.761 335.106 390.011 335.795 389.11 336.217C373.279 343.45 356.088 347.223 338.684 347.284ZM257.451 256.987C260.554 281.906 274.582 313.696 299.382 328.008C324.343 342.424 358.112 338.908 381.849 328.814C378.745 303.895 364.718 272.111 339.918 257.793C314.957 243.386 281.178 246.898 257.451 256.987Z" fill="#2C2B2D"/>
<path d="M206.05 332.213C243.275 310.722 263.289 275.698 250.753 253.985C238.217 232.272 197.878 232.093 160.654 253.585C123.43 275.076 103.415 310.1 115.951 331.813C128.487 353.526 168.826 353.705 206.05 332.213Z" fill="#ED3C8D"/>
<path d="M164.316 347.284C146.912 347.225 129.72 343.452 113.891 336.217C112.989 335.795 112.239 335.106 111.742 334.244C111.244 333.382 111.024 332.387 111.11 331.396C113.577 302.686 129.105 266.188 158.223 249.375C187.351 232.576 226.7 237.378 252.81 249.584C253.711 250.006 254.461 250.695 254.959 251.557C255.456 252.419 255.676 253.413 255.591 254.405C253.123 283.12 237.596 319.618 208.477 336.426C194.961 343.847 179.733 347.591 164.316 347.284ZM121.151 328.814C144.897 338.908 178.667 342.429 203.618 328.007C228.418 313.695 242.446 281.905 245.549 256.987C221.812 246.898 188.053 243.376 163.082 257.793C138.282 272.11 124.255 303.896 121.151 328.814Z" fill="#2C2B2D"/>
<path d="M183.547 289.585C226.53 289.585 261.374 269.26 261.374 244.188C261.374 219.117 226.53 198.792 183.547 198.792C140.563 198.792 105.719 219.117 105.719 244.188C105.719 269.26 140.563 289.585 183.547 289.585Z" fill="#ED3C8D"/>
<path d="M183.545 294.448C149.927 294.448 118.237 270.601 101.732 246.969C101.162 246.154 100.857 245.183 100.857 244.188C100.857 243.193 101.162 242.223 101.732 241.407C118.237 217.775 149.927 193.929 183.545 193.929C217.162 193.929 248.852 217.775 265.357 241.407C265.927 242.223 266.233 243.193 266.233 244.188C266.233 245.183 265.927 246.154 265.357 246.969C248.852 270.601 217.162 294.448 183.545 294.448ZM111.726 244.188C126.874 264.219 154.92 284.729 183.545 284.729C212.169 284.729 240.215 264.219 255.363 244.188C240.215 224.158 212.169 203.648 183.545 203.648C154.92 203.648 126.874 224.157 111.726 244.188Z" fill="#2C2B2D"/>
<path d="M319.453 289.585C362.437 289.585 397.281 269.26 397.281 244.188C397.281 219.117 362.437 198.792 319.453 198.792C276.47 198.792 241.626 219.117 241.626 244.188C241.626 269.26 276.47 289.585 319.453 289.585Z" fill="#ED3C8D"/>
<path d="M319.455 294.448C285.838 294.448 254.148 270.601 237.643 246.969C237.073 246.154 236.767 245.183 236.767 244.188C236.767 243.193 237.073 242.223 237.643 241.407C254.148 217.775 285.838 193.929 319.455 193.929C353.073 193.929 384.763 217.775 401.268 241.407C401.838 242.223 402.143 243.193 402.143 244.188C402.143 245.183 401.838 246.154 401.268 246.969C384.763 270.601 353.072 294.448 319.455 294.448ZM247.637 244.188C262.785 264.219 290.831 284.729 319.455 284.729C348.08 284.729 376.126 264.219 391.274 244.188C376.126 224.158 348.08 203.648 319.455 203.648C290.831 203.648 262.785 224.157 247.637 244.188Z" fill="#2C2B2D"/>
<path d="M257.822 261.415C275.55 243.687 265.283 204.676 234.89 174.283C204.496 143.889 165.485 133.622 147.757 151.35C130.029 169.079 140.296 208.089 170.69 238.483C201.083 268.876 240.094 279.144 257.822 261.415Z" fill="#ED3C8D"/>
<path d="M238.592 267.901C212.35 268.765 186.788 259.455 167.249 241.915C143.483 218.154 137.931 178.881 142.971 150.498C143.144 149.518 143.613 148.616 144.316 147.912C145.019 147.208 145.921 146.737 146.9 146.564C175.297 141.51 214.552 147.062 238.327 170.841C262.092 194.611 267.644 233.88 262.604 262.258C262.431 263.237 261.962 264.14 261.259 264.844C260.556 265.548 259.654 266.018 258.675 266.192C252.043 267.345 245.323 267.917 238.592 267.901ZM151.997 155.59C148.39 181.135 153.743 214.671 174.12 235.043C194.507 255.425 228.076 260.797 253.569 257.167C257.024 232.291 251.69 197.958 231.455 177.713C211.078 157.341 177.556 151.988 151.997 155.59Z" fill="#2C2B2D"/>
<path d="M332.31 238.482C362.704 208.089 372.971 169.078 355.243 151.35C337.515 133.622 298.504 143.889 268.11 174.282C237.717 204.676 227.45 243.687 245.178 261.415C262.906 279.143 301.917 268.876 332.31 238.482Z" fill="#ED3C8D"/>
<path d="M264.408 267.901C257.676 267.919 250.956 267.347 244.325 266.193C243.346 266.019 242.443 265.548 241.741 264.845C241.038 264.141 240.568 263.238 240.396 262.259C235.356 233.881 240.908 194.612 264.673 170.842C288.448 147.072 327.693 141.51 356.1 146.564C357.079 146.738 357.981 147.209 358.684 147.912C359.387 148.616 359.857 149.519 360.029 150.498C365.069 178.881 359.517 218.155 335.752 241.915C316.211 259.453 290.65 268.763 264.408 267.901ZM249.431 257.167C274.943 260.792 308.493 255.43 328.88 235.043C349.257 214.671 354.61 181.135 351.003 155.59C325.463 151.993 291.922 157.336 271.545 177.713C251.31 197.957 245.976 232.291 249.431 257.167Z" fill="#2C2B2D"/>
<path d="M251.5 259.515C276.572 259.515 296.896 224.67 296.896 181.687C296.896 138.704 276.572 103.859 251.5 103.859C226.428 103.859 206.104 138.704 206.104 181.687C206.104 224.67 226.428 259.515 251.5 259.515Z" fill="#ED3C8D"/>
<path d="M251.5 264.371C250.505 264.373 249.534 264.068 248.719 263.497C225.087 246.993 201.245 215.298 201.245 181.685C201.245 148.072 225.087 116.378 248.719 99.8726C249.535 99.3027 250.505 98.9971 251.5 98.9971C252.495 98.9971 253.466 99.3027 254.281 99.8726C277.913 116.377 301.755 148.073 301.755 181.685C301.755 215.297 277.913 246.992 254.281 263.497C253.466 264.068 252.495 264.373 251.5 264.371ZM251.5 109.862C230.886 125.37 210.964 152.866 210.964 181.685C210.964 210.504 230.886 238 251.5 253.509C272.114 238 292.036 210.505 292.036 181.686C292.036 152.866 272.114 125.37 251.5 109.862Z" fill="#2C2B2D"/>
</g>
</g>
<defs>
<filter id="filter0_d_90_1120" x="-4" y="0" width="511" height="511" filterUnits="userSpaceOnUse" color-interpolation-filters="sRGB">
<feFlood flood-opacity="0" result="BackgroundImageFix"/>
<feColorMatrix in="SourceAlpha" type="matrix" values="0 0 0 0 0 0 0 0 0 0 0 0 0 0 0 0 0 0 127 0" result="hardAlpha"/>
<feOffset dy="1"/>
<feGaussianBlur stdDeviation="50"/>
<feComposite in2="hardAlpha" operator="out"/>
<feColorMatrix type="matrix" values="0 0 0 0 0 0 0 0 0 0 0 0 0 0 0 0 0 0 1 0"/>
<feBlend mode="normal" in2="BackgroundImageFix" result="effect1_dropShadow_90_1120"/>
<feBlend mode="normal" in="SourceGraphic" in2="effect1_dropShadow_90_1120" result="shape"/>
</filter>
<clipPath id="clip0_90_1120">
<rect x="96" y="99" width="311" height="311" rx="47" fill="white"/>
</clipPath>
</defs>
</svg>
