<?xml version="1.0" standalone="no"?>
<!DOCTYPE svg PUBLIC "-//W3C//DTD SVG 20010904//EN"
 "http://www.w3.org/TR/2001/REC-SVG-20010904/DTD/svg10.dtd">
<svg version="1.0" xmlns="http://www.w3.org/2000/svg"
 width="933.000000pt" height="1280.000000pt" viewBox="0 0 933.000000 1280.000000"
 preserveAspectRatio="xMidYMid meet">
<metadata>
Created by potrace 1.15, written by Peter Selinger 2001-2017
</metadata>
<g transform="translate(0.000000,1280.000000) scale(0.100000,-0.100000)"
fill="#C9DF8A" stroke="none">
<path d="M4585 12794 c-272 -32 -489 -104 -675 -225 -92 -60 -260 -231 -289
-294 -46 -104 -58 -120 -102 -142 -36 -19 -59 -23 -142 -23 -113 0 -125 7
-173 101 -67 135 -111 172 -192 167 -41 -3 -49 -7 -62 -33 -25 -50 -20 -150
12 -215 14 -30 60 -156 101 -280 233 -701 565 -1355 1083 -2135 235 -354 312
-441 572 -642 131 -101 132 -103 116 -182 -5 -25 -11 -31 -33 -31 -14 0 -65
-7 -112 -16 l-87 -17 -173 120 c-588 407 -1047 665 -1374 772 -216 70 -270 77
-511 62 -718 -44 -1199 -169 -1609 -419 -287 -174 -563 -471 -663 -714 -22
-52 -26 -79 -26 -158 -1 -83 3 -105 28 -168 19 -48 42 -84 66 -106 35 -32 36
-33 22 -67 -23 -55 -11 -149 32 -256 l37 -91 -20 -65 c-56 -184 -31 -430 91
-872 95 -342 355 -746 597 -925 33 -25 60 -48 61 -51 0 -3 -21 -32 -46 -65
-349 -447 -446 -681 -445 -1074 0 -216 31 -394 107 -612 133 -384 326 -719
805 -1403 202 -287 353 -512 427 -636 79 -132 178 -343 208 -444 35 -118 43
-274 20 -360 -9 -33 -18 -105 -20 -160 -3 -81 -11 -121 -40 -210 -19 -61 -41
-118 -48 -126 -11 -14 -71 -18 -418 -28 -223 -6 -470 -16 -550 -21 -249 -17
-460 -45 -460 -60 0 -4 23 -17 50 -28 38 -16 50 -26 50 -42 0 -71 391 -133
911 -145 l307 -7 -6 -63 c-10 -132 32 -256 100 -291 92 -48 203 47 308 262
l50 101 112 7 c346 21 1160 117 1423 167 124 24 390 38 407 21 7 -7 -45 -28
-164 -66 -220 -71 -275 -103 -237 -142 49 -49 437 -96 1024 -125 243 -11 363
-10 735 10 113 6 318 15 455 21 574 25 975 72 975 114 0 60 -396 99 -1605 156
-424 20 -695 37 -703 45 -2 2 583 5 1300 8 850 3 1343 9 1418 16 285 28 94 59
-550 91 -234 11 -310 18 -310 29 0 4 5 12 12 19 18 18 0 30 -67 44 -43 9 -177
13 -460 13 -329 -1 -449 -5 -675 -24 -151 -12 -294 -20 -317 -16 -41 6 -43 8
-40 38 3 38 -20 51 -120 72 -245 50 -1336 60 -1658 14 -38 -5 -168 -12 -287
-16 -120 -3 -218 -9 -218 -13 0 -35 795 -176 1208 -216 40 -4 75 -11 79 -17 9
-14 -404 -3 -797 22 -179 12 -446 24 -593 28 l-269 6 6 46 c3 25 9 132 12 236
14 414 -71 782 -276 1200 -139 284 -266 470 -660 965 -349 438 -464 606 -570
825 -48 100 -97 246 -122 360 -21 101 -16 341 11 470 60 292 142 535 281 833
24 50 47 92 52 92 5 0 31 -11 58 -25 81 -41 198 -85 324 -121 l119 -35 216 11
c462 23 630 62 822 192 139 94 461 353 536 431 43 45 114 134 157 197 44 63
105 147 136 185 31 39 173 232 316 430 142 198 289 400 327 448 166 214 243
344 331 559 15 37 69 136 119 220 l92 153 72 1 71 0 23 -49 c13 -27 22 -65 22
-85 -1 -20 -74 -253 -163 -517 -257 -767 -328 -1016 -380 -1338 -43 -269 -53
-383 -54 -582 0 -344 58 -604 199 -887 85 -170 181 -300 342 -463 248 -253
434 -386 768 -550 239 -119 331 -152 446 -163 155 -15 269 12 347 82 59 53 68
84 46 146 -25 69 -16 76 115 90 216 22 421 87 681 216 185 93 339 190 546 347
343 260 608 639 685 982 19 86 17 336 -5 455 -87 486 -422 894 -1036 1262
-217 130 -495 278 -790 419 -157 75 -312 150 -346 167 -33 16 -98 46 -145 65
-114 47 -701 325 -782 371 -38 21 -87 60 -116 93 -51 57 -51 57 -29 70 34 19
64 16 179 -16 271 -76 402 -90 934 -101 499 -10 1018 -27 1085 -36 76 -10 755
-5 832 7 244 36 472 106 678 209 192 96 280 222 267 383 -5 76 -64 254 -112
339 -95 171 -325 353 -647 514 -76 38 -154 85 -181 110 -74 66 -141 89 -264
88 -57 0 -103 2 -103 4 0 2 -5 34 -11 71 -11 73 -2 129 39 241 43 118 53 430
18 560 -47 169 -155 294 -331 381 l-108 54 -151 7 c-190 8 -361 -6 -474 -37
-208 -59 -418 -199 -652 -434 -399 -400 -548 -657 -842 -1451 -44 -118 -102
-273 -130 -343 -49 -126 -50 -128 -97 -151 -26 -14 -67 -41 -92 -62 -39 -33
-44 -35 -47 -17 -5 33 66 230 133 370 66 138 110 215 253 443 47 74 112 191
145 260 90 189 201 413 261 528 125 240 186 528 186 881 -1 390 -79 691 -242
928 -171 249 -518 426 -923 473 -84 9 -302 11 -370 4z m125 -12044 c-8 -5 -37
-9 -65 -9 -44 1 -46 2 -20 9 46 12 103 12 85 0z"/>
<path d="M1865 229 c22 -4 51 -8 65 -7 16 0 11 3 -15 9 -22 4 -51 8 -65 7 -16
0 -11 -3 15 -9z"/>
<path d="M1983 213 c9 -2 23 -2 30 0 6 3 -1 5 -18 5 -16 0 -22 -2 -12 -5z"/>
<path d="M2250 98 c-19 -5 -52 -14 -73 -19 -23 -6 -35 -14 -31 -21 9 -14 124
-2 171 17 65 27 12 46 -67 23z"/>
</g>
</svg>
