<svg width="218" height="218" viewBox="0 0 218 218" fill="none" xmlns="http://www.w3.org/2000/svg">
<path d="M156.688 193.703C156.696 195.234 156.158 196.717 155.171 197.887C154.183 199.056 152.812 199.836 151.301 200.085C142.052 201.561 116.599 204.375 109 204.375C101.401 204.375 75.948 201.561 66.6987 200.085C65.1886 199.836 63.8168 199.056 62.8296 197.887C61.8424 196.717 61.3045 195.234 61.3126 193.703V38.959H156.688V193.703Z" fill="#59CE89"/>
<path d="M146.469 183.698C146.469 186.878 144.758 189.585 142.429 190.08C135.492 191.555 114.7 194.37 109 194.37C103.3 194.37 82.5079 191.556 75.5706 190.08C73.242 189.585 71.5312 186.878 71.5312 183.698V38.959H146.469V183.698Z" fill="#55BF7F"/>
<path d="M113.007 116.134C139.432 95.1719 117.573 82.5692 109.001 92.0939C100.434 82.5747 78.5676 95.1702 104.995 116.134C73.6294 103.73 73.6443 128.961 86.1793 131.623C82.2191 143.802 104.06 156.441 109.001 123.072C113.942 156.438 135.785 143.809 131.823 131.623C144.351 128.962 144.376 103.728 113.007 116.134H113.007Z" fill="#B4F993"/>
<path d="M177.125 31.7054C183.429 31.7054 183.437 22.1636 177.125 22.1636H40.8748C34.5712 22.1636 34.5631 31.7054 40.8748 31.7054H177.125Z" fill="#C5C5DD"/>
<path d="M76.2148 46.0176V17.5294C76.2148 14.7146 80.4727 14.7107 80.4727 17.5294V46.0176C80.4727 48.8324 76.2148 48.8363 76.2148 46.0176ZM137.527 46.0176V17.5294C137.527 14.7146 141.785 14.7107 141.785 17.5294V46.0176C141.785 48.8324 137.527 48.8363 137.527 46.0176Z" fill="#FFE05F"/>
</svg>
