<?xml version="1.0" standalone="no"?>
<!DOCTYPE svg PUBLIC "-//W3C//DTD SVG 20010904//EN"
 "http://www.w3.org/TR/2001/REC-SVG-20010904/DTD/svg10.dtd">
<svg version="1.0" xmlns="http://www.w3.org/2000/svg"
 width="4675.000000pt" height="4676.000000pt" viewBox="0 0 4675.000000 4676.000000"
 preserveAspectRatio="xMidYMid meet">
<metadata>
Created by potrace 1.16, written by Peter Selinger 2001-2019
</metadata>
<g transform="translate(0.000000,4676.000000) scale(0.100000,-0.100000)"
fill="#6FB353" stroke="none">
<path d="M25618 39085 c-2 -1 -75 -5 -163 -9 -149 -5 -360 -19 -465 -31 -25
-2 -79 -7 -120 -10 -156 -12 -361 -35 -446 -50 -729 -126 -1508 -591 -1927
-1147 -70 -94 -129 -191 -183 -300 l-42 -88 -69 97 c-129 183 -352 395 -569
541 -405 273 -1059 528 -1581 616 -287 48 -617 56 -878 20 -467 -64 -904 -228
-1393 -521 -259 -156 -741 -490 -977 -677 -396 -314 -737 -804 -964 -1381
-170 -432 -236 -784 -236 -1260 0 -223 8 -346 36 -549 136 -999 615 -1942
1369 -2696 373 -374 589 -535 1190 -885 168 -98 402 -237 520 -310 118 -73
287 -177 375 -230 389 -238 634 -413 910 -651 317 -274 464 -392 670 -544 116
-84 250 -186 299 -226 l89 -73 25 20 c32 25 63 24 97 -2 28 -23 28 -19 9 -124
-5 -26 2 -38 61 -100 94 -98 171 -220 280 -440 152 -310 303 -714 359 -965 56
-254 82 -528 71 -750 -4 -80 -9 -176 -11 -215 -2 -38 -10 -110 -19 -160 -23
-132 -29 -304 -13 -334 20 -38 35 -36 42 6 11 57 47 130 103 205 l50 68 23
-50 c13 -27 27 -47 31 -44 14 9 80 131 116 217 93 220 134 450 134 742 0 335
-61 670 -191 1057 -183 543 -367 867 -650 1148 -142 141 -242 221 -555 445
-261 187 -321 233 -571 441 -325 271 -477 383 -718 534 -181 112 -876 514
-1176 680 -535 295 -613 342 -805 485 -396 294 -776 680 -1041 1057 -236 337
-452 773 -583 1181 -39 121 -101 355 -116 440 -6 31 -11 37 -26 32 -16 -6 -19
-1 -19 32 0 22 5 44 11 50 7 7 6 42 -5 119 -25 173 -37 346 -35 524 2 187 15
337 44 498 93 528 371 1119 699 1482 185 206 374 346 929 687 546 336 755 443
1059 542 111 36 348 90 463 105 310 41 632 29 910 -35 321 -75 881 -284 1175
-441 265 -140 554 -366 865 -674 148 -146 210 -187 277 -182 60 4 68 30 44
151 -10 51 -22 98 -26 106 -12 22 16 57 79 104 31 23 99 77 151 122 482 407
955 683 1437 838 297 96 547 132 1133 163 63 3 183 12 265 21 83 8 224 16 315
19 191 5 270 12 270 23 0 12 108 58 180 77 75 19 146 14 193 -14 49 -28 94
-95 107 -156 6 -30 16 -59 23 -64 7 -5 47 -24 90 -42 81 -34 444 -238 634
-357 277 -174 540 -400 856 -738 285 -305 446 -541 597 -873 166 -368 263
-757 309 -1252 14 -138 6 -631 -12 -785 -78 -669 -296 -1325 -655 -1967 -42
-76 -56 -110 -48 -117 6 -5 40 -24 76 -42 52 -26 77 -33 125 -33 33 0 73 6 90
14 37 19 97 119 244 410 313 617 495 1185 566 1770 26 210 31 690 11 920 -19
206 -21 227 -42 355 -122 746 -397 1338 -870 1880 l-79 90 -7 -62 c-17 -156
-121 -235 -196 -148 -37 41 -46 83 -40 178 5 81 32 144 74 174 l26 19 -133
126 c-279 261 -492 430 -789 623 -535 348 -936 509 -1360 545 -107 9 -373 12
-382 5z m2960 -1979 c5 -23 -18 -39 -35 -24 -7 6 -13 19 -13 30 0 26 43 21 48
-6z m-6964 -8357 c33 -26 66 -89 66 -126 0 -42 -27 -75 -58 -71 -39 4 -84 73
-90 137 -7 79 27 103 82 60z m550 -1258 c10 -16 -6 -42 -23 -39 -9 2 -17 13
-19 26 -3 16 2 22 17 22 11 0 22 -4 25 -9z"/>
<path d="M25966 37831 c-27 -29 -33 -73 -29 -206 2 -66 4 -183 6 -260 3 -139
4 -140 42 -218 38 -79 38 -79 45 -245 6 -127 15 -203 39 -316 17 -82 31 -164
31 -183 0 -18 5 -33 11 -33 17 0 103 66 138 105 43 49 47 76 21 136 -18 44
-20 56 -10 80 9 22 10 52 1 126 -6 54 -10 154 -8 223 1 121 0 127 -31 200 -29
68 -32 84 -32 176 0 199 -87 406 -180 429 -19 4 -31 1 -44 -14z"/>
<path d="M24747 37595 c-34 -34 -18 -90 61 -207 72 -107 89 -146 100 -226 7
-45 20 -88 36 -114 63 -106 69 -125 77 -278 4 -86 18 -198 33 -275 15 -71 33
-216 41 -322 21 -280 42 -449 75 -613 33 -162 38 -307 24 -710 -6 -172 -4
-215 9 -267 45 -174 127 -223 179 -107 19 44 20 59 14 238 -9 241 -13 309 -31
421 -8 50 -17 137 -20 195 -4 58 -17 155 -30 215 -13 61 -27 148 -31 195 -8
106 -8 358 1 550 6 116 4 164 -10 240 -10 55 -20 180 -24 295 l-6 200 -46 100
c-26 55 -54 125 -64 155 -30 92 -65 151 -126 212 -89 90 -223 142 -262 103z"/>
<path d="M26969 37582 l-24 -20 -3 -294 -3 -294 31 -98 c28 -86 32 -115 35
-235 2 -86 13 -193 30 -291 24 -144 36 -375 21 -421 -6 -20 -19 -466 -21 -714
-1 -165 -5 -219 -17 -251 -9 -23 -24 -79 -33 -125 -9 -46 -40 -169 -68 -274
-121 -460 -142 -615 -86 -646 12 -6 33 -8 47 -4 66 16 105 91 136 265 9 47 34
148 57 225 60 209 102 514 104 755 1 163 5 235 21 330 2 14 13 108 24 210 11
102 25 232 31 290 11 100 7 363 -6 420 -3 14 -6 120 -5 236 0 181 -3 220 -20
285 -12 43 -23 122 -26 189 -9 182 -69 394 -128 448 -33 32 -68 36 -97 14z"/>
<path d="M20612 36770 c-31 -34 -43 -87 -73 -332 l-11 -97 37 -66 c31 -57 36
-74 33 -116 -3 -49 -3 -50 22 -43 14 4 63 14 109 24 55 11 89 23 98 35 20 28
16 77 -12 152 -18 46 -28 102 -35 177 -10 125 -21 162 -62 223 -44 65 -74 77
-106 43z"/>
<path d="M18372 36760 c-51 -32 -57 -55 -42 -169 7 -55 10 -123 7 -153 -9 -71
-36 -160 -47 -153 -5 3 -24 28 -41 56 l-33 50 -40 -47 c-37 -43 -42 -46 -77
-40 -43 7 -45 3 -54 -115 -8 -111 -12 -129 -56 -245 -58 -154 -67 -198 -70
-329 -3 -123 -8 -167 -40 -360 -26 -154 -37 -487 -20 -647 6 -62 25 -169 41
-238 16 -69 33 -179 39 -246 6 -67 17 -152 25 -190 8 -38 24 -141 36 -229 11
-88 28 -187 36 -219 20 -78 88 -247 118 -295 49 -77 112 -103 140 -58 35 57
27 126 -33 282 -22 56 -51 160 -66 235 -15 74 -45 198 -67 275 -27 96 -43 174
-50 250 -5 61 -18 144 -28 185 -57 229 -51 502 19 870 17 85 35 200 41 255 17
148 35 222 96 389 30 83 66 198 80 256 18 77 41 139 89 235 67 134 91 206 99
303 9 99 -31 136 -102 92z"/>
<path d="M17355 36736 c-102 -33 -257 -138 -356 -242 -48 -51 -60 -72 -88
-157 -21 -63 -57 -138 -104 -214 -86 -143 -114 -226 -168 -497 -22 -111 -51
-248 -64 -306 -57 -249 -75 -434 -69 -715 2 -115 6 -381 9 -590 7 -456 15
-525 82 -657 26 -53 29 -54 69 -33 16 8 44 15 62 15 68 0 163 -74 177 -139 4
-17 13 -31 21 -31 19 0 54 36 54 55 0 24 -35 53 -80 66 -53 16 -85 49 -125
129 -47 96 -55 135 -70 355 -3 44 -14 143 -25 220 -18 130 -33 428 -31 650 1
200 67 527 160 791 27 77 60 192 75 256 45 200 68 254 156 365 35 43 65 93 75
125 32 96 53 126 150 209 162 138 267 275 249 323 -14 36 -85 45 -159 22z"/>
<path d="M19461 36701 c-28 -28 -56 -113 -81 -246 -12 -66 -30 -160 -41 -208
-24 -113 -24 -179 1 -252 21 -61 25 -143 11 -230 -12 -67 3 -217 39 -395 16
-80 32 -194 35 -255 10 -170 23 -281 50 -426 15 -74 35 -186 46 -249 11 -63
25 -128 31 -143 11 -29 47 -52 136 -85 l50 -19 -23 62 c-43 113 -70 313 -90
665 -17 313 -26 457 -30 475 -2 11 -4 35 -4 53 -1 22 -6 32 -17 32 -12 0 -15
5 -9 23 13 38 26 386 20 497 -9 150 -8 188 11 342 18 151 12 224 -27 301 -38
74 -73 93 -108 58z"/>
<path d="M23886 36613 c-49 -78 -54 -124 -26 -250 13 -57 21 -106 18 -109 -3
-2 -35 6 -72 19 -36 14 -66 23 -66 22 0 -1 12 -23 26 -48 22 -41 26 -61 30
-174 4 -105 12 -155 44 -278 21 -82 41 -184 45 -225 3 -41 8 -91 10 -110 2
-19 7 -71 10 -115 10 -128 34 -281 65 -415 16 -69 34 -163 40 -210 15 -110 16
-377 1 -460 -15 -89 -14 -159 5 -227 8 -32 17 -67 18 -78 5 -36 36 -86 62 -97
20 -10 29 -8 52 9 52 39 67 100 52 223 -5 41 -11 156 -14 255 -2 99 -9 205
-15 235 -6 30 -15 100 -20 155 -6 55 -19 139 -30 185 -19 83 -33 286 -45 660
-3 93 -14 194 -30 282 -14 76 -28 200 -31 275 -5 98 -13 163 -30 223 -13 47
-26 114 -30 150 -11 123 -17 160 -25 160 -5 0 -24 -25 -44 -57z"/>
<path d="M21452 36615 c-30 -25 -47 -71 -57 -155 -3 -25 -10 -70 -15 -100 -8
-45 -6 -68 10 -128 11 -39 20 -102 20 -140 0 -56 5 -79 27 -118 21 -40 27 -68
34 -159 9 -127 49 -316 79 -376 15 -29 23 -67 26 -123 3 -44 9 -98 15 -120 6
-23 8 -77 4 -135 -7 -95 -7 -97 27 -161 25 -50 42 -69 70 -83 36 -18 39 -18
67 -1 34 20 51 52 51 95 0 59 -32 226 -59 309 -16 47 -34 113 -40 147 -6 34
-21 83 -33 110 -21 45 -22 64 -23 288 -1 132 -7 305 -14 385 -6 80 -15 197
-19 260 -9 130 -31 189 -82 215 -40 21 -54 19 -88 -10z"/>
<path d="M28107 36392 c-26 -29 -43 -88 -71 -248 -15 -82 -30 -167 -35 -189
-4 -25 -2 -72 7 -124 13 -81 13 -87 -13 -189 -19 -79 -27 -141 -32 -251 -6
-162 -21 -241 -87 -466 -24 -82 -43 -151 -41 -153 1 -1 23 10 49 24 39 22 56
25 91 21 30 -5 46 -2 54 7 10 12 86 233 110 321 6 22 25 121 41 220 16 99 39
207 50 240 37 107 40 134 24 225 -11 66 -12 101 -4 164 24 177 24 210 1 284
-33 111 -100 163 -144 114z"/>
<path d="M26110 36146 c0 -40 4 -129 9 -197 6 -68 13 -166 16 -217 4 -52 10
-119 16 -150 5 -32 9 -94 9 -140 0 -125 -37 -457 -70 -637 -57 -304 -44 -485
36 -485 21 0 84 60 84 81 0 5 -9 27 -20 49 -29 56 -25 80 20 146 70 103 81
165 87 504 2 135 5 277 6 315 0 39 -4 120 -11 180 -8 74 -10 184 -6 340 8 268
10 261 -92 271 -32 3 -65 7 -71 9 -10 3 -13 -15 -13 -69z"/>
<path d="M20684 35714 c21 -173 62 -406 96 -539 47 -183 69 -391 57 -535 -16
-194 45 -380 126 -380 33 0 75 44 83 87 4 19 4 60 1 91 -4 32 -11 104 -17 162
-6 58 -17 139 -26 180 -8 41 -22 122 -29 180 -9 67 -23 126 -40 164 -21 48
-29 88 -41 225 -13 144 -18 292 -13 341 7 53 -18 67 -128 77 l-76 6 7 -59z"/>
<path d="M22420 35682 c-43 -44 -54 -115 -47 -327 5 -148 29 -406 52 -568 16
-112 35 -262 40 -322 3 -38 8 -85 11 -104 3 -18 9 -165 14 -325 9 -338 12
-354 116 -613 93 -233 117 -346 129 -608 14 -313 31 -494 71 -755 35 -227 66
-372 130 -600 30 -108 61 -244 69 -305 13 -100 56 -696 70 -975 11 -215 16
-295 30 -470 17 -205 52 -681 60 -825 3 -55 8 -138 10 -185 3 -47 12 -233 20
-415 19 -430 23 -473 52 -645 34 -200 40 -412 18 -600 -9 -80 -21 -183 -26
-230 -6 -47 -12 -227 -14 -400 -7 -514 -34 -861 -100 -1237 -56 -325 -65 -384
-74 -493 -6 -63 -13 -250 -17 -415 -4 -165 -8 -301 -9 -303 -1 -1 -36 14 -78
33 -144 67 -342 120 -517 140 -118 14 -242 37 -403 77 l-168 41 123 61 c161
80 252 141 364 248 132 127 211 245 253 382 32 105 26 162 -19 186 -40 22
-116 -27 -308 -197 -184 -164 -406 -274 -668 -333 -130 -30 -386 -33 -509 -6
-218 48 -380 129 -571 288 -140 117 -221 211 -524 613 -350 464 -482 617 -801
930 -266 261 -466 425 -1094 896 -365 274 -453 334 -659 446 -209 114 -352
173 -952 391 -870 317 -1187 409 -1679 491 -105 18 -169 26 -329 46 -22 3
-121 12 -220 21 -269 25 -1046 24 -1276 -1 -19 -2 -72 -6 -118 -10 -45 -3 -93
-8 -105 -10 -12 -2 -51 -6 -87 -9 -465 -45 -1017 -178 -1455 -351 -339 -134
-621 -292 -1205 -680 -419 -277 -696 -495 -964 -755 -355 -346 -507 -597 -588
-973 -19 -89 -22 -133 -22 -337 -1 -312 27 -499 135 -925 106 -412 264 -703
539 -989 198 -205 410 -361 655 -481 339 -165 662 -240 1033 -240 l192 0 -42
-35 c-82 -66 -250 -236 -318 -320 -177 -221 -295 -449 -405 -781 -149 -450
-222 -807 -241 -1171 l-6 -127 48 -3 c47 -3 49 -4 49 -33 0 -26 -4 -30 -35
-35 -60 -10 -60 -11 -56 -128 2 -77 13 -150 39 -262 20 -85 47 -202 60 -259
24 -105 40 -131 78 -131 19 0 66 -51 80 -88 11 -29 -11 -71 -42 -79 -10 -3
-19 -7 -19 -10 0 -17 103 -250 160 -363 173 -340 520 -814 889 -1215 323 -350
704 -622 968 -691 116 -30 126 -35 183 -90 25 -23 68 -51 95 -62 28 -11 132
-58 232 -106 776 -365 1401 -470 2028 -341 132 28 456 112 517 135 68 25 108
68 108 114 0 41 26 66 68 66 25 0 36 -7 50 -30 l18 -29 120 58 c122 59 184
102 184 127 0 8 5 14 10 14 6 0 10 -5 10 -12 0 -7 7 -5 18 5 9 8 69 45 132 82
463 270 865 636 1230 1120 260 344 395 615 545 1090 206 652 341 1042 474
1362 118 286 192 403 456 723 61 74 181 225 265 335 191 249 284 358 399 467
208 199 452 315 872 416 308 75 529 102 829 102 377 0 578 -34 968 -161 229
-75 295 -86 318 -54 18 24 11 62 -24 134 -128 260 -735 539 -1283 589 -558 52
-1281 -91 -1699 -336 -139 -81 -231 -152 -359 -276 -138 -135 -222 -236 -468
-566 -105 -140 -239 -318 -298 -395 -378 -492 -505 -788 -830 -1935 -127 -449
-198 -656 -280 -825 -101 -207 -251 -431 -434 -649 -42 -50 -80 -96 -83 -101
-4 -6 12 -9 40 -7 62 4 108 -22 150 -82 17 -27 32 -53 31 -60 0 -6 -32 -26
-70 -45 -82 -40 -188 -134 -245 -216 -35 -51 -39 -55 -51 -38 -38 51 -39 134
-2 240 10 31 19 58 19 61 0 3 -37 -30 -82 -74 -213 -205 -456 -395 -725 -565
-72 -46 -73 -47 -43 -52 22 -5 31 -14 37 -34 15 -62 -3 -96 -51 -91 -43 4 -65
45 -49 88 12 31 12 31 -11 17 -145 -95 -413 -219 -631 -292 -291 -98 -509
-130 -815 -122 -314 8 -593 66 -920 190 -150 58 -637 271 -815 358 -431 210
-699 433 -1061 885 -523 652 -760 1134 -859 1747 -6 36 -7 37 -28 22 -85 -59
-209 65 -134 135 17 17 31 21 67 17 25 -2 52 -7 60 -10 13 -6 15 21 16 210 0
287 29 471 144 918 157 609 295 865 765 1420 168 198 191 249 140 301 -24 24
-29 25 -105 18 -76 -6 -83 -5 -189 35 -61 23 -218 72 -348 110 -131 38 -278
84 -328 101 -122 43 -293 127 -421 205 -78 48 -100 58 -84 38 12 -16 20 -41
20 -64 0 -34 -5 -42 -33 -59 -63 -39 -207 -17 -261 39 -36 38 -33 85 7 115 24
18 43 21 118 21 49 0 89 1 89 1 0 1 -35 28 -77 60 -331 248 -542 533 -657 885
-58 176 -139 525 -172 734 -25 156 -25 414 0 520 65 281 233 499 721 930 366
324 1027 790 1415 997 523 280 1433 501 2245 546 175 9 772 9 915 -1 723 -50
1183 -161 2285 -552 455 -161 601 -225 796 -350 41 -27 97 -58 125 -71 28 -12
87 -56 132 -97 45 -41 141 -121 214 -178 986 -765 1280 -1066 1885 -1934 228
-326 356 -482 513 -620 30 -27 47 -45 37 -42 -10 4 -66 17 -125 29 -120 24
-236 27 -482 14 -148 -8 -167 -6 -405 28 -374 53 -1038 135 -1440 176 -102 11
-524 50 -537 50 -4 0 -1 -15 7 -34 21 -49 5 -125 -57 -271 -28 -66 -52 -121
-52 -122 -1 -1 -28 5 -60 13 -71 18 -141 16 -141 -6 0 -12 19 -15 105 -16 207
-3 696 -15 745 -19 54 -4 389 -22 575 -30 341 -16 563 -30 800 -52 123 -12
259 -16 460 -14 326 2 337 1 690 -84 246 -59 334 -76 515 -100 259 -35 583
-112 924 -220 239 -75 384 -109 531 -125 58 -6 161 -21 230 -32 127 -21 354
-30 416 -16 31 7 32 6 44 -40 29 -116 83 -192 136 -192 70 0 172 168 219 360
32 132 62 364 70 545 14 323 27 490 50 650 61 431 71 717 51 1440 -7 279 -6
335 14 565 21 255 21 376 -1 508 -63 378 -65 420 -68 1087 -1 330 -4 641 -6
690 -3 50 -5 198 -5 330 -1 169 -5 248 -13 265 -8 15 -28 30 -52 38 -58 18
-88 56 -82 101 3 20 9 60 13 89 3 29 10 55 14 57 4 3 30 -2 56 -10 27 -8 50
-15 52 -15 5 0 -7 682 -13 790 -3 47 -7 130 -10 185 -7 115 -22 218 -70 470
-36 191 -51 279 -60 360 -3 28 -17 149 -30 270 -28 240 -34 359 -39 715 -4
269 -12 323 -82 519 -117 327 -128 375 -138 611 -13 299 -39 455 -127 778
-108 393 -291 788 -394 852 -44 27 -71 25 -105 -8z m-5540 -7881 c0 -12 -39
-45 -45 -39 -3 3 -9 22 -12 43 l-6 37 32 -16 c17 -9 31 -20 31 -25z m4333
-3426 c65 -31 62 -88 -6 -106 -66 -18 -147 -5 -174 26 -30 35 -29 59 5 85 23
19 36 21 83 17 31 -3 73 -13 92 -22z"/>
<path d="M27682 34265 c-27 -12 -40 -29 -69 -92 -55 -120 -106 -201 -178 -283
-105 -120 -184 -305 -157 -365 9 -20 19 -25 50 -25 64 0 98 32 215 205 116
171 155 241 213 382 20 48 47 109 60 135 13 26 24 50 24 53 0 11 -127 3 -158
-10z"/>
<path d="M19634 34078 c3 -13 10 -59 16 -103 6 -44 31 -159 55 -256 24 -97 56
-246 70 -330 36 -216 66 -301 129 -367 41 -45 77 -62 125 -62 55 0 84 13 137
62 86 78 123 197 93 289 -16 48 -38 69 -69 69 -36 0 -45 -13 -59 -82 -13 -60
-64 -142 -84 -135 -6 2 -27 57 -45 123 -69 247 -114 393 -157 511 -30 80 -45
139 -45 170 0 27 -4 54 -9 61 -6 10 -141 72 -157 72 -3 0 -2 -10 0 -22z"/>
<path d="M28480 31999 c0 -5 5 -7 10 -4 6 3 10 8 10 11 0 2 -4 4 -10 4 -5 0
-10 -5 -10 -11z"/>
<path d="M28090 31720 c0 -5 1 -11 2 -12 1 -2 -17 -31 -40 -66 -45 -66 -69
-86 -116 -98 l-29 -7 6 59 c4 41 3 54 -4 44 -5 -8 -54 -90 -109 -183 -193
-328 -279 -434 -685 -847 -159 -162 -416 -435 -570 -605 -154 -170 -357 -391
-451 -490 -94 -99 -285 -301 -425 -450 -140 -148 -355 -376 -479 -505 -612
-641 -829 -930 -1125 -1505 -214 -415 -293 -679 -282 -945 8 -185 52 -315 153
-453 39 -53 115 -107 151 -107 48 0 63 85 43 245 -25 203 -17 319 36 502 57
198 146 374 414 823 231 388 357 561 601 831 63 69 189 209 280 310 92 101
454 513 804 914 812 930 807 924 1047 1177 364 383 445 477 584 683 94 140
394 638 394 655 0 9 -131 40 -169 40 -17 0 -31 -4 -31 -10z"/>
<path d="M32880 30064 c-19 -2 -84 -9 -145 -14 -558 -54 -1148 -261 -1827
-642 l-87 -49 40 -81 c46 -97 50 -130 14 -146 -50 -23 -106 -15 -165 23 -30
20 -72 41 -92 47 -37 11 -40 10 -140 -57 -144 -96 -412 -291 -548 -400 -211
-169 -372 -317 -715 -655 -187 -185 -385 -371 -439 -415 -55 -44 -104 -88
-110 -97 -7 -13 -4 -32 16 -80 l26 -63 -52 -7 c-28 -5 -82 -24 -121 -44 -61
-31 -70 -34 -81 -20 -9 14 -31 -1 -150 -100 -177 -147 -330 -263 -519 -394
-341 -235 -418 -301 -755 -640 -162 -164 -317 -315 -345 -337 -83 -66 -219
-154 -440 -283 -115 -68 -218 -128 -227 -134 -15 -9 -13 -13 16 -32 91 -62 87
-233 -9 -364 -39 -53 -118 -100 -167 -100 -42 0 -84 25 -96 57 -6 15 -12 81
-14 145 -2 65 -4 118 -5 118 -1 0 -53 -28 -115 -63 -329 -184 -668 -302 -940
-327 -174 -16 -261 -38 -278 -70 -32 -61 9 -114 134 -175 166 -81 331 -111
545 -102 343 15 662 133 1273 468 525 288 666 394 1048 789 310 321 447 441
821 716 351 259 841 714 1259 1169 350 381 563 581 915 858 477 375 1184 795
1565 929 47 17 107 41 134 55 27 14 66 26 85 28 20 2 86 19 147 38 255 82 578
129 889 129 226 1 383 -16 598 -63 218 -48 541 -157 665 -226 267 -147 449
-355 633 -723 161 -322 251 -594 294 -885 16 -111 22 -405 10 -515 -23 -209
-72 -422 -141 -609 -59 -159 -337 -703 -492 -961 -130 -217 -232 -352 -540
-715 -215 -254 -262 -344 -212 -408 75 -95 356 54 664 353 231 224 405 467
623 869 282 522 419 895 462 1261 24 206 24 203 -1 196 -13 -4 -48 -10 -79
-13 -70 -7 -99 7 -99 47 0 48 47 72 133 68 l67 -4 0 77 c0 105 -26 339 -51
462 -110 546 -454 1223 -775 1528 -148 140 -284 225 -524 327 -404 171 -808
252 -1290 257 -140 1 -271 1 -290 -1z m-1350 -430 c62 -18 130 -78 130 -114 0
-67 -77 -122 -252 -180 -54 -17 -98 -34 -98 -38 0 -3 7 -14 16 -24 14 -15 15
-18 2 -23 -8 -3 -26 -1 -40 4 -23 8 -27 18 -33 66 -19 152 17 246 114 297 61
32 87 34 161 12z m3989 -3008 c20 -23 9 -67 -22 -90 -36 -27 -152 -35 -182
-13 -20 15 -20 16 9 46 57 59 167 91 195 57z m-9145 -1492 c25 -10 19 -48 -13
-78 -30 -29 -34 -28 -45 17 -12 49 16 77 58 61z"/>
<path d="M32071 28782 c-21 -10 -38 -27 -41 -42 -13 -51 9 -92 93 -174 128
-123 133 -126 218 -130 54 -3 87 -11 122 -30 54 -28 84 -33 237 -40 58 -3 131
-8 162 -12 50 -6 58 -4 64 11 12 29 67 74 92 75 35 0 82 -28 92 -55 14 -37 79
-34 153 5 42 22 70 30 109 30 29 0 82 7 118 15 36 8 101 22 145 31 140 28 179
42 223 80 95 81 96 162 2 179 -28 5 -50 -1 -108 -30 -40 -19 -102 -42 -138
-50 -35 -8 -88 -27 -116 -41 -31 -16 -82 -30 -124 -35 -40 -5 -103 -21 -141
-35 -62 -24 -77 -26 -173 -21 -68 4 -145 16 -220 35 -63 17 -142 33 -175 37
-94 10 -156 32 -204 70 -47 37 -48 38 -101 36 -27 -2 -48 8 -89 39 -94 71
-140 83 -200 52z"/>
<path d="M12513 27972 c-12 -2 -33 -17 -47 -33 -48 -57 -13 -122 108 -197 77
-49 89 -53 124 -47 30 5 54 0 100 -19 38 -16 80 -26 110 -26 27 0 85 -12 128
-26 50 -16 117 -28 184 -33 114 -8 181 -34 264 -100 65 -52 139 -42 182 24 22
33 21 71 -2 97 -42 47 -209 96 -349 103 -95 4 -105 8 -286 108 -36 20 -97 43
-136 51 -39 9 -99 26 -134 40 -78 30 -216 62 -246 58z"/>
<path d="M33825 27343 c-60 -8 -155 -24 -210 -35 -55 -11 -134 -27 -175 -35
-41 -8 -111 -23 -155 -35 -44 -11 -98 -24 -120 -29 -59 -12 -301 -10 -445 5
-69 7 -136 12 -150 11 -14 -1 -68 -6 -120 -10 -83 -7 -105 -5 -175 15 -67 19
-92 21 -150 15 -38 -5 -91 -7 -117 -7 -243 8 -252 7 -288 -14 -19 -11 -41 -32
-50 -46 -13 -24 -13 -30 2 -61 19 -40 70 -67 173 -90 39 -9 97 -25 129 -37 71
-24 114 -25 163 -5 48 20 83 21 165 5 63 -13 73 -12 177 13 95 24 130 27 270
27 172 0 333 18 458 51 43 12 96 25 119 29 49 10 286 28 449 34 230 7 339 68
293 162 -26 56 -58 61 -243 37z"/>
<path d="M13605 27133 c-49 -6 -134 -12 -188 -12 -66 -1 -126 -8 -180 -22 -78
-20 -95 -21 -362 -14 -376 11 -544 11 -643 1 -58 -6 -119 -5 -198 4 -97 11
-125 11 -182 -1 -41 -8 -131 -14 -232 -14 -147 0 -171 -3 -220 -23 -77 -31
-112 -61 -112 -97 0 -60 66 -90 232 -106 217 -21 293 -22 352 -5 42 12 91 15
204 13 119 -2 173 2 269 20 95 18 185 24 435 33 276 8 330 13 440 36 154 32
390 39 575 18 240 -28 472 17 483 95 4 24 -18 55 -53 74 -27 16 -500 16 -620
0z"/>
<path d="M14655 26370 c-27 -5 -142 -9 -255 -9 -113 -1 -241 -5 -285 -11 -44
-5 -145 -12 -225 -14 -80 -3 -179 -12 -220 -21 -56 -11 -122 -13 -260 -10
-102 3 -201 7 -220 10 -443 62 -742 68 -780 15 -51 -72 -54 -74 -127 -78 -92
-5 -137 9 -203 63 -66 54 -105 58 -204 21 -49 -19 -91 -25 -177 -29 -86 -4
-132 -11 -186 -30 -168 -59 -273 -128 -273 -179 0 -59 73 -77 233 -59 56 6
170 13 252 15 132 4 158 8 220 31 109 41 132 44 265 39 100 -5 152 -2 260 16
115 18 167 21 350 18 417 -6 753 -1 830 12 55 10 215 14 590 15 545 2 611 6
685 48 66 38 64 95 -5 129 -38 19 -167 23 -265 8z"/>
<path d="M31520 26130 c-26 -26 -25 -56 1 -99 l21 -34 24 24 c24 24 24 25 9
77 -17 57 -25 62 -55 32z"/>
<path d="M31940 26001 c0 -24 53 -60 101 -70 76 -16 77 -14 16 29 -58 42 -117
62 -117 41z"/>
<path d="M33765 25964 c-136 -51 -416 -131 -570 -165 -204 -44 -277 -48 -443
-23 -93 13 -295 60 -343 79 -12 4 -18 -1 -23 -19 -12 -47 -116 -80 -319 -101
-31 -4 -55 -10 -52 -15 15 -24 125 -51 244 -60 69 -6 187 -19 261 -30 198 -29
399 -27 555 5 66 14 138 25 160 25 56 0 388 47 459 65 64 17 200 84 235 116
46 43 47 105 2 128 -28 15 -119 12 -166 -5z"/>
<path d="M14900 25839 c-297 -14 -348 -19 -590 -60 -63 -11 -165 -24 -225 -29
-61 -5 -180 -24 -265 -44 -85 -19 -193 -40 -240 -46 -47 -6 -96 -13 -110 -15
-14 -2 -52 -6 -85 -10 -33 -3 -168 -19 -300 -35 -132 -16 -292 -34 -356 -40
-108 -11 -118 -14 -128 -36 -12 -28 -61 -33 -81 -9 -18 22 -45 19 -156 -16
-153 -47 -249 -67 -374 -79 -191 -18 -276 -37 -395 -90 -87 -38 -140 -53 -252
-74 -266 -49 -514 -162 -536 -245 -3 -12 2 -30 12 -43 26 -31 103 -34 241 -10
63 12 180 28 260 37 192 21 244 35 375 100 101 50 118 56 215 66 162 16 339
59 460 111 106 46 245 77 530 118 115 17 780 148 915 181 97 23 142 29 240 30
66 0 176 9 245 19 105 15 165 18 377 14 455 -9 678 25 706 109 7 23 5 33 -12
51 -46 49 -167 60 -471 45z"/>
<path d="M30285 25257 c-16 -25 -28 -33 -58 -35 -20 -2 -37 -8 -37 -13 0 -22
88 -103 178 -164 54 -35 120 -81 147 -101 73 -52 123 -73 211 -85 52 -7 109
-24 164 -49 116 -52 200 -76 343 -100 114 -19 232 -47 506 -120 158 -42 327
-71 446 -76 173 -8 197 -11 310 -32 333 -65 683 -94 828 -67 99 17 127 35 127
79 0 67 -66 95 -230 96 -63 0 -176 7 -250 15 -74 8 -194 15 -266 15 -72 0
-175 6 -230 14 -54 8 -148 17 -209 21 -233 13 -455 68 -730 180 -71 30 -186
67 -255 84 -99 25 -156 47 -277 107 -141 70 -158 76 -247 87 -61 7 -96 16 -96
23 0 27 -162 112 -265 139 -80 20 -87 19 -110 -18z"/>
<path d="M16760 24809 c-63 -4 -176 -15 -250 -24 -545 -64 -578 -66 -940 -63
-395 3 -384 4 -621 -85 -209 -80 -276 -96 -465 -112 -203 -18 -250 -26 -422
-71 -293 -76 -552 -208 -735 -374 -121 -111 -148 -193 -77 -234 28 -17 57 -22
141 -24 118 -5 252 13 614 79 340 62 332 62 620 75 211 9 278 26 486 125 192
91 240 102 414 103 82 1 143 5 147 11 4 5 8 23 8 38 0 16 4 36 9 46 11 20 146
85 160 77 4 -3 11 -27 15 -54 4 -32 15 -58 34 -79 l27 -30 295 33 c319 36 481
63 566 95 56 21 56 20 69 104 9 53 74 118 135 135 64 18 95 58 116 146 10 41
14 77 10 81 -11 11 -222 13 -356 2z m-204 -161 c-33 -79 -70 -147 -78 -142
-14 9 -9 89 8 113 13 18 70 61 82 61 1 0 -4 -15 -12 -32z"/>
<path d="M23708 24404 c-154 -47 -96 -225 109 -327 145 -73 293 -106 603 -132
102 -9 250 -28 330 -42 135 -25 164 -27 430 -27 229 0 322 4 472 22 221 26
373 28 569 7 158 -17 227 -14 418 16 211 33 330 40 526 29 245 -13 351 -20
410 -25 28 -3 86 -7 130 -10 369 -26 611 -56 1455 -181 84 -13 153 -14 350 -9
156 4 284 2 350 -4 58 -7 128 -14 155 -17 183 -19 287 -39 413 -79 258 -83
316 -89 532 -55 196 31 226 28 452 -41 223 -67 273 -74 548 -73 224 0 257 3
384 28 158 30 226 56 261 98 59 70 4 156 -140 218 -58 25 -57 25 -49 -5 15
-60 -19 -98 -62 -70 -30 19 -31 54 -4 88 l21 26 -113 35 c-62 20 -223 61 -358
92 -135 31 -328 83 -430 116 -234 76 -309 83 -511 47 -195 -34 -289 -31 -489
13 -145 32 -261 52 -420 73 -102 13 -314 13 -450 0 -80 -7 -190 -16 -245 -20
-146 -9 -554 16 -840 50 -155 19 -408 25 -1012 25 l-691 0 -159 -31 c-195 -38
-309 -40 -508 -8 -127 20 -177 22 -545 24 -438 1 -434 1 -825 69 -110 19 -254
39 -320 46 -66 6 -205 20 -310 31 -221 22 -370 24 -437 3z m1452 -240 c41 -35
64 -79 47 -91 -25 -19 -76 -34 -103 -31 -24 2 -34 13 -56 58 -32 65 -34 77
-10 83 49 13 91 6 122 -19z"/>
<path d="M34025 24341 c-228 -41 -352 -114 -331 -195 13 -53 95 -80 274 -91
334 -21 678 -145 972 -352 140 -99 358 -321 449 -457 188 -282 282 -578 336
-1056 87 -764 -73 -1649 -400 -2215 -139 -240 -232 -363 -749 -985 -97 -116
-296 -320 -382 -390 -237 -195 -642 -407 -1001 -524 -401 -130 -727 -181
-1163 -180 -920 2 -1743 290 -2780 971 -547 360 -726 498 -1005 778 -330 329
-509 540 -683 805 -376 573 -366 559 -667 910 -254 295 -369 445 -465 604
-203 336 -330 516 -487 691 -341 379 -830 657 -1337 759 -44 9 -81 14 -84 11
-17 -17 65 -65 111 -65 14 0 36 -9 51 -21 21 -17 26 -29 26 -68 0 -26 -7 -56
-16 -69 -22 -32 -97 -67 -195 -92 -46 -12 -88 -25 -92 -29 -4 -4 25 -20 65
-36 281 -109 617 -320 854 -536 200 -182 306 -322 525 -687 251 -418 282 -461
647 -864 240 -267 319 -363 449 -553 302 -440 587 -776 943 -1113 314 -297
428 -384 774 -592 121 -74 250 -153 286 -177 l64 -42 14 32 c21 51 51 77 89
77 59 0 103 -69 103 -161 0 -84 52 -124 380 -292 665 -342 1240 -525 1862
-593 217 -24 669 -25 878 -1 798 91 1510 375 2045 816 175 145 271 250 856
940 77 92 236 301 296 391 297 446 510 1064 573 1660 6 58 13 125 15 150 12
107 15 456 5 585 -41 539 -114 886 -244 1161 -150 316 -387 584 -701 790 -391
257 -811 368 -1160 305z m-440 -6382 c9 -27 2 -33 -31 -25 -25 7 -26 8 -9 26
23 25 32 25 40 -1z"/>
<path d="M23999 23445 c-104 -13 -200 -35 -228 -54 -12 -7 -11 -17 5 -61 10
-28 23 -55 29 -60 14 -11 314 -100 338 -100 32 0 80 43 167 149 44 55 88 102
97 105 39 15 -11 25 -152 30 -96 3 -188 0 -256 -9z"/>
<path d="M14700 23327 c-36 -13 -92 -37 -125 -54 -33 -17 -121 -52 -195 -78
-192 -67 -256 -96 -379 -170 -60 -36 -150 -83 -200 -105 -88 -37 -158 -82
-264 -170 -27 -22 -191 -125 -365 -229 -473 -282 -565 -346 -736 -510 -82 -78
-183 -163 -231 -195 -117 -77 -159 -118 -223 -214 -36 -55 -90 -116 -159 -180
-225 -209 -351 -447 -255 -483 43 -17 120 30 245 150 62 58 153 139 202 178
50 40 108 95 128 123 20 27 54 73 74 100 21 28 88 94 151 147 62 53 161 149
219 212 190 208 234 241 1158 865 33 22 112 64 175 92 63 29 162 76 220 104
58 29 196 83 306 121 307 103 484 194 484 249 0 9 -11 27 -25 40 -37 35 -120
38 -205 7z"/>
<path d="M34000 23279 c-25 -10 -65 -18 -90 -19 -25 0 -65 -10 -90 -22 -25
-11 -71 -24 -103 -28 -34 -5 -73 -18 -95 -32 -53 -35 -103 -40 -218 -21 -54 9
-155 17 -224 18 -69 1 -189 10 -267 19 l-141 19 -30 -22 c-88 -62 -14 -174
153 -231 53 -18 66 -19 107 -9 37 10 58 10 102 -1 49 -12 63 -11 140 9 47 11
112 21 145 21 78 0 146 15 253 56 78 30 101 34 220 40 73 3 147 10 164 15 45
14 85 60 91 106 10 79 -39 114 -117 82z"/>
<path d="M22733 23165 c-53 -37 -84 -194 -84 -425 1 -242 15 -346 112 -814 63
-307 117 -597 144 -786 29 -205 85 -480 145 -725 68 -274 101 -387 241 -820
132 -410 158 -498 239 -835 80 -334 117 -450 210 -656 159 -351 250 -587 420
-1089 67 -198 131 -375 142 -392 11 -18 61 -78 113 -134 51 -56 103 -120 115
-142 l23 -40 -24 7 c-64 18 -119 29 -124 24 -3 -2 61 -175 141 -384 172 -447
314 -826 379 -1014 43 -125 283 -716 398 -980 75 -174 115 -250 265 -503 325
-546 607 -1083 747 -1422 158 -385 243 -523 510 -830 128 -148 232 -312 350
-551 118 -238 167 -304 258 -348 52 -26 169 -49 305 -61 81 -8 79 -5 56 -96
-10 -37 -15 -88 -12 -124 4 -63 16 -88 94 -199 32 -45 34 -53 34 -128 0 -51 6
-92 15 -111 22 -46 387 -414 466 -470 109 -78 187 -98 222 -59 24 26 22 104
-4 182 -23 67 -116 256 -163 328 l-27 43 -22 -33 c-26 -38 -60 -47 -88 -22
-23 20 -25 105 -5 169 11 34 10 46 -5 85 -24 63 -79 163 -173 315 -193 314
-242 400 -390 692 -215 427 -271 509 -560 829 -186 206 -232 282 -411 674 -64
140 -144 307 -177 370 -223 422 -334 609 -588 990 -229 342 -224 334 -545
1035 -193 423 -260 579 -492 1140 -80 192 -198 476 -263 630 -120 283 -173
420 -327 845 -111 306 -205 542 -288 721 -155 334 -206 491 -310 951 -36 161
-99 414 -141 561 -135 485 -233 906 -286 1229 l-22 139 -40 -7 c-149 -25 -253
43 -264 171 -4 48 -2 56 23 81 26 25 29 26 103 20 42 -3 93 -9 113 -12 l36 -6
-23 174 c-35 271 -77 497 -134 728 -33 132 -72 313 -95 450 -50 283 -120 504
-187 590 -44 56 -103 75 -145 45z m2368 -7890 c39 -21 49 -32 49 -61 0 -73
-161 -104 -239 -47 -20 16 -26 29 -26 59 0 34 4 41 35 57 43 22 129 18 181 -8z"/>
<path d="M23507 22870 c-27 -31 -52 -118 -46 -159 l4 -24 32 27 c37 31 83 118
83 158 0 39 -39 38 -73 -2z"/>
<path d="M14980 22481 c-30 -10 -89 -35 -130 -56 -41 -21 -133 -62 -203 -91
-70 -29 -268 -127 -440 -217 -433 -229 -616 -313 -867 -397 -132 -45 -241 -90
-378 -159 -64 -32 -169 -75 -232 -96 -148 -49 -211 -81 -287 -148 -34 -30 -97
-80 -141 -110 -43 -31 -94 -73 -113 -94 -64 -71 -159 -285 -159 -360 0 -13 11
-35 25 -49 44 -44 87 -16 206 128 58 69 99 109 147 139 37 23 84 53 105 66 21
13 69 52 107 87 51 47 90 72 147 96 111 46 164 74 283 149 58 36 241 129 410
207 436 202 509 239 608 303 48 31 143 80 212 108 69 28 157 65 195 82 39 17
142 56 230 87 88 30 202 75 253 100 166 80 233 170 166 223 -32 25 -71 26
-144 2z"/>
<path d="M34835 22484 c-11 -2 -66 -16 -122 -30 l-101 -26 44 -42 c50 -48 57
-83 22 -118 l-21 -21 58 7 c191 22 323 132 249 206 -19 20 -90 33 -129 24z"/>
<path d="M34359 22346 c-3 -3 -47 -12 -98 -20 -63 -11 -108 -24 -144 -45 -91
-51 -172 -64 -512 -81 -104 -5 -230 -17 -280 -25 -77 -14 -108 -14 -210 -4
-126 12 -124 12 -232 -32 -26 -11 -43 -11 -97 0 -102 20 -232 -12 -281 -70
-30 -37 -31 -58 -5 -92 34 -42 81 -53 381 -84 31 -3 69 2 115 17 40 12 88 20
114 18 45 -3 45 -3 42 27 -4 42 24 66 77 67 56 1 93 -25 85 -58 l-6 -25 36 15
c20 9 51 22 69 30 31 13 67 19 192 31 161 15 428 77 540 124 62 27 130 45 220
61 130 22 186 39 135 40 -44 0 -112 51 -130 98 -3 7 -8 11 -11 8z"/>
<path d="M23862 22315 c-6 -13 -30 -37 -53 -52 -40 -26 -50 -28 -143 -28 -56
0 -116 3 -133 7 -27 6 -33 5 -33 -10 0 -26 45 -217 70 -300 l22 -72 28 30 c58
62 176 84 212 41 23 -30 23 -52 -3 -85 -34 -43 -104 -78 -158 -79 l-48 -1 19
-60 c35 -115 87 -331 137 -576 28 -135 69 -311 91 -390 69 -245 207 -650 330
-970 128 -333 135 -355 210 -639 84 -321 112 -394 245 -656 144 -280 159 -318
270 -645 138 -410 319 -923 477 -1355 83 -225 217 -608 298 -850 225 -671 284
-810 571 -1345 262 -488 351 -686 474 -1050 45 -135 96 -276 114 -314 47 -104
130 -223 273 -390 176 -207 240 -306 349 -540 51 -110 110 -232 132 -270 116
-207 418 -597 612 -792 194 -195 441 -363 538 -366 79 -3 92 61 35 171 -19 36
-69 134 -111 216 -74 146 -127 223 -170 247 -13 7 -81 15 -157 18 -119 5 -140
8 -167 28 -18 12 -35 32 -38 43 -9 27 15 157 32 170 25 22 82 0 146 -57 76
-67 136 -109 143 -101 3 3 -42 89 -100 192 -267 468 -307 545 -401 765 -111
261 -173 358 -361 565 -243 269 -274 320 -444 745 -147 364 -383 833 -583
1155 -137 220 -281 531 -468 1007 -146 370 -210 530 -332 819 -68 162 -134
327 -147 365 -49 148 -62 160 -190 167 -123 6 -170 43 -178 140 -6 70 11 102
82 157 61 46 68 68 42 119 -16 30 -227 579 -272 706 -15 44 -87 197 -159 340
-140 278 -167 349 -235 625 -52 208 -83 314 -181 625 -187 589 -290 996 -364
1440 -47 279 -90 448 -209 814 -53 162 -98 296 -100 298 -1 2 -8 -8 -14 -22z"/>
<path d="M15255 21660 c-27 -11 -93 -44 -145 -75 -52 -30 -149 -83 -215 -116
-148 -76 -225 -125 -380 -244 -66 -50 -146 -108 -178 -129 -32 -20 -109 -85
-170 -144 -62 -60 -238 -209 -391 -332 -406 -324 -460 -375 -631 -580 -43 -52
-145 -160 -226 -240 -139 -138 -149 -150 -191 -241 -34 -71 -64 -116 -119
-177 -157 -175 -280 -461 -224 -522 46 -51 120 0 260 180 32 41 93 112 136
156 96 101 130 148 173 238 19 40 64 105 103 149 133 153 165 194 256 327 60
88 125 168 187 230 102 102 414 393 570 530 52 47 142 130 200 185 58 55 130
113 160 129 30 17 122 74 203 128 82 54 188 117 235 139 314 149 445 224 513
296 51 53 56 77 25 108 -31 31 -79 32 -151 5z"/>
<path d="M35083 21191 c-27 -9 -80 -36 -118 -60 -75 -48 -139 -78 -255 -121
-41 -15 -114 -46 -161 -69 -47 -23 -128 -53 -180 -67 -51 -14 -121 -40 -154
-58 -120 -67 -240 -87 -504 -87 -106 1 -198 4 -203 7 -6 4 -110 8 -232 10
-219 2 -222 3 -304 33 -69 26 -98 31 -170 31 -71 0 -98 5 -147 26 -209 89
-391 98 -411 20 -16 -66 119 -174 328 -260 96 -40 126 -44 211 -32 51 7 71 5
149 -19 83 -26 99 -27 206 -22 65 3 128 8 142 12 14 3 102 6 195 7 324 2 568
44 758 129 48 22 138 53 200 69 172 47 480 156 594 212 170 82 234 167 171
225 -33 29 -60 33 -115 14z"/>
<path d="M15774 20844 c-21 -14 -73 -58 -114 -98 -41 -40 -113 -103 -160 -141
-123 -100 -382 -363 -439 -448 -60 -89 -181 -212 -366 -370 -190 -163 -232
-204 -339 -332 -51 -60 -142 -156 -202 -212 -65 -60 -123 -124 -144 -159 -19
-31 -78 -103 -131 -160 -139 -148 -215 -308 -175 -369 35 -54 116 -23 234 89
42 40 109 98 149 129 84 66 104 93 128 167 15 47 32 69 120 155 72 70 123 131
171 205 38 58 109 150 159 205 50 55 158 177 240 270 337 384 490 533 720 706
188 140 305 267 305 330 0 60 -87 79 -156 33z"/>
<path d="M16505 20295 c-39 -20 -85 -71 -120 -137 -16 -29 -61 -100 -100 -158
-40 -58 -96 -145 -125 -195 -30 -49 -77 -119 -106 -154 -29 -35 -68 -96 -87
-136 -60 -124 -225 -304 -428 -467 -51 -42 -145 -131 -207 -197 -75 -80 -139
-138 -190 -171 -48 -32 -96 -74 -127 -113 -31 -38 -83 -84 -135 -120 -104 -71
-154 -119 -180 -172 -23 -48 -26 -108 -6 -124 28 -23 94 -15 159 19 34 18 112
58 174 90 62 31 120 63 128 70 9 8 29 39 45 69 31 61 56 87 140 146 82 57 124
100 207 208 41 54 124 150 183 213 123 129 210 242 290 373 89 148 122 195
187 273 35 40 99 118 143 173 44 55 102 127 130 159 118 142 166 307 103 354
-22 16 -41 15 -78 -3z"/>
<path d="M31685 19972 c-31 -6 -65 -43 -65 -69 0 -13 6 -37 14 -52 34 -64 238
-223 349 -270 35 -15 70 -21 125 -21 67 0 84 -4 141 -34 95 -49 136 -57 331
-66 96 -5 252 -16 345 -25 244 -25 406 -17 590 29 77 19 241 55 365 80 339 69
452 99 523 140 78 45 112 73 131 110 18 36 8 59 -36 82 -43 22 -93 13 -208
-41 -59 -28 -151 -58 -243 -81 l-148 -37 26 -27 25 -26 -27 -14 c-16 -8 -31
-15 -35 -17 -14 -7 -39 30 -33 48 6 17 3 18 -18 10 -13 -5 -73 -17 -133 -26
-60 -10 -143 -30 -185 -45 -143 -53 -287 -49 -619 15 -96 19 -240 41 -320 49
-162 17 -206 29 -301 86 -57 35 -73 40 -127 40 -57 0 -73 6 -209 75 -140 72
-212 96 -258 87z"/>
<path d="M30402 19303 c-13 -3 -28 -16 -34 -29 -26 -57 34 -115 277 -269 160
-102 187 -113 310 -127 63 -7 125 -23 207 -54 184 -68 214 -74 468 -89 52 -4
163 -13 245 -22 348 -36 590 -17 1200 97 116 22 264 48 330 59 179 31 269 57
381 111 69 33 112 62 138 90 47 52 45 78 -8 104 -35 17 -47 18 -102 9 -34 -6
-107 -31 -161 -56 -67 -30 -146 -55 -242 -77 -78 -17 -172 -41 -209 -51 -95
-28 -230 -57 -315 -69 -39 -6 -121 -25 -182 -42 -107 -31 -115 -32 -300 -32
-204 1 -320 13 -580 64 -82 16 -206 36 -275 45 -163 21 -251 45 -359 99 -88
45 -108 51 -215 61 -45 5 -89 21 -187 71 -163 81 -307 121 -387 107z"/>
</g>
</svg>
