<?xml version="1.0"?>
<svg width="800" height="800" xmlns="http://www.w3.org/2000/svg" xmlns:svg="http://www.w3.org/2000/svg"  version="1.1" xml:space="preserve">

 <g class="layer">
  <title>Layer 1</title>
  <g id="OBJECTS">
   <g id="svg_250">
    <path d="m395.08,461.15c-31.56,-3.44 -54.64,-31.19 -55.61,-32.37l-1.87,-2.29l-1.28,-90.15l4.63,-2.4c13.76,-7.13 37.61,-8.19 50.61,-8.19c2.25,0 3.83,0.03 4.44,0.05c0.61,-0.02 2.18,-0.05 4.44,-0.05c13,0 36.85,1.06 50.6,8.19l4.64,2.4l-1.28,90.15l-1.87,2.29c-0.97,1.18 -24.05,28.93 -55.61,32.37l-0.92,0.1l-0.92,-0.1z" fill="none" id="svg_251"/>
    <path d="m397,456.75c-28.15,-3.07 -49.76,-29.05 -49.99,-29.33l-1.17,-81.98c8.89,-4.61 25.91,-7.25 46.72,-7.25c2.18,0 3.67,0.04 4.21,0.05l0.23,0.01l0.23,-0.01c0.54,-0.01 2.03,-0.05 4.21,-0.05c20.8,0 37.83,2.64 46.72,7.25l-1.17,81.98c-0.21,0.26 -21.84,26.26 -49.99,29.33l0,0z" fill="none" id="svg_252"/>
    <path d="m354.42,358.71c-0.46,0 -0.83,-0.37 -0.84,-0.84l-0.05,-3.8c-0.01,-0.37 0.23,-0.7 0.58,-0.81c1.15,-0.38 2.39,-0.73 3.71,-1.06c0.45,-0.11 0.91,0.16 1.02,0.61c0.12,0.46 -0.16,0.91 -0.61,1.03c-1.05,0.26 -2.06,0.54 -3.01,0.84l0.05,3.17c0.01,0.47 -0.37,0.85 -0.83,0.86c-0.01,0 -0.01,0 -0.02,0z" fill="#ffffff" id="svg_254"/>
    <path d="m365.01,352.44c-0.41,0 -0.77,-0.29 -0.84,-0.7c-0.07,-0.46 0.24,-0.9 0.7,-0.97c2.23,-0.37 4.62,-0.69 7.11,-0.96c0.47,-0.05 0.88,0.29 0.93,0.75c0.05,0.47 -0.28,0.88 -0.75,0.93c-2.46,0.27 -4.82,0.58 -7.02,0.94c-0.04,0.01 -0.09,0.01 -0.13,0.01zm63.97,0c-0.04,0 -0.09,0 -0.13,-0.01c-2.2,-0.36 -4.56,-0.68 -7.02,-0.94c-0.47,-0.05 -0.8,-0.46 -0.75,-0.93c0.05,-0.46 0.46,-0.8 0.93,-0.75c2.49,0.27 4.88,0.59 7.11,0.95c0.46,0.08 0.77,0.51 0.7,0.97c-0.07,0.42 -0.43,0.71 -0.84,0.71zm-49.8,-1.54c-0.44,0 -0.82,-0.35 -0.84,-0.79c-0.03,-0.47 0.32,-0.87 0.79,-0.9c2.31,-0.15 4.72,-0.26 7.15,-0.33c0.46,-0.02 0.85,0.36 0.87,0.83c0.01,0.46 -0.36,0.85 -0.83,0.86c-2.41,0.07 -4.79,0.18 -7.09,0.32c-0.02,0.01 -0.03,0.01 -0.05,0.01zm35.63,0c-0.44,0 -0.03,0 -0.05,-0.01c-2.3,-0.14 -4.68,-0.25 -7.09,-0.32c-0.47,-0.01 -0.84,-0.4 -0.82,-0.86c0.01,-0.47 0.39,-0.87 0.86,-0.83c2.43,0.07 4.84,0.18 7.16,0.33c0.46,0.03 0.81,0.43 0.79,0.89c-0.03,0.45 -0.41,0.8 -0.85,0.8zm-17.79,-0.36l-0.5,-0.01c-0.33,-0.01 -1.44,-0.03 -3.09,-0.04c-0.47,0 -0.85,-0.38 -0.84,-0.85c0,-0.46 0.38,-0.84 0.84,-0.84c0,0 0,0 0.01,0c1.67,0.01 2.79,0.03 3.12,0.04l0.46,0.02l0.4,-0.02c0.35,0 1.46,-0.03 3.14,-0.04c0,0 0,0 0,0c0.47,0 0.84,0.38 0.85,0.84c0,0.47 -0.38,0.85 -0.84,0.85c-1.66,0.01 -2.76,0.03 -3.11,0.04l-0.44,0.01z" fill="#ffffff" id="svg_255"/>
    <path d="m439.57,358.71c0,0 0,0 -0.01,0c-0.47,-0.01 -0.84,-0.39 -0.83,-0.86l0.04,-3.17c-0.94,-0.29 -1.94,-0.58 -3,-0.84c-0.46,-0.11 -0.73,-0.57 -0.62,-1.03c0.12,-0.45 0.58,-0.72 1.03,-0.61c1.32,0.33 2.57,0.69 3.71,1.06c0.35,0.11 0.59,0.44 0.58,0.81l-0.05,3.81c-0.01,0.46 -0.39,0.83 -0.85,0.83z" fill="#ffffff" id="svg_256"/>
    <path d="m397,444.16c-0.04,0 -0.07,0 -0.11,-0.01c-1.27,-0.15 -2.56,-0.36 -3.84,-0.62c-0.46,-0.08 -0.75,-0.5 -0.65,-0.92c0.1,-0.42 0.55,-0.68 1.01,-0.6c1.2,0.24 2.41,0.43 3.59,0.58c1.17,-0.14 2.37,-0.33 3.56,-0.57c0.46,-0.09 0.91,0.17 1.01,0.6c0.1,0.41 -0.19,0.83 -0.65,0.92c-1.27,0.26 -2.55,0.46 -3.81,0.61c-1.26,0.15 -0.07,0.01 -0.11,0.01zm11.05,-2.59c-0.34,0 -0.66,-0.19 -0.79,-0.51c-0.17,-0.41 0.06,-0.85 0.49,-1c2.27,-0.78 4.58,-1.73 6.87,-2.84c0.41,-0.19 0.92,-0.05 1.14,0.33c0.21,0.39 0.05,0.86 -0.36,1.05c-2.35,1.12 -4.72,2.11 -7.05,2.91c-0.1,0.04 -0.2,0.06 -0.3,0.06zm-22.13,-0.01c-0.09,0 -0.19,-0.02 -0.29,-0.06c-2.33,-0.8 -4.7,-1.79 -7.05,-2.91c-0.42,-0.2 -0.58,-0.67 -0.36,-1.05c0.21,-0.38 0.72,-0.53 1.14,-0.33c2.29,1.1 4.6,2.05 6.86,2.84c0.44,0.15 0.66,0.6 0.5,1c-0.13,0.31 -0.45,0.51 -0.8,0.51zm35.66,-6.43c-0.27,0 -0.54,-0.12 -0.7,-0.35c-0.26,-0.36 -0.15,-0.84 0.24,-1.08c2.05,-1.23 4.12,-2.61 6.13,-4.06c0.37,-0.27 0.9,-0.21 1.19,0.13c0.29,0.34 0.22,0.83 -0.14,1.1c-2.06,1.48 -4.16,2.88 -6.25,4.14c-0.15,0.08 -0.31,0.12 -0.47,0.12zm-49.19,-0.01c-0.16,0 -0.32,-0.05 -0.46,-0.13c-2.09,-1.26 -4.2,-2.65 -6.25,-4.14c-0.37,-0.27 -0.43,-0.76 -0.15,-1.1c0.29,-0.33 0.82,-0.4 1.19,-0.13c2.02,1.46 4.08,2.83 6.13,4.07c0.39,0.23 0.5,0.72 0.25,1.08c-0.17,0.22 -0.43,0.35 -0.71,0.35zm61.2,-8.64c-0.22,0 -0.45,-0.08 -0.62,-0.26c-0.31,-0.31 -0.29,-0.8 0.05,-1.1c1.67,-1.41 3.26,-2.85 4.73,-4.27l0,-0.27c0.01,-0.43 0.39,-0.77 0.85,-0.77c0,0 0,0 0.01,0c0.46,0.01 0.84,0.37 0.83,0.79l-0.01,0.58c0,0.19 -0.08,0.38 -0.23,0.52c-1.56,1.53 -3.25,3.07 -5.03,4.58c-0.17,0.13 -0.37,0.2 -0.58,0.2zm-73.21,-0.02c-0.2,0 -0.41,-0.07 -0.57,-0.2c-1.78,-1.51 -3.46,-3.04 -5.02,-4.56c-0.14,-0.14 -0.22,-0.33 -0.23,-0.52l-0.01,-0.6c0,-0.42 0.37,-0.78 0.84,-0.79c0.48,0.01 0.85,0.34 0.86,0.77l0,0.29c1.46,1.42 3.04,2.85 4.7,4.25c0.35,0.29 0.37,0.78 0.06,1.1c-0.17,0.17 -0.4,0.26 -0.63,0.26zm78.32,-12.11c0,0 0,0 -0.01,0c-0.46,-0.01 -0.84,-0.36 -0.83,-0.79l0.11,-7.03c0,-0.42 0.39,-0.77 0.85,-0.76c0.47,0.01 0.84,0.36 0.84,0.79l-0.11,7.02c-0.01,0.43 -0.38,0.77 -0.85,0.77zm-83.41,-0.03c-0.46,0 -0.84,-0.34 -0.84,-0.77l-0.11,-7.02c-0.01,-0.43 0.36,-0.78 0.83,-0.79c0.47,0.01 0.85,0.34 0.86,0.76l0.11,7.03c0,0.43 -0.37,0.78 -0.84,0.79c0,0 0,0 -0.01,0zm83.63,-14.02c0,0 -0.01,0 -0.01,0c-0.47,0 -0.84,-0.36 -0.83,-0.79l0.1,-7.02c0.01,-0.43 0.41,-0.77 0.86,-0.77c0.47,0.01 0.84,0.36 0.84,0.79l-0.11,7.03c-0.01,0.42 -0.39,0.76 -0.85,0.76zm-83.85,-0.03c-0.46,0 -0.83,-0.34 -0.84,-0.76l-0.11,-7.03c-0.01,-0.42 0.37,-0.78 0.83,-0.78c0.45,-0.03 0.85,0.33 0.86,0.76l0.11,7.03c0.01,0.42 -0.37,0.78 -0.83,0.78c-0.01,0 -0.01,0 -0.02,0zm84.07,-14.01c-0.01,0 -0.01,0 -0.01,0c-0.47,-0.01 -0.84,-0.36 -0.84,-0.79l0.11,-7.03c0.01,-0.42 0.38,-0.76 0.86,-0.76c0.47,0.01 0.84,0.36 0.83,0.79l-0.1,7.02c-0.01,0.43 -0.39,0.77 -0.85,0.77zm-84.28,-0.03c-0.46,0 -0.84,-0.34 -0.85,-0.76l-0.11,-7.03c0,-0.43 0.37,-0.78 0.84,-0.79c0.48,-0.02 0.85,0.34 0.85,0.76l0.11,7.03c0.01,0.43 -0.36,0.78 -0.83,0.79c0,0 -0.01,0 -0.01,0zm84.5,-14.02c-0.01,0 -0.01,0 -0.02,0c-0.46,0 -0.84,-0.36 -0.83,-0.78l0.11,-7.03c0.01,-0.43 0.39,-0.76 0.86,-0.76c0.46,0 0.84,0.36 0.83,0.78l-0.11,7.03c-0.01,0.42 -0.38,0.76 -0.84,0.76zm-84.72,-0.02c-0.46,0 -0.84,-0.35 -0.84,-0.77l-0.11,-7.03c-0.01,-0.42 0.36,-0.78 0.83,-0.78c0.46,-0.02 0.85,0.33 0.86,0.76l0.11,7.03c0,0.43 -0.37,0.78 -0.84,0.79c0,0 -0.01,0 -0.01,0z" fill="#ffffff" id="svg_257"/>
   </g>
  </g>
</svg>