<?xml version="1.0" encoding="utf-8"?>
<!-- Generator: Adobe Illustrator 27.5.0, SVG Export Plug-In . SVG Version: 6.00 Build 0)  -->
<svg version="1.1" xmlns="http://www.w3.org/2000/svg" xmlns:xlink="http://www.w3.org/1999/xlink" x="0px" y="0px"
	 viewBox="0 0 500 500" style="enable-background:new 0 0 500 500;" xml:space="preserve">
<g id="BACKGROUND">
	<rect style="fill:transparent" width="500" height="500"/>
</g>
<g id="OBJECTS">

	<g>
		<path style="fill:#FFFFFF;" d="M92.842,50.758c-0.317,6.184-0.176,12.391,0.425,18.554c0.139,1.426,0.749,3.263,2.179,3.206
			c1.376-0.054,1.884-1.811,1.999-3.181c0.824-9.807,0.88-19.679,0.171-29.495c-0.059-0.802-0.129-1.63-0.517-2.334
			c-0.389-0.703-1.188-1.247-1.974-1.082c-1.096,0.232-1.504,1.558-1.677,2.663C92.927,42.405,93.099,45.767,92.842,50.758z"/>
		<path style="fill:#FFFFFF;" d="M73.233,68.706c2.378,2.896,4.54,5.969,6.46,9.188c0.404,0.676,0.774,1.614,0.223,2.177
			c-0.647,0.663-1.748,0.047-2.428-0.582c-3.773-3.477-7.175-7.356-10.131-11.549c-0.664-0.94-1.328-2.146-0.818-3.178
			c0.565-1.147,2.302-1.216,3.332-0.456C70.9,65.064,71.327,66.387,73.233,68.706z"/>
		<path style="fill:#FFFFFF;" d="M95.361,128.858c0.748,6.286,0.624,12.676-0.365,18.928c-0.114,0.717-0.252,1.464-0.697,2.039
			c-0.443,0.574-1.29,0.905-1.918,0.541c-0.632-0.366-0.763-1.205-0.823-1.934c-0.75-9.151-0.911-18.35-0.481-27.521
			c0.038-0.807,0.09-1.65,0.499-2.347c0.409-0.697,1.291-1.187,2.04-0.883c0.883,0.36,1.073,1.503,1.135,2.454
			C94.928,122.924,94.989,125.724,95.361,128.858z"/>
		<path style="fill:#FFFFFF;" d="M59.171,98.499c-4.864,0.124-9.727,0.249-14.59,0.372c-1.383,0.036-3.178-0.236-3.451-1.592
			c-0.163-0.806,0.388-1.624,1.103-2.031c0.716-0.409,1.563-0.499,2.384-0.575c8.13-0.762,16.306-1.045,24.47-0.847
			c0.807,0.02,1.645,0.051,2.365,0.416c0.721,0.364,1.288,1.162,1.123,1.952c-0.24,1.14-1.666,1.493-2.825,1.618
			C66.811,98.129,63.87,98.379,59.171,98.499z"/>
		<path style="fill:#FFFFFF;" d="M131.401,98.432c-5.559,0.19-11.123-0.157-16.683-0.235c-1.083-0.015-2.34-0.121-2.942-1.021
			c-0.671-1.002-0.038-2.453,0.994-3.078c1.031-0.624,2.304-0.649,3.511-0.655c7.39-0.04,14.78-0.08,22.169-0.121
			c0.969-0.005,1.979,0,2.84,0.443c0.86,0.444,1.5,1.476,1.167,2.385c-0.364,0.996-1.593,1.313-2.643,1.461
			C136.524,98.075,133.204,98.37,131.401,98.432z"/>
		<path style="fill:#FFFFFF;" d="M110.442,112.755c2.904,2.911,5.419,6.209,7.46,9.779c0.284,0.497,0.567,1.052,0.46,1.613
			c-0.162,0.837-1.168,1.285-2.009,1.134c-0.838-0.15-1.531-0.723-2.168-1.289c-3.988-3.547-7.454-7.678-10.256-12.219
			c-0.569-0.922-1.099-2.155-0.437-3.011c0.749-0.968,2.367-0.511,3.196,0.389C107.517,110.052,108.408,110.717,110.442,112.755z"/>
		<path style="fill:#FFFFFF;" d="M117.445,73.153c-2.212,2.673-4.638,5.171-7.246,7.461c-0.733,0.644-1.74,1.307-2.604,0.855
			c-0.587-0.306-0.836-1.048-0.754-1.704c0.08-0.656,0.425-1.248,0.775-1.81c2.601-4.173,5.911-7.904,9.746-10.982
			c0.502-0.403,1.035-0.805,1.663-0.953c0.628-0.148,1.377,0.027,1.716,0.576c0.485,0.783-0.066,1.776-0.602,2.525
			C119.127,70.535,118.323,72.091,117.445,73.153z"/>
		<path style="fill:#FFFFFF;" d="M70.636,118.23c2.213-2.674,4.638-5.171,7.246-7.461c0.733-0.644,1.74-1.306,2.604-0.855
			c0.587,0.305,0.836,1.048,0.754,1.704c-0.08,0.657-0.425,1.248-0.775,1.81c-2.601,4.173-5.911,7.904-9.746,10.981
			c-0.502,0.404-1.035,0.807-1.663,0.954c-0.627,0.148-1.377-0.028-1.716-0.576c-0.485-0.783,0.066-1.777,0.602-2.525
			C68.956,120.849,69.758,119.293,70.636,118.23z"/>
		<path style="fill:#FFFFFF;" d="M91.714,96.914c1.414,1.621,0.594,3.496,0.877,5.627c0.08,0.611,0.206,1.246,0.593,1.725
			c0.386,0.479,1.109,0.741,1.638,0.427c0.48-0.284,0.629-0.9,0.722-1.451c0.382-2.299-0.49-4.48,0.775-6.347
			c0.583-0.859,1.775-0.77,2.808-0.682c1.034,0.087,2.153,0.089,3.004-0.503c0.851-0.594,1.186-1.996,0.391-2.662
			c-0.428-0.36-1.03-0.404-1.59-0.432c-1.493-0.074-3.516-0.164-4.48-1.309c-1.248-1.483-0.038-2.819-0.784-4.609
			c-0.302-0.722-0.923-1.53-1.679-1.329c-0.606,0.161-0.854,0.873-0.983,1.487c-0.343,1.653,0.473,3.072-0.77,4.215
			c-0.966,0.888-1.868,0.786-3.644,0.889c-1.924,0.112-2.939,0.674-2.939,2.371C85.653,96.35,89.841,94.767,91.714,96.914z"/>
	</g>

	<path style="fill:#FFFFFF;" d="M301.936,93.781c-11.198-3.712-23.148-6.193-34.734-8.573c2.686-5.986,5.442-10.637,8.111-15.14
		c0.106-0.178,0.101-0.4-0.012-0.574c-0.113-0.173-0.306-0.272-0.52-0.243c-4.735,0.569-9.772,2.401-15.381,5.595
		c-2.702-12.543-5.782-23.703-9.408-34.096c-0.075-0.215-0.275-0.36-0.502-0.364c-0.25,0.017-0.433,0.133-0.516,0.344
		c-4.342,11.008-8.075,23.265-11.102,36.448c-4.637-4.78-8.231-8.107-11.901-11.027c-0.177-0.141-0.423-0.157-0.618-0.041
		c-0.195,0.117-0.296,0.342-0.255,0.564c0.907,4.921,2.567,10.33,4.205,15.61c-9.838,3.384-21.342,7.494-32.556,12.406
		c-0.199,0.087-0.327,0.284-0.325,0.502c0.001,0.217,0.132,0.412,0.332,0.497c9.661,4.09,20.456,7.458,32.096,10.016
		c-2.903,4.707-6.164,9.945-9.428,15.181c-0.121,0.195-0.107,0.444,0.034,0.624c0.142,0.18,0.382,0.252,0.599,0.179
		c5.814-1.943,11.453-3.495,16.954-5c4.205,10.133,7.767,20.934,11.214,31.385c0.073,0.222,0.28,0.373,0.514,0.373
		c0.001,0,0.001,0,0.001,0c0.233,0,0.441-0.149,0.515-0.37c3.401-10.106,7.151-20.546,10.788-30.658
		c2.735,1.024,5.393,2.167,7.969,3.275c2.601,1.118,5.29,2.274,7.978,3.27c0.194,0.074,0.414,0.029,0.564-0.116
		c0.15-0.143,0.206-0.36,0.143-0.558c-1.969-6.194-4.245-11.947-7.146-18.054c10.469-3.673,21.532-7.082,32.236-10.38l0.139-0.043
		c0.227-0.07,0.381-0.278,0.384-0.514C302.311,94.067,302.16,93.855,301.936,93.781z"/>
	<g>
		<path style="fill:#FFFFFF;" d="M420.021,97.717c-1.9-1.454-4.949-1.055-6.41,0.838c-1.461,1.895-1.074,4.944,0.815,6.413
			c1.888,1.468,4.94,1.091,6.415-0.791C422.317,102.293,421.973,99.211,420.021,97.717z"/>
		<path style="fill:#FFFFFF;" d="M421.391,58.373c0.477,8.318,0.653,16.655,0.526,24.987c-0.02,1.355-0.063,2.77-0.7,3.967
			c-0.637,1.198-2.06,2.092-3.349,1.673c-1.601-0.521-2.036-2.54-2.197-4.215c-1.358-14.213-1.758-28.517-1.197-42.784
			c0.039-0.988,0.09-2.007,0.513-2.9c0.424-0.895,1.318-1.64,2.305-1.578c1.791,0.113,2.4,2.415,2.526,4.204
			C420.185,46.883,421.024,51.993,421.391,58.373z"/>
		<path style="fill:#FFFFFF;" d="M416.282,145.967c-0.477-8.318-0.654-16.654-0.527-24.985c0.021-1.356,0.063-2.771,0.7-3.968
			c0.637-1.197,2.061-2.092,3.35-1.673c1.6,0.522,2.036,2.54,2.196,4.215c1.359,14.213,1.759,28.517,1.197,42.784
			c-0.039,0.988-0.089,2.007-0.512,2.9c-0.424,0.895-1.32,1.64-2.306,1.578c-1.791-0.112-2.399-2.414-2.526-4.204
			C417.489,157.458,416.649,152.347,416.282,145.967z"/>
		<path style="fill:#FFFFFF;" d="M380.066,98.086c-6.493-0.033-13.019,0.06-19.376,1.382c-1.1,0.227-2.245,0.514-3.075,1.269
			c-0.832,0.757-1.209,2.129-0.525,3.021c0.6,0.783,1.713,0.9,2.699,0.948c12.823,0.617,25.694,0.178,38.445-1.31
			c1.363-0.159,3.154-0.889,2.863-2.229c-0.2-0.917-1.288-1.285-2.208-1.472C392.678,98.425,386.341,98.116,380.066,98.086z"/>
		<path style="fill:#FFFFFF;" d="M454.428,96.843c6.493-0.031,13.019,0.06,19.376,1.382c1.1,0.228,2.246,0.514,3.076,1.27
			c0.83,0.755,1.208,2.129,0.524,3.021c-0.6,0.782-1.713,0.9-2.698,0.947c-12.823,0.617-25.694,0.178-38.446-1.31
			c-1.362-0.159-3.154-0.889-2.863-2.229c0.2-0.916,1.288-1.285,2.208-1.472C441.817,97.182,448.154,96.873,454.428,96.843z"/>
		<path style="fill:#FFFFFF;" d="M402.099,83.255c-1.934,2.512-4.841,4.252-7.967,4.772c-0.729,0.121-1.48,0.181-2.161,0.468
			c-0.68,0.287-1.299,0.865-1.385,1.599c-0.147,1.249,1.217,2.128,2.437,2.437c3.368,0.852,7.046-0.193,9.812-2.296
			c2.767-2.101,4.69-5.163,5.926-8.41c0.776-2.042,1.299-4.324,0.602-6.395c-0.378-1.121-1.329-2.226-2.507-2.124
			c-0.72,0.063-1.33,0.57-1.762,1.148C403.321,76.833,404.149,80.593,402.099,83.255z"/>
		<path style="fill:#FFFFFF;" d="M430.415,85.608c1.604,3.487,5.412,6.625,9.162,7.447c1.322,0.29,2.777,0.311,3.95-0.366
			c1.171-0.677,1.908-2.215,1.348-3.447c-0.529-1.161-1.892-1.623-3.064-2.129c-4.252-1.836-7.507-5.824-8.454-10.359
			c-0.164-0.785-0.271-1.605-0.677-2.297c-0.406-0.692-1.221-1.227-1.996-1.016c-0.911,0.249-1.286,1.325-1.428,2.259
			C428.793,78.719,428.446,81.329,430.415,85.608z"/>
		<path style="fill:#FFFFFF;" d="M404.439,114.29c2.793,2.873,4.474,6.803,4.62,10.809c0.033,0.914-0.021,1.866-0.452,2.673
			c-0.43,0.807-1.33,1.423-2.233,1.27c-0.784-0.133-1.385-0.803-1.692-1.537c-0.309-0.734-0.385-1.539-0.526-2.323
			c-0.567-3.153-2.276-6.088-4.739-8.137c-0.842-0.702-1.779-1.312-2.47-2.164c-0.69-0.851-1.103-2.039-0.693-3.056
			c0.546-1.353,2.339-1.821,3.729-1.38C401.374,110.885,402.307,112.1,404.439,114.29z"/>
		<path style="fill:#FFFFFF;" d="M435.25,117.851c-1.949,2.039-3.216,4.72-3.554,7.52c-0.137,1.147-0.286,2.554-1.352,2.999
			c-0.777,0.326-1.712-0.101-2.211-0.782c-0.499-0.679-0.651-1.549-0.734-2.388c-0.331-3.43,0.352-7.024,2.308-9.861
			c1.956-2.837,5.267-4.81,8.713-4.757c0.748,0.011,1.526,0.126,2.138,0.558c0.611,0.43,1,1.248,0.741,1.95
			c-0.189,0.517-0.668,0.864-1.121,1.177C438.622,115.346,436.846,116.181,435.25,117.851z"/>
	</g>

	<g>
		<path style="fill:#FFFFFF;" d="M422.731,413.759c0.139,15.013-0.05,30.029-0.565,45.033c-0.029,0.864-0.122,1.85-0.818,2.362
			c-0.82,0.6-2.064,0.138-2.647-0.695c-0.583-0.833-0.682-1.9-0.763-2.914c-1.163-14.599-2.327-29.199-3.49-43.8
			c-14.587-0.693-28.464-1.101-42.339-1.508c-1.082-0.033-2.334-0.153-2.936-1.051c-0.655-0.978-0.101-2.391,0.864-3.065
			c0.964-0.674,2.196-0.8,3.368-0.901c13.625-1.168,27.311-1.613,40.984-1.33c0.15-16.032,0.013-31.31,0.467-46.57
			c0.042-1.441,0.522-3.341,1.965-3.366c1.418-0.024,1.983,1.804,2.114,3.216c0.959,10.261,1.916,20.521,2.842,31.258
			c0.576,4.672,1.153,9.344,2.014,14.705c14.777-0.083,29.556,0.088,44.329,0.51c0.978,0.028,2.002,0.069,2.854,0.549
			c0.853,0.48,1.46,1.552,1.085,2.458c-0.431,1.039-1.775,1.266-2.897,1.342C453.974,411.027,438.786,412.063,422.731,413.759z"/>
		<path style="fill:#FFFFFF;" d="M397.431,385.078c2.241,1.985,4.386,4.079,6.426,6.272c0.478,0.513,0.962,1.049,1.206,1.708
			c0.247,0.656,0.203,1.471-0.286,1.973c-0.471,0.484-1.238,0.565-1.886,0.379c-0.646-0.186-1.202-0.596-1.742-0.998
			c-3.779-2.811-7.617-5.68-10.399-9.48c-0.484-0.659-0.952-1.468-0.708-2.248c0.268-0.854,1.327-1.247,2.204-1.072
			c0.879,0.175,1.611,0.763,2.294,1.34C395.226,383.529,396.107,383.905,397.431,385.078z"/>
		<path style="fill:#FFFFFF;" d="M404.601,431.727c-2.605,3.072-5.403,5.98-8.37,8.705c-0.68,0.625-1.581,1.285-2.443,0.952
			c-0.637-0.247-0.974-0.985-0.954-1.666c0.018-0.683,0.322-1.322,0.635-1.929c2.619-5.071,6.473-9.497,11.135-12.787
			c0.637-0.451,1.503-0.884,2.145-0.442c0.475,0.328,0.571,0.986,0.559,1.564C407.263,428.091,406.219,429.822,404.601,431.727z"/>
		<path style="fill:#FFFFFF;" d="M442.97,388.431c-1.863,3.012-4.297,5.671-7.136,7.788c-0.618,0.461-1.564,0.871-2.073,0.291
			c-0.388-0.445-0.184-1.129,0.053-1.671c2.113-4.825,5.234-9.207,9.1-12.785c0.505-0.467,1.213-0.95,1.824-0.633
			c0.611,0.316,0.624,1.183,0.48,1.857C444.857,384.977,444.097,386.609,442.97,388.431z"/>
		<path style="fill:#FFFFFF;" d="M442.933,430.839c2.139,2.585,4.279,5.169,6.417,7.753c0.491,0.595,1.013,1.368,0.704,2.075
			c-0.334,0.761-1.4,0.851-2.191,0.591c-1.45-0.477-2.536-1.661-3.552-2.8c-2.631-2.948-5.28-5.921-7.291-9.319
			c-0.49-0.827-0.863-2.058-0.074-2.605c0.529-0.367,1.255-0.146,1.83,0.147C440.209,427.409,441.173,428.713,442.933,430.839z"/>
		<path style="fill:#FFFFFF;" d="M405.246,374.523c0.587,1.314,1.084,2.669,1.484,4.053c0.195,0.674,0.226,1.63-0.445,1.835
			c-0.497,0.151-0.972-0.273-1.302-0.674c-1.399-1.698-2.434-3.692-3.017-5.812c-0.178-0.646-0.263-1.457,0.263-1.871
			c0.461-0.363,1.179-0.182,1.591,0.237C404.232,372.71,404.641,373.172,405.246,374.523z"/>
		<path style="fill:#FFFFFF;" d="M382.493,397.548c1.438-0.078,2.88-0.057,4.316,0.066c0.699,0.059,1.602,0.371,1.553,1.072
			c-0.037,0.517-0.602,0.81-1.094,0.975c-2.086,0.698-4.32,0.95-6.508,0.735c-0.665-0.064-1.454-0.275-1.652-0.914
			c-0.174-0.561,0.252-1.167,0.79-1.402C380.437,397.845,381.015,397.629,382.493,397.548z"/>
		<path style="fill:#FFFFFF;" d="M387.367,427.195c1.199-0.799,2.452-1.515,3.749-2.139c0.633-0.304,1.571-0.494,1.884,0.133
			c0.233,0.465-0.106,1.003-0.447,1.396c-1.441,1.663-3.235,3.016-5.228,3.944c-0.606,0.283-1.391,0.502-1.887,0.053
			c-0.436-0.395-0.377-1.134-0.034-1.609C385.75,428.496,386.136,428.017,387.367,427.195z"/>
		<path style="fill:#FFFFFF;" d="M407.453,442.034c0.421-1.378,0.935-2.726,1.542-4.031c0.295-0.637,0.899-1.378,1.539-1.092
			c0.474,0.212,0.555,0.844,0.541,1.363c-0.061,2.199-0.589,4.383-1.54,6.365c-0.29,0.603-0.758,1.271-1.426,1.238
			c-0.587-0.028-1.01-0.637-1.046-1.224C407.028,444.067,407.023,443.45,407.453,442.034z"/>
		<path style="fill:#FFFFFF;" d="M431.385,441.551c-0.418-1.379-0.74-2.786-0.963-4.208c-0.108-0.693-0.02-1.646,0.672-1.764
			c0.512-0.088,0.931,0.391,1.209,0.832c1.173,1.859,1.95,3.968,2.262,6.146c0.095,0.662,0.077,1.477-0.496,1.822
			c-0.503,0.303-1.193,0.033-1.55-0.435C432.162,443.476,431.815,442.967,431.385,441.551z"/>
		<path style="fill:#FFFFFF;" d="M452.975,421.617c-1.405-0.312-2.789-0.722-4.139-1.226c-0.657-0.246-1.442-0.789-1.207-1.451
			c0.174-0.489,0.798-0.617,1.317-0.645c2.196-0.109,4.414,0.249,6.464,1.045c0.624,0.242,1.326,0.658,1.346,1.326
			c0.016,0.587-0.558,1.057-1.139,1.137C455.035,421.884,454.421,421.938,452.975,421.617z"/>
		<path style="fill:#FFFFFF;" d="M451.847,396.397c-1.29,0.64-2.624,1.19-3.99,1.646c-0.665,0.221-1.619,0.29-1.851-0.372
			c-0.172-0.49,0.233-0.982,0.621-1.329c1.64-1.464,3.592-2.578,5.687-3.246c0.638-0.204,1.444-0.322,1.878,0.187
			c0.383,0.447,0.23,1.172-0.172,1.6C453.617,395.312,453.174,395.739,451.847,396.397z"/>
		<path style="fill:#FFFFFF;" d="M434.319,375.79c-0.625,1.297-1.341,2.551-2.141,3.748c-0.389,0.584-1.1,1.224-1.688,0.844
			c-0.438-0.283-0.42-0.918-0.326-1.43c0.396-2.163,1.253-4.24,2.499-6.053c0.377-0.551,0.942-1.14,1.598-1.005
			c0.576,0.118,0.9,0.785,0.846,1.371C435.051,373.848,434.962,374.457,434.319,375.79z"/>
	</g>
	
</g>
</svg>
