<?xml version="1.0" encoding="utf-8"?>
<!-- Generator: Adobe Illustrator 27.5.0, SVG Export Plug-In . SVG Version: 6.00 Build 0)  -->
<svg version="1.1" xmlns="http://www.w3.org/2000/svg" xmlns:xlink="http://www.w3.org/1999/xlink" x="0px" y="0px" xml:space="preserve">


	<g id="OBJECTS">

		<g>
			<path style="fill:#FFFFFF;" d="M92.842,50.758c-0.317,6.184-0.176,12.391,0.425,18.554c0.139,1.426,0.749,3.263,2.179,3.206
				c1.376-0.054,1.884-1.811,1.999-3.181c0.824-9.807,0.88-19.679,0.171-29.495c-0.059-0.802-0.129-1.63-0.517-2.334
				c-0.389-0.703-1.188-1.247-1.974-1.082c-1.096,0.232-1.504,1.558-1.677,2.663C92.927,42.405,93.099,45.767,92.842,50.758z"/>
			<path style="fill:#FFFFFF;" d="M73.233,68.706c2.378,2.896,4.54,5.969,6.46,9.188c0.404,0.676,0.774,1.614,0.223,2.177
				c-0.647,0.663-1.748,0.047-2.428-0.582c-3.773-3.477-7.175-7.356-10.131-11.549c-0.664-0.94-1.328-2.146-0.818-3.178
				c0.565-1.147,2.302-1.216,3.332-0.456C70.9,65.064,71.327,66.387,73.233,68.706z"/>
			<path style="fill:#FFFFFF;" d="M95.361,128.858c0.748,6.286,0.624,12.676-0.365,18.928c-0.114,0.717-0.252,1.464-0.697,2.039
				c-0.443,0.574-1.29,0.905-1.918,0.541c-0.632-0.366-0.763-1.205-0.823-1.934c-0.75-9.151-0.911-18.35-0.481-27.521
				c0.038-0.807,0.09-1.65,0.499-2.347c0.409-0.697,1.291-1.187,2.04-0.883c0.883,0.36,1.073,1.503,1.135,2.454
				C94.928,122.924,94.989,125.724,95.361,128.858z"/>
			<path style="fill:#FFFFFF;" d="M59.171,98.499c-4.864,0.124-9.727,0.249-14.59,0.372c-1.383,0.036-3.178-0.236-3.451-1.592
				c-0.163-0.806,0.388-1.624,1.103-2.031c0.716-0.409,1.563-0.499,2.384-0.575c8.13-0.762,16.306-1.045,24.47-0.847
				c0.807,0.02,1.645,0.051,2.365,0.416c0.721,0.364,1.288,1.162,1.123,1.952c-0.24,1.14-1.666,1.493-2.825,1.618
				C66.811,98.129,63.87,98.379,59.171,98.499z"/>
			<path style="fill:#FFFFFF;" d="M131.401,98.432c-5.559,0.19-11.123-0.157-16.683-0.235c-1.083-0.015-2.34-0.121-2.942-1.021
				c-0.671-1.002-0.038-2.453,0.994-3.078c1.031-0.624,2.304-0.649,3.511-0.655c7.39-0.04,14.78-0.08,22.169-0.121
				c0.969-0.005,1.979,0,2.84,0.443c0.86,0.444,1.5,1.476,1.167,2.385c-0.364,0.996-1.593,1.313-2.643,1.461
				C136.524,98.075,133.204,98.37,131.401,98.432z"/>
			<path style="fill:#FFFFFF;" d="M110.442,112.755c2.904,2.911,5.419,6.209,7.46,9.779c0.284,0.497,0.567,1.052,0.46,1.613
				c-0.162,0.837-1.168,1.285-2.009,1.134c-0.838-0.15-1.531-0.723-2.168-1.289c-3.988-3.547-7.454-7.678-10.256-12.219
				c-0.569-0.922-1.099-2.155-0.437-3.011c0.749-0.968,2.367-0.511,3.196,0.389C107.517,110.052,108.408,110.717,110.442,112.755z"/>
			<path style="fill:#FFFFFF;" d="M117.445,73.153c-2.212,2.673-4.638,5.171-7.246,7.461c-0.733,0.644-1.74,1.307-2.604,0.855
				c-0.587-0.306-0.836-1.048-0.754-1.704c0.08-0.656,0.425-1.248,0.775-1.81c2.601-4.173,5.911-7.904,9.746-10.982
				c0.502-0.403,1.035-0.805,1.663-0.953c0.628-0.148,1.377,0.027,1.716,0.576c0.485,0.783-0.066,1.776-0.602,2.525
				C119.127,70.535,118.323,72.091,117.445,73.153z"/>
			<path style="fill:#FFFFFF;" d="M70.636,118.23c2.213-2.674,4.638-5.171,7.246-7.461c0.733-0.644,1.74-1.306,2.604-0.855
				c0.587,0.305,0.836,1.048,0.754,1.704c-0.08,0.657-0.425,1.248-0.775,1.81c-2.601,4.173-5.911,7.904-9.746,10.981
				c-0.502,0.404-1.035,0.807-1.663,0.954c-0.627,0.148-1.377-0.028-1.716-0.576c-0.485-0.783,0.066-1.777,0.602-2.525
				C68.956,120.849,69.758,119.293,70.636,118.23z"/>
			<path style="fill:#FFFFFF;" d="M91.714,96.914c1.414,1.621,0.594,3.496,0.877,5.627c0.08,0.611,0.206,1.246,0.593,1.725
				c0.386,0.479,1.109,0.741,1.638,0.427c0.48-0.284,0.629-0.9,0.722-1.451c0.382-2.299-0.49-4.48,0.775-6.347
				c0.583-0.859,1.775-0.77,2.808-0.682c1.034,0.087,2.153,0.089,3.004-0.503c0.851-0.594,1.186-1.996,0.391-2.662
				c-0.428-0.36-1.03-0.404-1.59-0.432c-1.493-0.074-3.516-0.164-4.48-1.309c-1.248-1.483-0.038-2.819-0.784-4.609
				c-0.302-0.722-0.923-1.53-1.679-1.329c-0.606,0.161-0.854,0.873-0.983,1.487c-0.343,1.653,0.473,3.072-0.77,4.215
				c-0.966,0.888-1.868,0.786-3.644,0.889c-1.924,0.112-2.939,0.674-2.939,2.371C85.653,96.35,89.841,94.767,91.714,96.914z"/>
		</g>


	</g>

</svg>

