<?xml version="1.0"?>
<svg width="500" height="500" xmlns="http://www.w3.org/2000/svg" xmlns:svg="http://www.w3.org/2000/svg" enable-background="new 0 0 500 500" version="1.1" xml:space="preserve">

 <g class="layer">
  <title>Layer 1</title>
  <g id="svg_73">
   <path d="m255.38,245.83c0.36,-30.02 0.65,-30.37 25.56,-30.81c-24.91,-0.43 -25.2,-0.79 -25.56,-30.8c-0.36,30.01 -0.66,30.37 -25.56,30.8c24.9,0.44 25.2,0.79 25.56,30.81z" fill="#ffffff" id="svg_74"/>
   <path d="m287.61,224.15c-0.37,30.01 -0.66,30.37 -25.56,30.8c24.9,0.44 25.2,0.79 25.56,30.81c0.36,-30.02 0.65,-30.37 25.55,-30.81c-24.9,-0.43 -25.19,-0.78 -25.55,-30.8z" fill="#ffffff" id="svg_75"/>
   <path d="m223.45,221.74c-0.55,45.33 -0.99,45.87 -38.6,46.52c37.61,0.66 38.05,1.2 38.6,46.53c0.55,-45.33 0.99,-45.87 38.6,-46.53c-37.61,-0.65 -38.05,-1.19 -38.6,-46.52z" fill="#ffffff" id="svg_76"/>
  </g>
  <g id="svg_77">
   <path d="m254.38,245.83c0.36,-30.02 0.65,-30.37 25.56,-30.81c-24.91,-0.43 -25.2,-0.79 -25.56,-30.8c-0.36,30.01 -0.66,30.37 -25.56,30.8c24.9,0.44 25.2,0.79 25.56,30.81z" fill="#ffffff" id="svg_78"/>
   <path d="m286.61,224.15c-0.37,30.01 -0.66,30.37 -25.56,30.8c24.9,0.44 25.2,0.79 25.56,30.81c0.36,-30.02 0.65,-30.37 25.55,-30.81c-24.9,-0.43 -25.19,-0.78 -25.55,-30.8z" fill="#ffffff" id="svg_79"/>
   <path d="m222.45,221.74c-0.55,45.33 -0.99,45.87 -38.6,46.52c37.61,0.66 38.05,1.2 38.6,46.53c0.55,-45.33 0.99,-45.87 38.6,-46.53c-37.61,-0.65 -38.05,-1.19 -38.6,-46.52z" fill="#ffffff" id="svg_80"/>
  </g>
  <g id="svg_81">
   <path d="m254.38,244.83c0.36,-30.02 0.65,-30.37 25.56,-30.81c-24.91,-0.43 -25.2,-0.79 -25.56,-30.8c-0.36,30.01 -0.66,30.37 -25.56,30.8c24.9,0.44 25.2,0.79 25.56,30.81z" fill="#ffffff" id="svg_82"/>
   <path d="m286.61,223.15c-0.37,30.01 -0.66,30.37 -25.56,30.8c24.9,0.44 25.2,0.79 25.56,30.81c0.36,-30.02 0.65,-30.37 25.55,-30.81c-24.9,-0.43 -25.19,-0.78 -25.55,-30.8z" fill="#ffffff" id="svg_83"/>
   <path d="m222.45,220.74c-0.55,45.33 -0.99,45.87 -38.6,46.52c37.61,0.66 38.05,1.2 38.6,46.53c0.55,-45.33 0.99,-45.87 38.6,-46.53c-37.61,-0.65 -38.05,-1.19 -38.6,-46.52z" fill="#ffffff" id="svg_84"/>
  </g>
 </g>
</svg>