<svg width="218" height="218" viewBox="0 0 218 218" fill="none" xmlns="http://www.w3.org/2000/svg">
<path d="M156.688 193.703C156.696 195.234 156.158 196.717 155.171 197.887C154.183 199.056 152.812 199.836 151.301 200.085C142.052 201.561 116.599 204.375 109 204.375C101.401 204.375 75.948 201.561 66.6987 200.085C65.1886 199.836 63.8168 199.056 62.8296 197.887C61.8424 196.717 61.3045 195.234 61.3126 193.703V38.959H156.688V193.703Z" fill="#EEEEEE"/>
<path d="M146.469 183.698C146.469 186.878 144.758 189.585 142.429 190.08C135.492 191.555 114.7 194.37 109 194.37C103.3 194.37 82.5079 191.556 75.5706 190.08C73.242 189.585 71.5312 186.878 71.5312 183.698V38.959H146.469V183.698Z" fill="#333333"/>
<path d="M177.125 31.7054C183.429 31.7054 183.437 22.1636 177.125 22.1636H40.8748C34.5712 22.1636 34.5631 31.7054 40.8748 31.7054H177.125Z" fill="#C5C5DD"/>
<path d="M76.2148 46.0176V17.5294C76.2148 14.7146 80.4727 14.7107 80.4727 17.5294V46.0176C80.4727 48.8324 76.2148 48.8363 76.2148 46.0176ZM137.527 46.0176V17.5294C137.527 14.7146 141.785 14.7107 141.785 17.5294V46.0176C141.785 48.8324 137.527 48.8363 137.527 46.0176Z" fill="#FFE05F"/>
<mask id="mask0_33_269" style="mask-type:luminance" maskUnits="userSpaceOnUse" x="81" y="88" width="57" height="57">
<path d="M81 145V88H137.982V145H81Z" fill="white"/>
</mask>
<g mask="url(#mask0_33_269)">
<path fill-rule="evenodd" clip-rule="evenodd" d="M137.982 116.482C137.982 132.232 125.214 145 109.464 145C93.7143 145 80.9463 132.232 80.9463 116.482C80.9463 100.732 93.7143 87.9644 109.464 87.9644C125.214 87.9644 137.982 100.732 137.982 116.482Z" fill="#333333"/>
</g>
<path fill-rule="evenodd" clip-rule="evenodd" d="M128.065 111.191C127.93 110.776 127.681 110.406 127.347 110.124C127.013 109.843 126.607 109.66 126.175 109.596L116.08 108.13L111.565 98.9838C111.372 98.5912 111.073 98.2606 110.701 98.0294C110.33 97.7981 109.901 97.6756 109.464 97.6756C109.026 97.6756 108.598 97.7981 108.226 98.0294C107.855 98.2606 107.556 98.5912 107.363 98.9838L102.85 108.13L92.7546 109.596C92.3219 109.659 91.9154 109.841 91.5811 110.123C91.2468 110.405 90.9981 110.775 90.863 111.19C90.728 111.606 90.7121 112.052 90.817 112.476C90.922 112.901 91.1437 113.287 91.457 113.592L98.7629 120.712L97.0385 130.767C96.9812 131.103 96.9979 131.447 97.0874 131.776C97.1769 132.105 97.3371 132.411 97.5567 132.671C97.7764 132.932 98.0503 133.141 98.3592 133.285C98.6682 133.429 99.0049 133.504 99.3457 133.505C99.7183 133.505 100.093 133.416 100.435 133.235L109.464 128.488L118.493 133.235C118.879 133.439 119.315 133.53 119.751 133.499C120.187 133.467 120.605 133.314 120.959 133.057C121.312 132.801 121.587 132.45 121.752 132.045C121.917 131.64 121.965 131.198 121.891 130.767L120.167 120.712L127.472 113.592C127.785 113.287 128.006 112.9 128.111 112.476C128.215 112.052 128.2 111.607 128.065 111.191Z" fill="white"/>
</svg>
