<?xml version="1.0"?>
<svg width="500" height="500" xmlns="http://www.w3.org/2000/svg" xmlns:svg="http://www.w3.org/2000/svg" enable-background="new 0 0 500 500" version="1.1" xml:space="preserve">

 <g class="layer">
  <title>Layer 1</title>
  <g id="svg_108">
   <path d="m250.8,247.5c-8.97,-4.42 -26.11,-2.52 -57.38,-0.23c-0.29,0.02 -0.29,0.45 0,0.47c31.27,2.29 48.41,4.19 57.38,-0.24z" fill="#ffffff" id="svg_109"/>
   <path d="m257.23,183.93c-0.02,-0.29 -0.45,-0.29 -0.47,0c-2.29,31.27 -4.19,48.41 0.24,57.37c4.42,-8.96 2.52,-26.1 0.23,-57.37z" fill="#ffffff" id="svg_110"/>
   <path d="m257.23,311.08c2.29,-31.27 4.19,-48.41 -0.23,-57.37c-4.43,8.96 -2.53,26.1 -0.24,57.37c0.02,0.29 0.45,0.29 0.47,0z" fill="#ffffff" id="svg_111"/>
   <path d="m263.2,247.5c8.96,4.43 26.1,2.53 57.37,0.24c0.3,-0.02 0.3,-0.45 0,-0.47c-31.27,-2.29 -48.41,-4.19 -57.37,0.23z" fill="#ffffff" id="svg_112"/>
   <path d="m212.21,292.63c23.73,-20.49 37.19,-31.27 40.4,-40.74c-9.46,3.21 -20.24,16.67 -40.74,40.4c-0.19,0.22 0.12,0.53 0.34,0.34z" fill="#ffffff" id="svg_113"/>
   <path d="m302.12,292.29c-20.49,-23.72 -31.27,-37.19 -40.74,-40.4c3.21,9.47 16.67,20.25 40.4,40.74c0.23,0.19 0.53,-0.12 0.34,-0.34z" fill="#ffffff" id="svg_114"/>
   <path d="m301.78,202.38c-23.72,20.49 -37.19,31.27 -40.4,40.74c9.47,-3.21 20.25,-16.67 40.74,-40.4c0.19,-0.23 -0.11,-0.53 -0.34,-0.34z" fill="#ffffff" id="svg_115"/>
   <path d="m211.88,202.72c20.49,23.73 31.27,37.19 40.73,40.4c-3.21,-9.47 -16.67,-20.25 -40.4,-40.74c-0.22,-0.19 -0.53,0.11 -0.33,0.34z" fill="#ffffff" id="svg_116"/>
   <path d="m253.1,245.99c-4.56,-4.97 -15.79,-7.95 -36.01,-14.14c-0.19,-0.06 -0.29,0.21 -0.11,0.29c19.09,9.07 29.4,14.44 36.12,13.85z" fill="#ffffff" id="svg_117"/>
   <path d="m272.36,207.49c-9.07,19.09 -14.44,29.4 -13.85,36.12c4.97,-4.56 7.96,-15.8 14.15,-36.01c0.05,-0.19 -0.22,-0.29 -0.3,-0.11z" fill="#ffffff" id="svg_118"/>
   <path d="m241.63,287.52c9.07,-19.09 14.44,-29.4 13.85,-36.12c-4.96,4.56 -7.95,15.8 -14.14,36.01c-0.06,0.19 0.21,0.29 0.29,0.11z" fill="#ffffff" id="svg_119"/>
   <path d="m297.02,262.87c-19.1,-9.07 -29.41,-14.44 -36.13,-13.85c4.56,4.96 15.8,7.95 36.01,14.14c0.19,0.06 0.29,-0.21 0.12,-0.29z" fill="#ffffff" id="svg_120"/>
   <path d="m217.83,264.94c19.92,-7.09 31.01,-10.58 35.34,-15.75c-6.73,-0.29 -16.8,5.54 -35.46,15.46c-0.18,0.09 -0.06,0.36 0.12,0.29z" fill="#ffffff" id="svg_121"/>
   <path d="m274.43,286.67c-7.09,-19.92 -10.58,-31.01 -15.75,-35.34c-0.29,6.73 5.54,16.8 15.46,35.46c0.09,0.18 0.36,0.06 0.29,-0.12z" fill="#ffffff" id="svg_122"/>
   <path d="m296.16,230.07c-19.92,7.09 -31.01,10.58 -35.34,15.75c6.74,0.29 16.8,-5.54 35.47,-15.46c0.17,-0.09 0.06,-0.36 -0.13,-0.29z" fill="#ffffff" id="svg_123"/>
   <path d="m239.56,208.34c7.09,19.92 10.58,31.01 15.75,35.34c0.29,-6.73 -5.54,-16.8 -15.46,-35.46c-0.09,-0.18 -0.35,-0.06 -0.29,0.12z" fill="#ffffff" id="svg_124"/>
  </g>
 </g>
</svg>