<?xml version="1.0"?>
<svg width="500" height="500" xmlns="http://www.w3.org/2000/svg" xmlns:svg="http://www.w3.org/2000/svg" enable-background="new 0 0 500 500" version="1.1" xml:space="preserve">

 <g class="layer">
  <title>Layer 1</title>
  <g id="svg_89">
   <path d="m238.47,252.85c-0.04,0.11 -0.08,0.22 -0.11,0.33c0.1,-0.04 0.21,-0.08 0.31,-0.11c0.95,1.06 1.73,2.32 2.36,3.79c0.63,-1.47 1.41,-2.73 2.36,-3.79c0.1,0.03 0.21,0.07 0.31,0.11c-0.03,-0.11 -0.07,-0.22 -0.11,-0.33c0.87,-0.93 1.86,-1.7 3.01,-2.35c-1.14,-0.64 -2.14,-1.42 -3.01,-2.35c0.04,-0.1 0.08,-0.21 0.11,-0.32c-0.1,0.03 -0.21,0.07 -0.31,0.11c-0.95,-1.07 -1.73,-2.33 -2.36,-3.79c-0.63,1.46 -1.41,2.72 -2.36,3.79c-0.1,-0.04 -0.21,-0.08 -0.31,-0.11c0.03,0.11 0.07,0.22 0.11,0.32c-0.87,0.93 -1.86,1.71 -3.01,2.35c1.15,0.65 2.15,1.42 3.01,2.35z" fill="#ffffff" id="svg_90"/>
   <path d="m241.24,185.35c-0.01,-0.31 -0.4,-0.31 -0.42,0c-2.06,32.04 -3.76,49.61 0.21,58.8c3.97,-9.19 2.27,-26.76 0.21,-58.8z" fill="#ffffff" id="svg_91"/>
   <path d="m240.82,315.66c0.02,0.3 0.4,0.3 0.43,0c2.05,-32.05 3.75,-49.62 -0.22,-58.8c-3.97,9.18 -2.27,26.75 -0.21,58.8z" fill="#ffffff" id="svg_92"/>
   <path d="m298.14,250.74c0.27,-0.02 0.27,-0.46 0,-0.48c-28.09,-2.35 -43.48,-4.29 -51.54,0.24c8.06,4.53 23.45,2.59 51.54,0.24z" fill="#ffffff" id="svg_93"/>
   <path d="m235.46,250.5c-8.05,-4.53 -23.45,-2.59 -51.54,-0.24c-0.26,0.02 -0.26,0.46 0,0.48c28.09,2.35 43.49,4.29 51.54,-0.24z" fill="#ffffff" id="svg_94"/>
   <path d="m268.21,277.89c0.14,0.11 0.32,-0.07 0.21,-0.21c-12.43,-14.39 -18.97,-22.55 -24.72,-24.5c1.96,5.74 10.12,12.28 24.51,24.71z" fill="#ffffff" id="svg_95"/>
   <path d="m213.85,223.12c-0.14,-0.12 -0.32,0.06 -0.2,0.2c12.42,14.39 18.97,22.55 24.71,24.51c-1.96,-5.75 -10.12,-12.29 -24.51,-24.71z" fill="#ffffff" id="svg_96"/>
   <path d="m268.42,223.32c0.11,-0.14 -0.07,-0.32 -0.2,-0.2c-14.4,12.42 -22.56,18.96 -24.51,24.71c5.74,-1.96 12.28,-10.12 24.71,-24.51z" fill="#ffffff" id="svg_97"/>
   <path d="m213.65,277.68c-0.12,0.14 0.06,0.32 0.2,0.21c14.39,-12.43 22.55,-18.97 24.51,-24.71c-5.74,1.95 -12.29,10.11 -24.71,24.5z" fill="#ffffff" id="svg_98"/>
   <path d="m294.01,212.66c-2.85,-1.6 -8.3,-0.91 -18.24,-0.08c-0.09,0 -0.09,0.16 0,0.17c9.94,0.83 15.39,1.51 18.24,-0.09z" fill="#ffffff" id="svg_99"/>
   <path d="m316.21,212.75c0.09,-0.01 0.09,-0.17 0,-0.17c-9.94,-0.83 -15.39,-1.52 -18.24,0.08c2.85,1.6 8.3,0.92 18.24,0.09z" fill="#ffffff" id="svg_100"/>
   <path d="m296.07,189.59c-0.01,-0.1 -0.15,-0.1 -0.16,0c-0.72,11.34 -1.32,17.56 0.08,20.81c1.4,-3.25 0.8,-9.47 0.08,-20.81z" fill="#ffffff" id="svg_101"/>
   <path d="m295.91,235.73c0.01,0.1 0.15,0.1 0.16,0c0.72,-11.34 1.32,-17.55 -0.08,-20.81c-1.4,3.26 -0.8,9.47 -0.08,20.81z" fill="#ffffff" id="svg_102"/>
   <path d="m305.69,203.04c0.04,-0.05 -0.03,-0.11 -0.08,-0.07c-5.09,4.4 -7.98,6.71 -8.67,8.75c2.03,-0.7 4.35,-3.59 8.75,-8.68z" fill="#ffffff" id="svg_103"/>
   <path d="m286.37,202.97c-0.05,-0.04 -0.12,0.02 -0.07,0.07c4.4,5.09 6.71,7.98 8.74,8.68c-0.69,-2.04 -3.58,-4.35 -8.67,-8.75z" fill="#ffffff" id="svg_104"/>
   <path d="m286.3,222.29c-0.05,0.04 0.02,0.11 0.07,0.07c5.09,-4.4 7.98,-6.72 8.67,-8.75c-2.03,0.69 -4.35,3.58 -8.74,8.68z" fill="#ffffff" id="svg_105"/>
   <path d="m295.04,213.61c0.04,-0.01 0.08,-0.03 0.12,-0.04c0.33,0.38 0.61,0.83 0.83,1.35c0.23,-0.52 0.5,-0.97 0.84,-1.35c0.03,0.01 0.07,0.03 0.11,0.04c-0.02,-0.04 -0.03,-0.07 -0.04,-0.11c0.31,-0.33 0.66,-0.61 1.07,-0.84c-0.41,-0.23 -0.76,-0.51 -1.07,-0.84c0.01,-0.03 0.02,-0.07 0.04,-0.11c-0.04,0.02 -0.08,0.03 -0.11,0.04c-0.34,-0.38 -0.61,-0.83 -0.84,-1.35c-0.22,0.52 -0.5,0.97 -0.83,1.35c-0.04,-0.01 -0.08,-0.02 -0.12,-0.04c0.02,0.04 0.03,0.08 0.04,0.11c-0.31,0.33 -0.66,0.61 -1.07,0.84c0.41,0.23 0.76,0.51 1.07,0.84c-0.01,0.04 -0.02,0.07 -0.04,0.11z" fill="#ffffff" id="svg_106"/>
   <path d="m305.61,222.36c0.05,0.04 0.12,-0.03 0.08,-0.07c-4.4,-5.1 -6.72,-7.99 -8.75,-8.68c0.69,2.03 3.58,4.35 8.67,8.75z" fill="#ffffff" id="svg_107"/>
  </g>
 </g>
</svg>