<?xml version="1.0"?>
<svg width="500" height="500" xmlns="http://www.w3.org/2000/svg" xmlns:svg="http://www.w3.org/2000/svg" enable-background="new 0 0 500 500" version="1.1" xml:space="preserve">
 <!-- Created with SVG-edit - https://github.com/SVG-Edit/svgedit-->
 <g class="layer">
  <title>Layer 1</title>
  <path d="m309.58,245.86c-11.2,-3.71 -23.15,-6.19 -34.74,-8.57c2.69,-5.99 5.44,-10.64 8.11,-15.14c0.11,-0.18 0.1,-0.4 -0.01,-0.58c-0.11,-0.17 -0.3,-0.27 -0.52,-0.24c-4.73,0.57 -9.77,2.4 -15.38,5.6c-2.7,-12.55 -5.78,-23.71 -9.41,-34.1c-0.07,-0.21 -0.27,-0.36 -0.5,-0.36c-0.25,0.01 -0.43,0.13 -0.52,0.34c-4.34,11.01 -8.07,23.27 -11.1,36.45c-4.64,-4.78 -8.23,-8.11 -11.9,-11.03c-0.18,-0.14 -0.42,-0.16 -0.62,-0.04c-0.19,0.12 -0.29,0.34 -0.25,0.56c0.04,0.22 2.56,10.33 4.2,15.61c-9.83,3.39 -21.34,7.5 -32.55,12.41c-0.2,0.09 -0.33,0.28 -0.33,0.5c0,0.22 0.13,0.41 0.33,0.5c9.67,4.09 20.46,7.46 32.1,10.02c-2.9,4.7 -6.16,9.94 -9.43,15.18c-0.12,0.19 -0.1,0.44 0.04,0.62c0.14,0.18 0.38,0.25 0.6,0.18c5.81,-1.94 11.45,-3.5 16.95,-5c4.2,10.13 7.77,20.93 11.21,31.38c0.08,0.23 0.28,0.38 0.52,0.38c0,0 0,0 0,0c0.23,0 0.44,-0.15 0.51,-0.37c3.4,-10.11 7.15,-20.55 10.79,-30.66c2.74,1.02 5.39,2.17 7.97,3.27c2.6,1.12 5.29,2.28 7.98,3.27c0.19,0.08 0.41,0.03 0.56,-0.11c0.15,-0.15 0.21,-0.36 0.14,-0.56c-1.96,-6.19 -4.24,-11.95 -7.14,-18.05c10.47,-3.68 21.53,-7.09 32.23,-10.38l0.14,-0.05c0.23,-0.07 0.38,-0.28 0.39,-0.51c0,-0.23 -0.15,-0.44 -0.37,-0.52z" fill="#ffffff" id="svg_2"/>
 </g>
</svg>