<svg width="484" height="404" viewBox="0 0 484 404" fill="none" xmlns="http://www.w3.org/2000/svg">
<g clip-path="url(#clip0_287_866)">
<g filter="url(#filter0_f_287_866)">
<circle cx="105" cy="150" r="122" stroke="#BEDF64" stroke-opacity="0.6" stroke-width="12" stroke-linecap="round" stroke-dasharray="12 35 36 48"/>
</g>
</g>
<rect x="73.5" y="22.5" width="338" height="338" rx="169" stroke="#BEDF64"/>
<g filter="url(#filter1_d_287_866)">
<path d="M137.65 222.6L108.25 214.05V213.9V182.7H115.15L120.55 162.45L164.35 174.45L162.1 182.7V249.9L139.45 256.05V216.15L137.65 222.6ZM130.9 203.1L139.45 205.5V191.25L130.9 188.85V203.1ZM164.804 229.05L158.954 207.15L169.004 204.45V175.35L191.654 169.2V205.5L195.704 220.65L164.804 229.05ZM168.854 152.25L166.004 141.3L188.204 135.3L191.054 146.1L168.854 152.25ZM168.854 167.4L166.004 156.45L188.204 150.45L191.054 161.25L168.854 167.4ZM194.393 229.05L188.543 207.15L198.593 204.45V175.35L221.243 169.2V205.5L225.293 220.65L194.393 229.05ZM198.443 167.4L195.593 156.45L217.793 150.45L220.643 161.25L198.443 167.4ZM223.983 229.05L218.133 207.15L228.183 204.45V175.35L250.833 169.2V205.5L254.883 220.65L223.983 229.05ZM228.783 246.9L225.933 235.95L248.133 229.95L250.983 240.75L228.783 246.9ZM228.783 262.05L225.933 251.1L248.133 245.1L250.983 255.9L228.783 262.05ZM252.973 228L246.973 205.8L257.773 204.75V183.75H264.673L270.073 163.5L313.873 175.5L311.773 183.15V215.55L313.573 222.3L252.973 228ZM280.423 189.9V202.65L289.123 201.9V192.3L280.423 189.9ZM288.073 162.9L285.223 151.95L307.423 145.95L310.273 156.75L288.073 162.9ZM314.511 229.05L308.661 207.15L318.861 204.3V175.35L341.511 169.2V215.1L343.161 221.25L314.511 229.05ZM320.211 246.9L317.361 235.95L339.561 229.95L342.411 240.75L320.211 246.9ZM320.211 262.05L317.361 251.1L339.561 245.1L342.411 255.9L320.211 262.05ZM349.555 228.45V156L343.705 134.1L370.105 126.9L375.955 148.8L372.205 149.85V222.15L349.555 228.45ZM350.305 264.3L348.055 255.9L357.655 253.2L348.955 250.8L351.505 243L354.355 234.3L370.255 234.6L368.155 243.3L354.205 243L370.555 247.5L369.955 249.9L374.155 248.85L376.405 257.1L350.305 264.3Z" fill="white"/>
</g>
<defs>
<filter id="filter0_f_287_866" x="-27" y="18" width="264" height="264" filterUnits="userSpaceOnUse" color-interpolation-filters="sRGB">
<feFlood flood-opacity="0" result="BackgroundImageFix"/>
<feBlend mode="normal" in="SourceGraphic" in2="BackgroundImageFix" result="shape"/>
<feGaussianBlur stdDeviation="2" result="effect1_foregroundBlur_287_866"/>
</filter>
<filter id="filter1_d_287_866" x="94.65" y="117.3" width="295.355" height="164.6" filterUnits="userSpaceOnUse" color-interpolation-filters="sRGB">
<feFlood flood-opacity="0" result="BackgroundImageFix"/>
<feColorMatrix in="SourceAlpha" type="matrix" values="0 0 0 0 0 0 0 0 0 0 0 0 0 0 0 0 0 0 127 0" result="hardAlpha"/>
<feOffset dy="4"/>
<feGaussianBlur stdDeviation="6.8"/>
<feComposite in2="hardAlpha" operator="out"/>
<feColorMatrix type="matrix" values="0 0 0 0 0 0 0 0 0 0 0 0 0 0 0 0 0 0 1 0"/>
<feBlend mode="normal" in2="BackgroundImageFix" result="effect1_dropShadow_287_866"/>
<feBlend mode="normal" in="SourceGraphic" in2="effect1_dropShadow_287_866" result="shape"/>
</filter>
<clipPath id="clip0_287_866">
<rect x="73" y="22" width="339" height="339" rx="169.5" fill="white"/>
</clipPath>
</defs>
</svg>
