<svg width="236" height="220" viewBox="0 0 236 220" fill="none" xmlns="http://www.w3.org/2000/svg">
<path d="M102.052 17.9415L86.1196 35.883L77.077 56.8387C72.0534 68.393 67.4604 79.0862 66.8863 80.5932C66.3121 82.1003 65.3792 83.2486 64.8768 83.105C64.3745 82.9615 60.0685 77.8661 55.2602 71.766C50.4518 65.6659 46.1459 60.6423 45.7153 60.6423C45.2129 60.6423 41.6246 65.953 37.6775 72.4837C33.7304 79.0144 27.6302 88.9899 24.1855 94.6594C20.7407 100.329 18.0136 105.281 18.0854 105.64C18.2289 106.07 19.9513 103.63 21.9607 100.401C45.7871 61.1446 44.7823 62.6517 45.2847 65.3788C45.5718 66.7424 46.1459 73.6319 46.5765 80.7368C47.5094 95.7359 47.8683 98.3194 48.873 98.3194C49.3036 98.3194 53.0354 95.7359 57.1261 92.5064C61.2167 89.3487 64.9486 86.9804 65.3074 87.1957C65.738 87.4828 68.7522 93.0805 72.0534 99.683C75.3547 106.285 78.6559 112.099 79.3018 112.673C79.9477 113.247 77.3641 107.649 73.5605 100.185C69.7569 92.7935 66.7427 86.6216 66.8863 86.4781C67.1016 86.2627 76.2158 87.5545 104.061 91.8605C116.764 93.7982 145.255 97.6018 147.192 97.6018C149.058 97.6018 145.614 100.042 132.624 108.151C104.42 125.519 100.186 128.246 99.8986 129.107C99.7551 129.538 104.922 126.595 111.381 122.648C117.84 118.629 124.514 114.467 126.309 113.39C128.103 112.314 133.987 108.654 139.442 105.209C144.896 101.836 149.632 99.0371 149.848 99.0371C150.135 99.0371 152.073 103.774 154.154 109.587C156.307 115.472 158.46 121.141 159.034 122.361C161.187 126.882 159.536 120.998 155.446 109.802C153.221 103.702 151.427 98.463 151.427 98.2477C151.427 97.9606 155.087 95.4488 159.608 92.5782L167.861 87.4828L170.229 88.7028C172.741 89.9946 191.329 100.185 196.567 103.128C198.29 104.132 199.582 104.563 199.438 104.132C199.223 103.63 192.477 99.6112 184.439 95.09C176.329 90.6405 169.727 86.6933 169.727 86.2627C169.727 85.4016 183.075 70.3307 183.865 70.3307C184.152 70.3307 188.099 77.6508 192.62 86.6216C197.142 95.6641 200.873 102.625 200.873 102.195C200.945 101.692 197.859 95.09 194.127 87.4828C190.396 79.8756 187.525 73.4884 187.74 73.2731C187.884 73.0578 192.907 77.7226 198.792 83.6074C204.749 89.564 209.557 94.0135 209.557 93.6547C209.557 92.6499 185.013 68.1777 184.08 68.2495C183.65 68.2495 179.99 72.1248 175.827 76.7896C171.736 81.4544 168.148 85.1863 167.789 84.971C167.502 84.7557 163.986 79.8038 160.039 73.8472L152.79 63.0823L150.422 46.7197C149.058 37.6772 147.767 29.8547 147.408 29.3523C146.618 27.917 118.988 0 118.414 0C118.199 0 110.807 8.0378 102.052 17.9415ZM133.198 16.578C140.662 24.1134 146.834 30.2853 146.905 30.357C146.977 30.4288 147.838 36.4571 148.915 43.7773C149.92 51.0974 150.924 58.1305 151.211 59.3505C151.498 61.1446 151.355 61.7188 150.494 61.7188C149.92 61.7188 141.451 58.7764 131.619 55.2598C121.859 51.6715 113.678 48.8009 113.534 48.8009C113.391 48.8009 113.462 47.5809 113.678 46.0738C114.252 42.8443 118.414 5.38245 118.414 3.94714C118.414 3.37301 118.701 2.87064 119.06 2.87064C119.419 2.87064 125.806 9.04252 133.198 16.578ZM114.826 26.5534C113.606 37.7489 112.458 47.1503 112.242 47.4373C111.884 48.0832 88.2725 36.6007 88.2725 35.7395C88.2725 35.4524 94.6597 27.9887 102.482 19.2333C113.175 7.10484 116.692 3.66007 116.835 4.73656C116.979 5.52599 116.046 15.3579 114.826 26.5534ZM99.6833 43.0596C106.071 46.2891 111.238 49.088 111.238 49.375C111.166 49.6621 106.286 53.6092 100.257 58.1305C94.3009 62.6517 84.5407 70.0436 78.7277 74.4931C72.8428 78.9426 67.891 82.4592 67.6757 82.3156C67.5322 82.1003 70.044 75.9284 73.2734 68.4648C76.4311 61.0011 80.5218 51.528 82.316 47.3656C86.2631 38.1795 86.6937 37.3183 87.5549 37.3183C87.9137 37.3183 93.3679 39.9019 99.6833 43.0596ZM131.332 56.3363C138.222 58.8481 145.614 61.4317 147.767 62.1494L151.57 63.5129L151.14 75.3543C150.565 88.9181 150.063 94.7311 149.274 94.7311C148.771 94.7311 119.275 56.9105 116.692 52.8916L115.257 50.8103L117.051 51.3127C117.984 51.5998 124.443 53.8963 131.332 56.3363ZM111.74 54.3269C111.525 55.834 110.448 64.4459 109.372 73.5602C108.295 82.6027 107.219 90.2816 107.003 90.5687C106.716 90.8558 103.487 90.6405 99.7551 89.9946C96.0233 89.4205 87.4831 88.1287 80.8089 87.1239C74.1346 86.191 68.4651 85.1863 68.2498 84.971C67.6757 84.3968 70.5463 82.0286 85.0431 71.1201C91.7891 66.0247 100.257 59.5658 103.918 56.7669C107.649 53.968 110.951 51.6715 111.381 51.6715C111.884 51.6715 111.955 52.748 111.74 54.3269ZM131.26 73.8472C140.375 85.6886 147.838 95.6641 147.838 96.0947C147.838 96.4535 146.834 96.6688 145.542 96.4535C144.25 96.2382 135.495 95.0182 126.165 93.7264C116.764 92.4346 108.941 91.2864 108.798 91.0711C108.439 90.7122 112.314 56.9105 113.104 53.2504C113.247 52.3174 113.749 51.8151 114.108 52.0304C114.395 52.2457 122.146 62.0776 131.26 73.8472ZM55.619 74.0625C59.9967 79.6603 63.5133 84.6839 63.5133 85.1145C63.5133 85.9757 49.5907 97.243 49.1601 96.7406C48.9448 96.5253 46.6482 67.3883 46.6482 64.9482C46.6482 64.3741 46.8635 63.8718 47.2224 63.8718C47.5094 63.8718 51.313 68.4648 55.619 74.0625ZM159.967 75.9284C163.196 80.8085 165.995 85.1863 166.21 85.7604C166.569 86.6933 163.842 88.7028 154.01 94.7311L151.211 96.3818L151.714 84.6121C152.288 71.0484 152.862 65.6659 153.58 66.5271C153.867 66.8142 156.737 71.0484 159.967 75.9284Z" fill="#36802D"/>
<path d="M221.039 84.3969C221.039 84.971 221.398 85.2581 221.757 85.0428C222.187 84.8275 222.474 84.3251 222.474 83.8945C222.474 83.5357 222.187 83.2486 221.757 83.2486C221.398 83.2486 221.039 83.751 221.039 84.3969Z" fill="#77AB59"/>
<path d="M217.595 95.5924C206.758 105.137 197.859 117.337 191.328 131.475C188.242 138.078 185.228 146.69 177.98 169.009C173.028 184.367 169.727 190.611 163.34 196.998C157.957 202.308 149.058 208.624 141.594 212.356C135.207 215.513 126.308 218.456 125.447 217.595C124.514 216.662 129.753 211.423 137.719 205.251C152.575 193.625 165.564 174.32 173.315 152.144C177.047 141.307 185.3 111.166 184.726 110.52C184.511 110.376 183.219 110.879 181.855 111.596C173.961 115.83 166.138 123.868 160.9 132.911C156.235 141.092 152.288 152.431 147.766 170.803C145.326 180.85 142.814 189.247 141.594 191.615C139.154 196.352 133.341 204.318 126.38 212.356C123.581 215.657 121.285 218.671 121.285 219.03C121.285 220.178 127.815 219.102 135.566 216.59C139.37 215.442 146.475 212.356 151.426 209.772C156.378 207.189 164.416 203.026 169.296 200.443C179.989 194.988 185.946 190.898 192.907 184.152C208.911 168.722 219.317 147.479 223.982 120.567C224.987 114.754 225.13 96.5971 224.125 92.7217L223.551 90.2817L217.595 95.5924ZM218.815 126.954C219.317 127.887 219.245 128.605 218.599 129.538C217.379 131.26 215.011 130.614 214.724 128.533C214.293 125.734 217.523 124.514 218.815 126.954ZM194.63 168.435C196.926 170.516 195.778 173.674 192.692 173.674C189.391 173.674 188.386 170.229 191.041 168.363C193.051 166.928 192.979 166.928 194.63 168.435Z" fill="#77AB59"/>
<path d="M1.79388 101.621C2.65507 112.816 5.59748 128.246 8.53988 137.001C21.8884 176.903 51.3842 204.461 93.7979 216.662C107.577 220.609 107.433 220.609 108.366 218.958C109.012 217.738 108.582 217.092 105.568 214.58C101.333 210.992 96.5968 204.461 95.5921 200.801C95.0179 198.577 95.2332 196.495 96.7403 189.678C98.2474 182.573 98.5345 179.272 98.6062 169.368C98.678 161.545 98.3192 156.163 97.6733 153.579C96.0944 147.12 92.0038 137.791 88.4155 132.408C84.8989 127.169 76.7894 118.557 72.5552 115.615L70.1151 113.821L70.6175 115.83C70.9045 116.907 71.9093 123.653 72.914 130.829C78.1529 168.722 81.8847 184.654 89.1331 199.151C92.2191 205.394 94.3003 208.48 98.1756 212.571C99.611 214.078 100.544 215.442 100.329 215.657C99.6827 216.375 89.6355 212.571 86.6931 210.562C83.1765 208.121 82.0283 206.184 80.7365 200.801C78.5117 191.185 74.4211 181.066 69.9716 174.033C65.9527 167.645 61.7903 162.837 51.3124 152.503C43.2029 144.465 35.3804 135.279 21.6013 117.409C16.2188 110.591 6.53043 99.5395 3.87509 97.3147L1.36328 95.3053L1.79388 101.621ZM30.8591 157.455C32.8686 159.966 30.0697 164.129 27.4861 162.478C26.1226 161.617 25.4767 159.177 26.1226 157.455C26.6249 156.163 29.7109 156.163 30.8591 157.455Z" fill="#77AB59"/>
<path d="M40.1892 105.281C40.1174 121.931 45.6434 134.131 58.4895 145.685L62.7955 149.632L63.0108 146.187C63.8002 133.772 55.6906 114.897 43.8492 101.908L40.2609 97.9607L40.1892 105.281Z" fill="#77AB59"/>
<path d="M233.383 122.146C233.814 123.438 235.392 123.653 235.392 122.433C235.392 121.787 234.89 121.285 234.244 121.285C233.598 121.285 233.239 121.643 233.383 122.146Z" fill="#77AB59"/>
<path d="M136.212 128.318C133.055 131.762 129.538 139.083 128.39 144.25C127.098 150.422 127.887 158.89 130.256 164.201C131.332 166.641 132.624 168.578 133.055 168.435C134.059 168.076 138.15 158.531 139.585 153.149C141.021 147.91 141.092 133.054 139.801 128.533L138.868 125.375L136.212 128.318Z" fill="#77AB59"/>
<path d="M225.489 138.795C225.56 139.513 226.063 140.016 226.422 140.016C227.498 139.944 227.283 138.293 226.206 137.934C225.56 137.719 225.273 138.078 225.489 138.795Z" fill="#77AB59"/>
<path d="M1.93775 139.011C1.07655 139.8 1.36362 140.661 2.51188 140.661C3.086 140.661 3.58837 140.159 3.58837 139.585C3.58837 138.437 2.72717 138.15 1.93775 139.011Z" fill="#77AB59"/>
<path d="M0 148.197C0 148.771 0.502362 149.273 1.07649 149.273C1.65062 149.273 2.15298 148.771 2.15298 148.197C2.15298 147.623 1.65062 147.12 1.07649 147.12C0.502362 147.12 0 147.623 0 148.197Z" fill="#77AB59"/>
<path d="M229.077 147.982C229.436 149.058 231.087 149.273 231.158 148.197C231.158 147.766 230.656 147.336 229.938 147.264C229.221 147.049 228.862 147.336 229.077 147.982Z" fill="#77AB59"/>
<path d="M113.103 159.392C110.017 170.157 108.941 185.013 110.591 194.199C111.811 201.304 115.615 211.71 116.978 211.71C117.696 211.71 121.284 203.6 122.433 199.222C124.083 193.051 124.37 183.362 123.15 176.616C122.146 171.09 118.198 161.258 115.256 157.024C114.251 155.589 114.18 155.732 113.103 159.392Z" fill="#77AB59"/>
<path d="M210.274 171.88C210.274 172.597 210.777 172.956 211.566 172.813C213.073 172.525 212.93 171.234 211.423 170.947C210.705 170.803 210.274 171.162 210.274 171.88Z" fill="#77AB59"/>
<path d="M17.2236 172.597C17.2236 173.315 17.726 173.674 18.5154 173.53C20.0225 173.243 19.879 171.951 18.3719 171.664C17.6542 171.521 17.2236 171.88 17.2236 172.597Z" fill="#77AB59"/>
<path d="M36.6005 193.409C35.4522 194.773 36.1699 196.639 37.964 196.639C39.7582 196.639 40.4041 194.773 39.0405 193.409C37.677 192.118 37.677 192.118 36.6005 193.409Z" fill="#77AB59"/>
<path d="M191.184 203.457C190.61 204.964 191.328 206.686 192.548 206.686C194.055 206.686 195.275 204.892 194.773 203.528C194.199 202.093 191.687 202.021 191.184 203.457Z" fill="#77AB59"/>
<path d="M178.913 204.246C178.697 204.82 179.056 205.897 179.702 206.543C180.779 207.619 180.922 207.619 181.999 206.543C183.506 205.036 182.788 203.098 180.85 203.098C180.061 203.098 179.2 203.6 178.913 204.246Z" fill="#77AB59"/>
<path d="M59.2789 207.188C58.4177 208.05 58.8483 209.557 59.9248 209.557C60.499 209.557 61.0013 209.126 61.0013 208.552C61.0013 207.332 59.9966 206.543 59.2789 207.188Z" fill="#77AB59"/>
<path d="M48.2267 211.494C48.3702 212.93 48.8726 213.504 49.8773 213.504C50.882 213.504 51.3844 212.93 51.5279 211.494C51.7432 209.844 51.5279 209.557 49.8773 209.557C48.2267 209.557 48.0114 209.844 48.2267 211.494Z" fill="#77AB59"/>
</svg>
