<svg width="654" height="349" viewBox="0 0 654 349" fill="none" xmlns="http://www.w3.org/2000/svg">
<g filter="url(#filter0_d_287_864)">
<path d="M82.85 233.4L14.25 213.45V213.1V140.3H30.35L42.95 93.05L145.15 121.05L139.9 140.3V297.1L87.05 311.45V218.35L82.85 233.4ZM67.1 187.9L87.05 193.5V160.25L67.1 154.65V187.9ZM146.208 248.45L132.558 197.35L156.008 191.05V123.15L208.858 108.8V193.5L218.308 228.85L146.208 248.45ZM155.658 69.25L149.008 43.7L200.808 29.7L207.458 54.9L155.658 69.25ZM155.658 104.6L149.008 79.05L200.808 65.05L207.458 90.25L155.658 104.6ZM215.251 248.45L201.601 197.35L225.051 191.05V123.15L277.901 108.8V193.5L287.351 228.85L215.251 248.45ZM224.701 104.6L218.051 79.05L269.851 65.05L276.501 90.25L224.701 104.6ZM284.294 248.45L270.644 197.35L294.094 191.05V123.15L346.944 108.8V193.5L356.394 228.85L284.294 248.45ZM295.494 290.1L288.844 264.55L340.644 250.55L347.294 275.75L295.494 290.1ZM295.494 325.45L288.844 299.9L340.644 285.9L347.294 311.1L295.494 325.45ZM351.937 246L337.937 194.2L363.137 191.75V142.75H379.237L391.837 95.5L494.037 123.5L489.137 141.35V216.95L493.337 232.7L351.937 246ZM415.987 157.1V186.85L436.287 185.1V162.7L415.987 157.1ZM433.837 94.1L427.187 68.55L478.987 54.55L485.637 79.75L433.837 94.1ZM495.525 248.45L481.875 197.35L505.675 190.7V123.15L558.525 108.8V215.9L562.375 230.25L495.525 248.45ZM508.825 290.1L502.175 264.55L553.975 250.55L560.625 275.75L508.825 290.1ZM508.825 325.45L502.175 299.9L553.975 285.9L560.625 311.1L508.825 325.45ZM577.296 247.05V78L563.646 26.9L625.246 10.1L638.896 61.2L630.146 63.65V232.35L577.296 247.05ZM579.046 330.7L573.796 311.1L596.196 304.8L575.896 299.2L581.846 281L588.496 260.7L625.596 261.4L620.696 281.7L588.146 281L626.296 291.5L624.896 297.1L634.696 294.65L639.946 313.9L579.046 330.7Z" fill="white"/>
</g>
<defs>
<filter id="filter0_d_287_864" x="0.65" y="0.500006" width="652.896" height="347.8" filterUnits="userSpaceOnUse" color-interpolation-filters="sRGB">
<feFlood flood-opacity="0" result="BackgroundImageFix"/>
<feColorMatrix in="SourceAlpha" type="matrix" values="0 0 0 0 0 0 0 0 0 0 0 0 0 0 0 0 0 0 127 0" result="hardAlpha"/>
<feOffset dy="4"/>
<feGaussianBlur stdDeviation="6.8"/>
<feComposite in2="hardAlpha" operator="out"/>
<feColorMatrix type="matrix" values="0 0 0 0 0 0 0 0 0 0 0 0 0 0 0 0 0 0 1 0"/>
<feBlend mode="normal" in2="BackgroundImageFix" result="effect1_dropShadow_287_864"/>
<feBlend mode="normal" in="SourceGraphic" in2="effect1_dropShadow_287_864" result="shape"/>
</filter>
</defs>
</svg>
