<svg width="218" height="218" viewBox="0 0 218 218" fill="none" xmlns="http://www.w3.org/2000/svg">
<path d="M156.688 193.703C156.696 195.234 156.158 196.717 155.171 197.887C154.183 199.056 152.812 199.836 151.301 200.085C142.052 201.561 116.599 204.375 109 204.375C101.401 204.375 75.948 201.561 66.6987 200.085C65.1886 199.836 63.8168 199.056 62.8296 197.887C61.8424 196.717 61.3045 195.234 61.3126 193.703V38.959H156.688V193.703Z" fill="#4605FF"/>
<path d="M146.469 183.698C146.469 186.878 144.758 189.585 142.429 190.08C135.492 191.555 114.7 194.37 109 194.37C103.3 194.37 82.5079 191.556 75.5706 190.08C73.242 189.585 71.5312 186.878 71.5312 183.698V38.959H146.469V183.698Z" fill="#333333"/>
<path d="M177.125 31.7054C183.429 31.7054 183.437 22.1636 177.125 22.1636H40.8748C34.5712 22.1636 34.5631 31.7054 40.8748 31.7054H177.125Z" fill="#C5C5DD"/>
<path d="M76.2148 46.0176V17.5294C76.2148 14.7146 80.4727 14.7107 80.4727 17.5294V46.0176C80.4727 48.8324 76.2148 48.8363 76.2148 46.0176ZM137.527 46.0176V17.5294C137.527 14.7146 141.785 14.7107 141.785 17.5294V46.0176C141.785 48.8324 137.527 48.8363 137.527 46.0176Z" fill="#FFE05F"/>
<path d="M112.261 134.891C112.432 137.565 112.923 140.224 113.733 142.866H105.62C106.272 139.75 106.763 137.091 107.092 134.891L107.221 129.514C107.629 129.08 107.991 129.08 108.308 129.514C107.425 131.096 106.483 132.387 105.481 133.388C104.058 134.812 101.953 135.523 99.1663 135.523C97.1634 135.523 95.5427 134.812 94.304 133.388C92.7162 131.801 91.9224 129.61 91.9224 126.816C91.9224 123.661 95.0222 117.896 101.222 109.522L109.671 98.3054L118.249 109.453C124.37 117.234 127.43 123.022 127.43 126.816C127.43 129.603 126.636 131.794 125.049 133.388C123.625 134.812 121.926 135.523 119.949 135.523C117.34 135.523 115.202 134.782 113.535 133.299C112.033 131.797 111.203 130.578 111.045 129.643C111.374 129.485 111.539 129.465 111.539 129.584L112.261 134.891Z" fill="#4605FF"/>
</svg>
